<?xml version="1.0" encoding="UTF-8" standalone="no"?>
<svg
   xmlns:dc="http://purl.org/dc/elements/1.1/"
   xmlns:cc="http://creativecommons.org/ns#"
   xmlns:rdf="http://www.w3.org/1999/02/22-rdf-syntax-ns#"
   xmlns:svg="http://www.w3.org/2000/svg"
   xmlns="http://www.w3.org/2000/svg"
   xmlns:sodipodi="http://sodipodi.sourceforge.net/DTD/sodipodi-0.dtd"
   xmlns:inkscape="http://www.inkscape.org/namespaces/inkscape"
   width="200"
   height="200"
   version="1.1"
   id="svg921"
   sodipodi:docname="koha-egg.svg"
   inkscape:version="1.0.2 (e86c870879, 2021-01-15)">
  <metadata
     id="metadata927">
    <rdf:RDF>
      <cc:Work
         rdf:about="">
        <dc:format>image/svg+xml</dc:format>
        <dc:type
           rdf:resource="http://purl.org/dc/dcmitype/StillImage" />
        <dc:title></dc:title>
      </cc:Work>
    </rdf:RDF>
  </metadata>
  <defs
     id="defs925" />
  <sodipodi:namedview
     pagecolor="#ffffff"
     bordercolor="#666666"
     borderopacity="1"
     objecttolerance="10"
     gridtolerance="10"
     guidetolerance="10"
     inkscape:pageopacity="0"
     inkscape:pageshadow="2"
     inkscape:window-width="1916"
     inkscape:window-height="1036"
     id="namedview923"
     showgrid="false"
     inkscape:zoom="4.015"
     inkscape:cx="100"
     inkscape:cy="100"
     inkscape:window-x="1680"
     inkscape:window-y="42"
     inkscape:window-maximized="1"
     inkscape:current-layer="svg921"
     inkscape:document-rotation="0"
     inkscape:pagecheckerboard="true" />
  <style
     id="style907">.a{font-family:Bitstream Vera Sans;font-size:40px;}</style>
  <text
     x="805.4"
     y="1549.5"
     class="a"
     id="text911"><tspan
       x="805.4"
       y="1549.5"
       id="tspan909" /></text>
  <text
     x="-2373.6"
     y="1342.1"
     class="a"
     id="text915"><tspan
       x="-2373.6"
       y="1342.1"
       id="tspan913" /></text>
  <path
     d="m92.9 195c-13.1-1.6-23-7.8-26.2-16.2-1.5-3.9-2-8.5-1.1-8.5 0.2 0 2 1.4 3.9 3.1 4.2 3.7 7.5 5.4 12.7 6.7 11.3 2.7 24.2-3.7 29.8-14.8 2-4 3.3-7.4 3.3-12.3 0-5.1-1.2-8.8-3.2-12.5-4.2-7.9-14.3-16-24.1-19-4.3-1.3-7-1.7-14.3-1.6-14.9 0.1-26.1 4.1-34.5 12.6-8 8-11.5 17.5-11.5 30.8 0 7.5-0.7 8.9-2.1 4.3-2.9-9.8-3.8-33.5-1.8-45.1C26.8 105.6 31.2 92 38.5 77 52 49.1 72.3 27.2 94.7 16.3 105.7 11 113.6 8.9 123.2 8.9c13.3 0 23 3.8 32.5 12.7 21.8 20.5 26.6 61.1 12 103.3-5.9 17.1-18.3 38.9-28.3 49.9-4.4 4.8-14.5 12.3-20.7 15.5-7.4 3.7-17.9 5.6-25.8 4.6z"
     fill="#74b01b"
     id="path917"
     style="fill-opacity:1;fill-rule:nonzero;fill:#000000" />
</svg>
