<svg xmlns="http://www.w3.org/2000/svg" width="85.187" height="125" display="block"><circle cx="42.593" cy="22.925" r="22.925" fill="#ccc" style="vector-effect:none"/><path fill="#ccc" d="M27.3 47.78C12.3 47.78.2 59.28 0 73.6V125h85.2V73.6h-.02c-.2-14.33-12.3-25.82-27.3-25.82z" style="vector-effect:none"/><path d="M36.76 105.66c-.12-2.64 2.94-4.65 5.32-3.53 2.6.96 3.18 4.83.96 6.5-1.97 1.73-5.44.7-6.12-1.84-.1-.36-.18-.8-.16-1.14zM40.9 65c3.56-.03 7.7 1.07 9.52 4.44 1.72 3.12 1.04 7.1-1.12 9.83-2.03 2.8-4.97 5.18-5.57 8.77-.57 2.7-.54 5.5-.57 8.24-1.75 0-3.5 0-5.26 0 .06-5.14.24-10.78 3.5-15.06 1.6-2.18 3.74-4.25 4.2-7.03.3-2.45-2.2-4.05-4.37-4.16-3.02-.35-6.1.97-8.12 3.2-.42-1.7-.84-3.4-1.27-5.1 2.42-2.2 5.98-3.04 9.07-3.14z"/></svg>