<?xml version="1.0" encoding="utf-8"?>
<!-- Generator: Adobe Illustrator 16.0.0, SVG Export Plug-In . SVG Version: 6.00 Build 0)  -->
<!DOCTYPE svg PUBLIC "-//W3C//DTD SVG 1.1//EN" "http://www.w3.org/Graphics/SVG/1.1/DTD/svg11.dtd">
<svg version="1.1" id="Calque_1" xmlns="http://www.w3.org/2000/svg" xmlns:xlink="http://www.w3.org/1999/xlink" x="0px" y="0px"
	 width="29.312px" height="35.625px" viewBox="0 0 29.312 35.625" enable-background="new 0 0 29.312 35.625" xml:space="preserve">
<g id="g2618_120_">
	<linearGradient id="path14_1_" gradientUnits="userSpaceOnUse" x1="0.1895" y1="30.835" x2="29.3993" y2="7.1813">
		<stop  offset="0.4778" style="stop-color:#418A40"/>
		<stop  offset="1" style="stop-color:#589D43"/>
	</linearGradient>
	<path id="path14_111_" fill="url(#path14_1_)" d="M13.295,1.685c1.83-1.016,3.904-1.599,5.992-1.685
		c1.102,0.054,2.207,0.178,3.242,0.618c2.041,0.764,3.727,2.326,4.783,4.217c1.168,1.936,1.686,4.185,1.932,6.41
		c0.539,7.367-2.189,14.768-6.844,20.431c-1.83,1.829-4.086,3.383-6.674,3.858c-2.141,0.307-4.459-0.151-6.18-1.502
		c-1.066-0.807-1.498-2.205-1.406-3.5c0.945,1.336,2.494,2.262,4.146,2.3c1.498,0.071,2.988-0.612,3.994-1.706
		c1.695-1.827,1.863-4.91,0.275-6.855c-0.727-0.843-1.572-1.6-2.555-2.134c-0.986-0.582-2.127-0.834-3.252-0.987
		c-2.078-0.133-4.232,0.244-6.063,1.268c-1.775,1.004-3.078,2.795-3.486,4.793c-0.416,1.553-0.266,3.177-0.1,4.752
		C0.42,30.159,0.146,28.242,0,26.331v-1.395c0.24-6.988,3.15-13.805,7.834-18.972C9.443,4.298,11.238,2.771,13.295,1.685z"/>
</g>
</svg>
