<?xml version="1.0" encoding="UTF-8" standalone="no"?>
<svg
   xmlns:dc="http://purl.org/dc/elements/1.1/"
   xmlns:cc="http://creativecommons.org/ns#"
   xmlns:rdf="http://www.w3.org/1999/02/22-rdf-syntax-ns#"
   xmlns:svg="http://www.w3.org/2000/svg"
   xmlns="http://www.w3.org/2000/svg"
   xmlns:sodipodi="http://sodipodi.sourceforge.net/DTD/sodipodi-0.dtd"
   xmlns:inkscape="http://www.inkscape.org/namespaces/inkscape"
   width="1052.3622"
   height="744.09448"
   viewBox="0 0 995 431"
   version="1.0"
   id="svg2"
   sodipodi:version="0.32"
   inkscape:version="0.46"
   sodipodi:docname="koha3-staff-client-logo.svg"
   inkscape:output_extension="org.inkscape.output.svg.inkscape">
  <metadata
     id="metadata119">
    <rdf:RDF>
      <cc:Work
         rdf:about="">
        <dc:format>image/svg+xml</dc:format>
        <dc:type
           rdf:resource="http://purl.org/dc/dcmitype/StillImage" />
      </cc:Work>
    </rdf:RDF>
  </metadata>
  <sodipodi:namedview
     inkscape:window-height="722"
     inkscape:window-width="1099"
     inkscape:pageshadow="2"
     inkscape:pageopacity="0.0"
     guidetolerance="10.0"
     gridtolerance="10.0"
     objecttolerance="10.0"
     borderopacity="1.0"
     bordercolor="#666666"
     pagecolor="#ffffff"
     id="base"
     showgrid="false"
     inkscape:zoom="2.8963693"
     inkscape:cx="471.7559"
     inkscape:cy="389.90551"
     inkscape:window-x="89"
     inkscape:window-y="88"
     inkscape:current-layer="svg2" />
  <defs
     id="defs4">
    <inkscape:perspective
       sodipodi:type="inkscape:persp3d"
       inkscape:vp_x="0 : 269.375 : 1"
       inkscape:vp_y="0 : 1000 : 0"
       inkscape:vp_z="1243.75 : 269.375 : 1"
       inkscape:persp3d-origin="621.875 : 179.58333 : 1"
       id="perspective121" />
    <clipPath
       id="clip0">
      <rect
         width="995"
         height="431"
         id="rect7"
         x="0"
         y="0" />
    </clipPath>
    <inkscape:perspective
       id="perspective2612"
       inkscape:persp3d-origin="372.04724 : 350.78739 : 1"
       inkscape:vp_z="744.09448 : 526.18109 : 1"
       inkscape:vp_y="0 : 1000 : 0"
       inkscape:vp_x="0 : 526.18109 : 1"
       sodipodi:type="inkscape:persp3d" />
  </defs>
  <g
     id="g2618"
     transform="matrix(0.1730485,0,0,0.1766524,414.19608,154.63988)">
    <path
       style="fill:none;stroke:#000000;stroke-width:0.1;stroke-linecap:butt;stroke-linejoin:miter;stroke-miterlimit:10"
       d="M 93.035919,63.929321 C 105.82234,56.815948 120.33511,52.741013 134.95119,52.13765 C 142.6497,52.509613 150.39426,53.718964 157.63268,56.459915 C 171.90775,61.806046 183.71925,72.741959 191.10295,85.976837 C 199.28287,99.511032 202.90364,115.25172 204.61852,130.8204 C 208.3989,182.37524 189.30562,234.15422 156.73491,273.78354 C 143.92129,286.57999 128.14166,297.45074 110.03976,300.78157 C 95.061584,302.92561 78.84407,299.72003 66.798676,290.26991 C 59.338257,284.62917 56.320282,274.83792 56.946152,265.77742 C 63.56839,275.12834 74.402161,281.60588 85.979584,281.8683 C 96.461807,282.36855 106.87396,277.57893 113.93022,269.93472 C 125.77466,257.14722 126.96411,235.57423 115.84676,221.96887 C 110.76152,216.06361 104.84651,210.76726 97.968735,207.03247 C 91.065048,202.9596 83.089157,201.18448 75.226013,200.12866 C 60.678864,199.19783 45.600616,201.83462 32.791916,208.99087 C 20.375305,216.02243 11.25116,228.55006 8.407715,242.53528 C 5.486984,253.39414 6.548477,264.75449 7.702728,275.7858 C 2.939728,263.16989 1.02951,249.75554 0,236.38074 L 0,226.62556 C 1.675018,177.7271 22.040985,130.02357 54.811737,93.876007 C 66.07251,82.209015 78.635376,71.524826 93.035919,63.929321 z"
       id="path14" />
    <path
       style="fill:#000000;fill-rule:nonzero;stroke:none"
       d="M 93.035919,63.929321 C 105.82234,56.815948 120.33511,52.741013 134.95119,52.13765 C 142.6497,52.509613 150.39426,53.718964 157.63268,56.459915 C 171.90775,61.806046 183.71925,72.741959 191.10295,85.976837 C 199.28287,99.511032 202.90364,115.25172 204.61852,130.8204 C 208.3989,182.37524 189.30562,234.15422 156.73491,273.78354 C 143.92129,286.57999 128.14166,297.45074 110.03976,300.78157 C 95.061584,302.92561 78.84407,299.72003 66.798676,290.26991 C 59.338257,284.62917 56.320282,274.83792 56.946152,265.77742 C 63.56839,275.12834 74.402161,281.60588 85.979584,281.8683 C 96.461807,282.36855 106.87396,277.57893 113.93022,269.93472 C 125.77466,257.14722 126.96411,235.57423 115.84676,221.96887 C 110.76152,216.06361 104.84651,210.76726 97.968735,207.03247 C 91.065048,202.9596 83.089157,201.18448 75.226013,200.12866 C 60.678864,199.19783 45.600616,201.83462 32.791916,208.99087 C 20.375305,216.02243 11.25116,228.55006 8.407715,242.53528 C 5.486984,253.39414 6.548477,264.75449 7.702728,275.7858 C 2.939728,263.16989 1.02951,249.75554 0,236.38074 L 0,226.62556 C 1.675018,177.7271 22.040985,130.02357 54.811737,93.876007 C 66.07251,82.209015 78.635376,71.524826 93.035919,63.929321 z"
       id="path16" />
    <path
       style="fill:none;stroke:#000000;stroke-width:0.1;stroke-linecap:butt;stroke-linejoin:miter;stroke-miterlimit:10"
       d="M 262.5504,73.017014 C 279.71751,73.374878 297.01874,72.937027 313.7551,68.688049 C 301.24852,112.70227 288.41035,156.62293 275.82709,200.61565 C 277.32939,199.56996 278.76004,198.42436 280.14493,197.22604 C 295.67348,183.37877 310.67703,168.94644 326.43504,155.35548 C 333.71697,149.31447 341.21561,142.59465 350.79294,140.6982 C 355.17393,139.62761 360.34343,139.8849 363.77127,143.1474 C 371.71057,150.18912 370.90759,164.12265 362.92039,170.83832 C 358.7296,174.71448 352.39656,175.29103 347.08365,173.8485 C 342.63135,172.74852 340.36491,168.31966 336.51044,166.21614 C 330.38063,166.00726 325.11868,169.99812 320.50967,173.59201 C 310.84699,181.64384 301.53145,190.11113 291.82384,198.10831 C 291.59679,199.38132 292.87534,200.46013 293.30911,201.62697 C 303.02383,218.94978 312.61949,236.33983 322.32977,253.66522 C 325.77159,259.34688 329.33319,265.35249 334.98117,269.11414 C 338.07278,271.31361 342.45592,270.78787 345.24045,268.33598 C 350.31451,263.96841 354.12216,258.21521 356.5831,252.01149 C 359.5316,251.99591 362.48228,251.98871 365.43631,252.02023 C 361.53767,261.96561 357.04118,271.88831 350.03992,280.07605 C 345.18973,286.09914 338.1006,291.27045 330.04469,291.04395 C 323.21007,291.31235 316.92868,287.4594 312.46033,282.56093 C 305.21826,274.32193 300.22375,264.47676 294.87543,254.98314 C 287.22516,241.42052 279.67328,227.80322 272.04434,214.22931 C 265.20845,238.29021 258.85001,262.48691 251.90361,286.51698 C 243.89764,286.48132 235.89241,286.5136 227.88773,286.49858 C 243.72218,230.3434 259.29689,174.11513 275.07135,117.94299 C 277.49585,108.72188 281.03517,99.555573 280.8595,89.885452 C 280.9834,86.35022 278.66998,82.756317 275.08156,82.045471 C 270.22994,80.959915 265.19905,81.707092 260.27596,81.52507 C 261.04858,78.692825 261.8098,75.857727 262.5504,73.017014 z"
       id="path18" />
    <path
       style="fill:#000000;fill-rule:nonzero;stroke:none"
       d="M 262.5504,73.017014 C 279.71751,73.374878 297.01874,72.937027 313.7551,68.688049 C 301.24852,112.70227 288.41035,156.62293 275.82709,200.61565 C 277.32939,199.56996 278.76004,198.42436 280.14493,197.22604 C 295.67348,183.37877 310.67703,168.94644 326.43504,155.35548 C 333.71697,149.31447 341.21561,142.59465 350.79294,140.6982 C 355.17393,139.62761 360.34343,139.8849 363.77127,143.1474 C 371.71057,150.18912 370.90759,164.12265 362.92039,170.83832 C 358.7296,174.71448 352.39656,175.29103 347.08365,173.8485 C 342.63135,172.74852 340.36491,168.31966 336.51044,166.21614 C 330.38063,166.00726 325.11868,169.99812 320.50967,173.59201 C 310.84699,181.64384 301.53145,190.11113 291.82384,198.10831 C 291.59679,199.38132 292.87534,200.46013 293.30911,201.62697 C 303.02383,218.94978 312.61949,236.33983 322.32977,253.66522 C 325.77159,259.34688 329.33319,265.35249 334.98117,269.11414 C 338.07278,271.31361 342.45592,270.78787 345.24045,268.33598 C 350.31451,263.96841 354.12216,258.21521 356.5831,252.01149 C 359.5316,251.99591 362.48228,251.98871 365.43631,252.02023 C 361.53767,261.96561 357.04118,271.88831 350.03992,280.07605 C 345.18973,286.09914 338.1006,291.27045 330.04469,291.04395 C 323.21007,291.31235 316.92868,287.4594 312.46033,282.56093 C 305.21826,274.32193 300.22375,264.47676 294.87543,254.98314 C 287.22516,241.42052 279.67328,227.80322 272.04434,214.22931 C 265.20845,238.29021 258.85001,262.48691 251.90361,286.51698 C 243.89764,286.48132 235.89241,286.5136 227.88773,286.49858 C 243.72218,230.3434 259.29689,174.11513 275.07135,117.94299 C 277.49585,108.72188 281.03517,99.555573 280.8595,89.885452 C 280.9834,86.35022 278.66998,82.756317 275.08156,82.045471 C 270.22994,80.959915 265.19905,81.707092 260.27596,81.52507 C 261.04858,78.692825 261.8098,75.857727 262.5504,73.017014 z"
       id="path20" />
    <path
       style="fill:none;stroke:#000000;stroke-width:0.1;stroke-linecap:butt;stroke-linejoin:miter;stroke-miterlimit:10"
       d="M 586.52339,73.056549 C 603.59093,73.261536 620.84419,73.169083 637.45009,68.671722 C 627.48381,105.03127 616.77945,141.19076 606.82167,177.55237 C 615.36653,166.02873 624.60179,154.43993 637.24512,147.18266 C 646.67088,141.62244 658.06227,138.71341 668.93984,140.8573 C 676.71019,142.33615 683.90865,147.39583 687.23785,154.67102 C 689.9651,160.34364 690.22082,166.8295 689.51189,172.98515 C 687.86028,189.54215 680.94328,204.84654 675.49657,220.38384 C 670.76578,233.41763 665.72594,246.34518 661.38617,259.51686 C 659.89685,264.70813 657.79651,270.20992 659.28395,275.64073 C 660.5164,279.53763 665.42964,279.90297 668.67584,278.55888 C 672.0517,276.86958 675.10617,274.42793 677.30598,271.338 C 682.05669,265.20152 686.13,258.40733 688.0625,250.82652 C 691.24779,250.83203 694.43501,250.8374 697.63019,250.81111 C 694.73903,263.78145 688.03565,276.17586 677.4659,284.44287 C 669.69374,290.61143 658.83733,292.8018 649.36932,289.70137 C 641.23198,286.9148 636.093,278.42357 635.84668,270.0531 C 635.27313,261.23676 638.153,252.73022 640.65407,244.40745 C 645.4581,229.95575 651.18767,215.8336 656.4541,201.54787 C 661.52358,188.51537 666.82536,175.06113 666.83934,160.86942 C 666.90355,156.86432 664.09062,153.04961 660.08739,152.30843 C 650.51775,150.63988 640.90672,154.72134 633.50453,160.58128 C 623.03819,168.85846 615.35544,180.11822 609.04213,191.74409 C 599.0134,208.81317 592.87283,227.79658 587.67139,246.79894 C 583.86763,260.03276 580.14304,273.28883 576.26387,286.50072 C 568.13719,286.50232 560.01228,286.50117 551.88869,286.50156 C 563.29164,246.00156 574.45521,205.43422 585.80066,164.91808 C 591.73459,143.17664 598.0603,121.54146 603.73538,99.730484 C 604.65478,95.174042 606.78722,90.446396 605.09242,85.809189 C 604.70003,83.345718 602.20543,82.15065 599.96977,81.911362 C 594.66887,81.09697 589.28116,81.653366 583.94649,81.515472 C 584.8781,78.718948 585.71471,75.891876 586.52339,73.056549 z"
       id="path22" />
    <path
       style="fill:#000000;fill-rule:nonzero;stroke:none"
       d="M 586.52339,73.056549 C 603.59093,73.261536 620.84419,73.169083 637.45009,68.671722 C 627.48381,105.03127 616.77945,141.19076 606.82167,177.55237 C 615.36653,166.02873 624.60179,154.43993 637.24512,147.18266 C 646.67088,141.62244 658.06227,138.71341 668.93984,140.8573 C 676.71019,142.33615 683.90865,147.39583 687.23785,154.67102 C 689.9651,160.34364 690.22082,166.8295 689.51189,172.98515 C 687.86028,189.54215 680.94328,204.84654 675.49657,220.38384 C 670.76578,233.41763 665.72594,246.34518 661.38617,259.51686 C 659.89685,264.70813 657.79651,270.20992 659.28395,275.64073 C 660.5164,279.53763 665.42964,279.90297 668.67584,278.55888 C 672.0517,276.86958 675.10617,274.42793 677.30598,271.338 C 682.05669,265.20152 686.13,258.40733 688.0625,250.82652 C 691.24779,250.83203 694.43501,250.8374 697.63019,250.81111 C 694.73903,263.78145 688.03565,276.17586 677.4659,284.44287 C 669.69374,290.61143 658.83733,292.8018 649.36932,289.70137 C 641.23198,286.9148 636.093,278.42357 635.84668,270.0531 C 635.27313,261.23676 638.153,252.73022 640.65407,244.40745 C 645.4581,229.95575 651.18767,215.8336 656.4541,201.54787 C 661.52358,188.51537 666.82536,175.06113 666.83934,160.86942 C 666.90355,156.86432 664.09062,153.04961 660.08739,152.30843 C 650.51775,150.63988 640.90672,154.72134 633.50453,160.58128 C 623.03819,168.85846 615.35544,180.11822 609.04213,191.74409 C 599.0134,208.81317 592.87283,227.79658 587.67139,246.79894 C 583.86763,260.03276 580.14304,273.28883 576.26387,286.50072 C 568.13719,286.50232 560.01228,286.50117 551.88869,286.50156 C 563.29164,246.00156 574.45521,205.43422 585.80066,164.91808 C 591.73459,143.17664 598.0603,121.54146 603.73538,99.730484 C 604.65478,95.174042 606.78722,90.446396 605.09242,85.809189 C 604.70003,83.345718 602.20543,82.15065 599.96977,81.911362 C 594.66887,81.09697 589.28116,81.653366 583.94649,81.515472 C 584.8781,78.718948 585.71471,75.891876 586.52339,73.056549 z"
       id="path24" />
    <path
       style="fill:none;stroke:#000000;stroke-width:0.1;stroke-linecap:butt;stroke-linejoin:miter;stroke-miterlimit:10"
       d="M 465.58113,140.61339 C 478.12027,139.07219 491.6955,141.11032 501.97656,148.87807 C 513.26326,157.51062 519.99059,171.08633 521.90309,185.00342 C 524.38336,202.87906 521.97104,221.43684 515.21616,238.16446 C 510.28351,250.03743 502.97115,260.85355 494.05759,270.09747 C 483.66313,280.22989 470.47327,287.84309 455.99286,290.02931 C 443.90529,292.04336 430.6776,291.58655 419.93994,285.06428 C 406.72798,277.1478 398.79343,262.5117 396.53076,247.55914 C 393.50929,227.125 396.78249,205.72418 406.21835,187.30409 C 414.35689,171.65122 425.74304,157.01558 441.36604,148.28934 C 448.83926,144.19058 457.09607,141.51845 465.58113,140.61339 z"
       id="path26" />
    <path
       style="fill:#000000;fill-rule:nonzero;stroke:none"
       d="M 465.58113,140.61339 C 478.12027,139.07219 491.6955,141.11032 501.97656,148.87807 C 513.26326,157.51062 519.99059,171.08633 521.90309,185.00342 C 524.38336,202.87906 521.97104,221.43684 515.21616,238.16446 C 510.28351,250.03743 502.97115,260.85355 494.05759,270.09747 C 483.66313,280.22989 470.47327,287.84309 455.99286,290.02931 C 443.90529,292.04336 430.6776,291.58655 419.93994,285.06428 C 406.72798,277.1478 398.79343,262.5117 396.53076,247.55914 C 393.50929,227.125 396.78249,205.72418 406.21835,187.30409 C 414.35689,171.65122 425.74304,157.01558 441.36604,148.28934 C 448.83926,144.19058 457.09607,141.51845 465.58113,140.61339 z"
       id="path28" />
    <path
       style="fill:none;stroke:#000000;stroke-width:0.1;stroke-linecap:butt;stroke-linejoin:miter;stroke-miterlimit:10"
       d="M 758.09482,157.04572 C 768.11458,147.02004 781.74519,140.472 796.0253,140.14525 C 805.28539,139.64583 814.84885,142.91634 821.31747,149.68477 C 828.20024,156.31526 832.22446,165.68677 832.36856,175.24208 C 835.05264,165.03278 838.22598,154.95653 841.16406,144.817 C 849.31604,144.85332 857.47022,144.81227 865.62688,144.84116 C 856.18957,178.23263 846.51796,211.55572 837.05821,244.9407 C 834.49606,253.96933 832.88374,263.40401 833.65454,272.80843 C 834.00296,276.00696 835.28006,280.11507 838.82622,280.97051 C 844.05583,281.81374 847.57068,276.97037 850.61194,273.51935 C 856.13037,265.75325 861.14523,257.36359 863.53912,248.0594 C 866.41829,248.00009 869.30397,247.97716 872.19711,247.9997 C 869.08295,258.57844 864.4333,268.86293 857.43875,277.46223 C 853.14357,282.99144 847.5863,287.86681 840.81303,290.0117 C 833.62764,292.36615 824.88342,291.03163 819.73447,285.16809 C 814.34276,278.75297 812.94112,270.10713 812.4247,261.99998 C 804.07869,274.40356 792.3396,285.43748 777.61591,289.461 C 767.10643,292.25468 754.92424,291.83168 745.92696,285.12143 C 734.94246,276.77074 729.5444,263.15988 727.45973,249.9025 C 725.11809,232.68364 726.84091,214.88957 732.64329,198.49663 C 738.375,183.26099 746.52191,168.62785 758.09482,157.04572 z"
       id="path30" />
    <path
       style="fill:#000000;fill-rule:nonzero;stroke:none"
       d="M 758.09482,157.04572 C 768.11458,147.02004 781.74519,140.472 796.0253,140.14525 C 805.28539,139.64583 814.84885,142.91634 821.31747,149.68477 C 828.20024,156.31526 832.22446,165.68677 832.36856,175.24208 C 835.05264,165.03278 838.22598,154.95653 841.16406,144.817 C 849.31604,144.85332 857.47022,144.81227 865.62688,144.84116 C 856.18957,178.23263 846.51796,211.55572 837.05821,244.9407 C 834.49606,253.96933 832.88374,263.40401 833.65454,272.80843 C 834.00296,276.00696 835.28006,280.11507 838.82622,280.97051 C 844.05583,281.81374 847.57068,276.97037 850.61194,273.51935 C 856.13037,265.75325 861.14523,257.36359 863.53912,248.0594 C 866.41829,248.00009 869.30397,247.97716 872.19711,247.9997 C 869.08295,258.57844 864.4333,268.86293 857.43875,277.46223 C 853.14357,282.99144 847.5863,287.86681 840.81303,290.0117 C 833.62764,292.36615 824.88342,291.03163 819.73447,285.16809 C 814.34276,278.75297 812.94112,270.10713 812.4247,261.99998 C 804.07869,274.40356 792.3396,285.43748 777.61591,289.461 C 767.10643,292.25468 754.92424,291.83168 745.92696,285.12143 C 734.94246,276.77074 729.5444,263.15988 727.45973,249.9025 C 725.11809,232.68364 726.84091,214.88957 732.64329,198.49663 C 738.375,183.26099 746.52191,168.62785 758.09482,157.04572 z"
       id="path32" />
    <path
       style="fill:none;stroke:#ffffff;stroke-width:0.1;stroke-linecap:butt;stroke-linejoin:miter;stroke-miterlimit:10"
       d="M 466.54663,149.61144 C 473.94859,147.5782 482.88722,147.7809 488.82378,153.25438 C 495.02484,158.97449 496.82268,167.71468 497.76431,175.74873 C 499.09422,194.50207 496.0311,213.38202 490.12453,231.17468 C 485.90291,243.41907 480.89012,255.60463 473.16759,266.09903 C 467.21072,274.35242 458.37109,281.02638 448.13209,282.58492 C 441.37466,283.56775 433.73491,282.29326 428.79767,277.22809 C 422.31909,271.07822 421.0471,261.65398 420.27953,253.19772 C 419.31752,232.14887 423.71326,211.03105 431.79338,191.63101 C 435.81399,181.68076 440.54161,171.85934 447.30316,163.45338 C 452.37309,157.31239 458.75545,151.8371 466.54663,149.61144 z"
       id="path34" />
    <path
       style="fill:#ffffff;fill-rule:nonzero;stroke:none"
       d="M 466.54663,149.61144 C 473.94859,147.5782 482.88722,147.7809 488.82378,153.25438 C 495.02484,158.97449 496.82268,167.71468 497.76431,175.74873 C 499.09422,194.50207 496.0311,213.38202 490.12453,231.17468 C 485.90291,243.41907 480.89012,255.60463 473.16759,266.09903 C 467.21072,274.35242 458.37109,281.02638 448.13209,282.58492 C 441.37466,283.56775 433.73491,282.29326 428.79767,277.22809 C 422.31909,271.07822 421.0471,261.65398 420.27953,253.19772 C 419.31752,232.14887 423.71326,211.03105 431.79338,191.63101 C 435.81399,181.68076 440.54161,171.85934 447.30316,163.45338 C 452.37309,157.31239 458.75545,151.8371 466.54663,149.61144 z"
       id="path36" />
    <path
       style="fill:none;stroke:#ffffff;stroke-width:0.1;stroke-linecap:butt;stroke-linejoin:miter;stroke-miterlimit:10"
       d="M 795.36439,152.51895 C 801.88594,151.16277 809.34721,151.85901 814.49826,156.47629 C 820.71317,162.08145 822.70073,170.69655 823.64153,178.68378 C 825.95119,204.65582 818.95664,230.78291 806.88145,253.66403 C 801.36887,263.73318 793.7973,273.82117 782.49713,277.64035 C 775.61613,279.93753 767.2964,280.19356 761.00975,276.15106 C 753.68701,271.52621 751.98782,262.19145 751.27855,254.20375 C 750.59175,239.36052 752.73541,224.4805 756.41814,210.12106 C 760.66272,195.05782 765.87053,179.86185 775.15892,167.08852 C 780.12074,160.30226 787.00621,154.43211 795.36439,152.51895 z"
       id="path38" />
    <path
       style="fill:#ffffff;fill-rule:nonzero;stroke:none"
       d="M 795.36439,152.51895 C 801.88594,151.16277 809.34721,151.85901 814.49826,156.47629 C 820.71317,162.08145 822.70073,170.69655 823.64153,178.68378 C 825.95119,204.65582 818.95664,230.78291 806.88145,253.66403 C 801.36887,263.73318 793.7973,273.82117 782.49713,277.64035 C 775.61613,279.93753 767.2964,280.19356 761.00975,276.15106 C 753.68701,271.52621 751.98782,262.19145 751.27855,254.20375 C 750.59175,239.36052 752.73541,224.4805 756.41814,210.12106 C 760.66272,195.05782 765.87053,179.86185 775.15892,167.08852 C 780.12074,160.30226 787.00621,154.43211 795.36439,152.51895 z"
       id="path40" />
    <path
       sodipodi:type="arc"
       id="path2636"
       style="fill:#000000;stroke:none"
       sodipodi:cx="618.29175"
       sodipodi:cy="518.185"
       sodipodi:rx="1.5"
       sodipodi:ry="1.5"
       d="M 619.79175,518.185 A 1.5,1.5 0 1 1 616.79175,518.185 A 1.5,1.5 0 1 1 619.79175,518.185 z" />
    <path
       style="fill:none;fill-rule:evenodd;stroke:#000000;stroke-width:5.72544765px;stroke-linecap:butt;stroke-linejoin:miter;stroke-opacity:1"
       d="M -236.31632,331.0562 C 1114.855,331.0562 1114.855,331.0562 1114.855,331.0562"
       id="path2640" />
  </g>
  <text
     xml:space="preserve"
     style="font-size:11.11583424px;font-style:normal;font-variant:normal;font-weight:normal;font-stretch:normal;text-align:start;line-height:125%;writing-mode:lr-tb;text-anchor:start;fill:#000000;fill-opacity:1;stroke:none;stroke-width:1px;stroke-linecap:butt;stroke-linejoin:miter;stroke-opacity:1;font-family:Gill Sans MT;-inkscape-font-specification:Gill Sans MT"
     x="369.5918"
     y="228.14307"
     id="text2642"
     sodipodi:linespacing="125%"
     transform="scale(1.0105304,0.9895793)"><tspan
       sodipodi:role="line"
       id="tspan2644"
       x="369.5918"
       y="228.14307"
       style="font-size:11.11583424px;font-style:normal;font-variant:normal;font-weight:normal;font-stretch:normal;text-align:start;line-height:125%;writing-mode:lr-tb;text-anchor:start;font-family:Gill Sans MT;-inkscape-font-specification:Gill Sans MT">OPEN-SOURCE INTEGRATED LIBRARY SYSTEM</tspan></text>
</svg>
