<svg xmlns="http://www.w3.org/2000/svg" width="233.818" height="62.01" viewBox="0 0 233.81817 62.010219" version="1"><path d="M178.53 17.74c1.13-.238 2.42-.115 3.312.7 1.075.99 1.42 2.512 1.582 3.923.4 4.588-.81 9.204-2.9 13.246-.954 1.778-2.264 3.56-4.22 4.234-1.19.406-2.63.45-3.718-.263-1.267-.816-1.56-2.465-1.684-3.876-.12-2.622.252-5.25.89-7.787.734-2.66 1.635-5.345 3.242-7.602.86-1.2 2.05-2.236 3.497-2.574z" fill="none" stroke="#fff" stroke-width=".017" stroke-miterlimit="10"/><path d="M0 49.28h233.818" fill="none" stroke="#000" stroke-width="1.001"/><path d="M4.79 54.313q1.776 0 2.955 1.102 1.185 1.1 1.185 2.76 0 1.66-1.196 2.75-1.19 1.085-3.005 1.085-1.734 0-2.892-1.085-1.152-1.09-1.152-2.728 0-1.68 1.163-2.782 1.162-1.102 2.94-1.102zm.043 1.02q-1.316 0-2.167.807-.844.805-.844 2.057 0 1.214.85 2.02.85.805 2.128.805 1.283 0 2.14-.822.86-.822.86-2.046 0-1.193-.86-2.004-.857-.816-2.107-.816zM10.225 61.924V54.41h2.43q1.096 0 1.75.58.652.58.652 1.558 0 .655-.335 1.16-.335.505-.916.736-.58.225-1.667.225h-.813v3.254zm2.237-6.558h-1.135v2.347h1.2q.67 0 1.032-.306.36-.31.36-.886 0-1.154-1.458-1.154zM16.01 54.42h4.345v.957h-3.247v2.288h3.137v.96h-3.137v2.332h3.35v.957h-4.447zM27.716 54.42h1.042v7.504h-.944L22.69 56.15v5.774h-1.03V54.42h.89l5.166 5.823zM30.008 58.965h2.732v1.047h-2.732zM35.943 58.777l-.834-.494q-.785-.468-1.12-.92-.33-.455-.33-1.046 0-.886.626-1.44.63-.553 1.635-.553.96 0 1.76.527v1.22q-.827-.78-1.78-.78-.54 0-.884.248-.346.242-.346.623 0 .34.253.635.252.295.817.618l.84.483q1.403.816 1.403 2.084 0 .902-.62 1.466-.614.564-1.6.564-1.137 0-2.07-.682v-1.364q.89 1.1 2.058 1.1.516 0 .856-.278.346-.285.346-.71 0-.687-1.01-1.3zM42.963 54.313q1.777 0 2.957 1.102 1.184 1.1 1.184 2.76 0 1.66-1.195 2.75-1.192 1.085-3.007 1.085-1.733 0-2.89-1.085-1.152-1.09-1.152-2.728 0-1.68 1.163-2.782t2.94-1.102zm.044 1.02q-1.316 0-2.166.807-.844.805-.844 2.057 0 1.214.85 2.02.85.805 2.128.805 1.284 0 2.14-.822.86-.822.86-2.046 0-1.193-.86-2.004-.856-.816-2.107-.816zM53.79 54.42h1.103v4.26q0 .865-.132 1.305-.125.44-.317.736-.186.29-.46.522-.91.768-2.38.768-1.498 0-2.403-.762-.275-.237-.467-.527-.186-.294-.312-.72-.12-.423-.12-1.33v-4.25h1.103v4.26q0 1.058.246 1.472.246.413.75.666.505.247 1.19.247.977 0 1.592-.5.323-.268.466-.633.142-.366.142-1.252zM56.456 61.924V54.42h1.92q1.162 0 1.843.565.684.564.684 1.525 0 .655-.334 1.134-.335.478-.96.714.367.236.718.644.35.41.988 1.424.4.64.64.96l.407.538h-1.305l-.335-.494q-.016-.027-.066-.09l-.214-.297-.34-.547-.367-.586q-.34-.462-.625-.736-.28-.274-.51-.392-.224-.123-.762-.123h-.285v3.264zm1.426-6.59h-.33v2.37h.418q.833 0 1.14-.14.313-.14.483-.42.176-.285.176-.645 0-.355-.193-.64-.192-.29-.543-.408-.346-.118-1.152-.118zM69.806 60.184v1.182q-1.207.644-2.786.644-1.284 0-2.178-.505-.894-.505-1.415-1.39-.52-.887-.52-1.918 0-1.638 1.19-2.756 1.195-1.116 2.945-1.116 1.206 0 2.682.618v1.155q-1.344-.752-2.627-.752-1.317 0-2.19.816-.866.812-.866 2.037 0 1.235.857 2.03.856.795 2.19.795 1.392 0 2.72-.838zM71.166 54.42h4.344v.957h-3.247v2.288H75.4v.96h-3.137v2.332h3.35v.957h-4.447zM79.91 54.42h1.096v7.504H79.91zM88.794 54.42h1.043v7.504h-.944L83.77 56.15v5.774h-1.03V54.42h.888l5.166 5.823zM90.83 54.41h6.4v.956h-2.67v6.558h-1.104v-6.558H90.83zM98.26 54.42h4.345v.957h-3.247v2.288h3.137v.96h-3.137v2.332h3.35v.957h-4.447zM108.02 58.23h2.57v3.18q-1.414.6-2.807.6-1.903 0-3.044-1.085-1.137-1.09-1.137-2.685 0-1.68 1.18-2.8 1.18-1.116 2.956-1.116.646 0 1.228.14.58.134 1.47.5v1.095q-1.372-.78-2.72-.78-1.257 0-2.118.838-.86.838-.86 2.057 0 1.28.86 2.09.86.81 2.216.81.658 0 1.574-.295l.104-.032v-1.563h-1.475zM112.226 61.924V54.42h1.92q1.162 0 1.842.565.686.564.686 1.525 0 .655-.335 1.134-.335.478-.96.714.367.236.718.644.35.41.987 1.424.4.64.642.96l.406.538h-1.306l-.334-.494q-.017-.027-.066-.09l-.214-.297-.34-.547-.368-.586q-.34-.462-.625-.736-.28-.274-.51-.392-.225-.123-.762-.123h-.286v3.264zm1.426-6.59h-.33v2.37h.417q.833 0 1.14-.14.313-.14.483-.42.175-.285.175-.645 0-.355-.192-.64-.192-.29-.543-.408-.345-.118-1.15-.118z"/><path d="M121.418 54.378h.773l3.43 7.546h-1.125l-1.02-2.223h-3.258l-.965 2.224h-1.125zm1.607 4.367l-1.234-2.718-1.145 2.718zM124.714 54.41h6.4v.956h-2.67v6.558h-1.102v-6.558h-2.628zM132.157 54.42h4.344v.957h-3.246v2.288h3.138v.96h-3.138v2.332h3.352v.957h-4.45zM137.785 61.914V54.42h2.583q1.563 0 2.474.463.91.456 1.448 1.348.537.893.537 1.945 0 .752-.296 1.44-.295.687-.844 1.208-.56.537-1.3.81-.433.168-.795.227-.36.054-1.38.054zm2.468-6.537h-1.37v5.58h1.403q.823 0 1.278-.107.455-.113.757-.28.308-.17.56-.418.812-.806.812-2.036 0-1.208-.834-1.97-.307-.286-.707-.468-.394-.183-.75-.242-.357-.06-1.147-.06zM149.314 54.42h1.097v6.527h3.45v.977h-4.546zM154.832 54.42h1.096v7.504h-1.096zM160.223 61.924h-2.594V54.42h2.006q.95 0 1.48.253.533.247.813.688.28.436.28 1.01 0 1.107-1.17 1.585.84.156 1.333.677.5.52.5 1.246 0 .575-.302 1.026-.3.45-.888.736-.58.284-1.46.284zm-.554-6.547h-.944v2.256h.73q.877 0 1.244-.328.373-.327.373-.848 0-1.08-1.404-1.08zm.08 3.212h-1.024v2.378h1.08q.9 0 1.218-.134.323-.14.515-.43.197-.29.197-.623 0-.343-.21-.627-.2-.285-.58-.425-.378-.14-1.196-.14zM163.98 61.924V54.42h1.92q1.163 0 1.843.565.685.564.685 1.525 0 .655-.334 1.134-.335.478-.96.714.367.236.718.644.35.41.988 1.424.4.64.64.96l.407.538h-1.305l-.335-.494q-.016-.027-.065-.09l-.214-.297-.34-.547-.368-.586q-.34-.462-.625-.736-.28-.274-.51-.392-.225-.123-.763-.123h-.285v3.264zm1.426-6.59h-.33v2.37h.418q.834 0 1.14-.14.313-.14.483-.42.176-.285.176-.645 0-.355-.192-.64-.19-.29-.542-.408-.346-.118-1.152-.118z"/><path d="M173.173 54.378h.773l3.428 7.546h-1.124l-1.02-2.223h-3.258l-.966 2.224h-1.124zm1.607 4.367l-1.234-2.718-1.147 2.718zM178.263 61.924V54.42h1.92q1.162 0 1.842.565.686.564.686 1.525 0 .655-.334 1.134-.334.478-.96.714.368.236.72.644.35.41.986 1.424.4.64.642.96l.406.538h-1.306l-.334-.494q-.017-.027-.066-.09l-.214-.297-.34-.547-.367-.586q-.34-.462-.626-.736-.28-.274-.51-.392-.225-.123-.762-.123h-.285v3.264zm1.426-6.59h-.33v2.37h.416q.834 0 1.14-.14.314-.14.484-.42.175-.285.175-.645 0-.355-.192-.64-.19-.29-.543-.408-.345-.118-1.15-.118zM188.514 54.42h1.327l-2.83 3.535v3.97h-1.124v-3.97l-2.83-3.534h1.328l2.05 2.59zM195.704 58.777l-.833-.494q-.784-.468-1.118-.92-.33-.455-.33-1.046 0-.886.626-1.44.63-.553 1.634-.553.96 0 1.76.527v1.22q-.827-.78-1.782-.78-.537 0-.883.248-.345.242-.345.623 0 .34.252.635t.817.618l.84.483q1.405.816 1.405 2.084 0 .902-.62 1.466-.614.564-1.602.564-1.135 0-2.067-.682v-1.364q.888 1.1 2.056 1.1.516 0 .856-.278.346-.285.346-.71 0-.687-1.01-1.3zM203.575 54.42h1.327l-2.83 3.535v3.97h-1.124v-3.97l-2.83-3.534h1.327l2.05 2.59zM207.42 58.777l-.834-.494q-.784-.468-1.12-.92-.328-.455-.328-1.046 0-.886.625-1.44.63-.553 1.635-.553.96 0 1.76.527v1.22q-.828-.78-1.782-.78-.538 0-.883.248-.346.242-.346.623 0 .34.253.635.252.295.817.618l.84.483q1.403.816 1.403 2.084 0 .902-.62 1.466-.614.564-1.6.564-1.137 0-2.07-.682v-1.364q.89 1.1 2.058 1.1.515 0 .856-.278.345-.285.345-.71 0-.687-1.01-1.3zM210.025 54.41h6.4v.956h-2.67v6.558h-1.103v-6.558h-2.627zM217.457 54.42h4.344v.957h-3.246v2.288h3.137v.96h-3.136v2.332h3.35v.957h-4.447zM229.173 54.42h1.02v7.504h-1.103v-5.838l-2.358 2.9h-.203l-2.38-2.9v5.838h-1.098V54.42h1.03l2.55 3.084z"/><path d="M56.994 2.092C59.207.835 61.718.115 64.247.01c1.333.064 2.673.278 3.925.762 2.47.945 4.515 2.877 5.792 5.215 1.416 2.39 2.042 5.17 2.34 7.92.653 9.11-2.65 18.255-8.287 25.256-2.217 2.26-4.948 4.18-8.08 4.77-2.593.378-5.4-.188-7.483-1.858-1.29-.996-1.814-2.726-1.705-4.326 1.145 1.65 3.02 2.795 5.023 2.84 1.814.09 3.616-.757 4.837-2.107 2.05-2.26 2.255-6.07.33-8.473-.88-1.043-1.902-1.98-3.092-2.64-1.195-.718-2.575-1.032-3.936-1.218-2.517-.165-5.127.3-7.343 1.565-2.15 1.242-3.73 3.455-4.22 5.926-.506 1.918-.323 3.925-.123 5.874-.824-2.23-1.155-4.6-1.333-6.96V30.83c.29-8.638 3.814-17.065 9.485-23.45 1.948-2.06 4.122-3.948 6.614-5.29zM86.328 3.697c2.97.063 5.965-.014 8.86-.765-2.163 7.776-4.385 15.534-6.562 23.306.26-.185.507-.387.747-.6 2.687-2.445 5.283-4.995 8.01-7.396 1.26-1.067 2.558-2.254 4.215-2.59.76-.188 1.653-.142 2.246.434 1.374 1.244 1.235 3.705-.147 4.892-.725.684-1.82.786-2.74.53-.77-.193-1.163-.975-1.83-1.347-1.06-.036-1.972.67-2.77 1.304-1.67 1.422-3.283 2.918-4.963 4.33-.04.226.182.416.257.622 1.682 3.06 3.343 6.133 5.023 9.193.595 1.003 1.212 2.064 2.19 2.728.534.39 1.293.296 1.775-.137.878-.77 1.536-1.787 1.962-2.883.51-.003 1.02-.004 1.532.002-.674 1.756-1.452 3.51-2.664 4.955-.84 1.064-2.066 1.978-3.46 1.938-1.183.047-2.27-.634-3.043-1.5-1.253-1.454-2.118-3.194-3.043-4.87-1.324-2.397-2.63-4.802-3.95-7.2-1.184 4.25-2.284 8.525-3.486 12.77-1.386-.006-2.77 0-4.156-.003 2.74-9.92 5.435-19.853 8.165-29.776.42-1.63 1.032-3.248 1.002-4.956.02-.625-.38-1.26-1-1.385-.84-.192-1.71-.06-2.562-.092.133-.5.265-1 .393-1.502zM142.39 3.704c2.955.036 5.94.02 8.814-.774-1.725 6.423-3.577 12.81-5.3 19.234 1.478-2.036 3.077-4.083 5.264-5.365 1.632-.984 3.603-1.497 5.485-1.12 1.345.263 2.59 1.156 3.167 2.442.472 1.002.516 2.147.393 3.235-.286 2.925-1.483 5.628-2.425 8.373-.82 2.302-1.69 4.586-2.442 6.913-.258.917-.62 1.89-.364 2.848.214.69 1.064.754 1.626.517.584-.3 1.112-.73 1.493-1.276.823-1.083 1.528-2.283 1.862-3.622.552 0 1.103.002 1.656-.003-.5 2.29-1.66 4.48-3.49 5.94-1.344 1.09-3.223 1.477-4.86.93-1.41-.493-2.3-1.993-2.342-3.47-.1-1.56.4-3.06.832-4.532.832-2.553 1.823-5.047 2.735-7.57.877-2.303 1.794-4.68 1.797-7.187.01-.707-.476-1.38-1.17-1.512-1.655-.295-3.318.426-4.6 1.46-1.81 1.463-3.14 3.453-4.232 5.506-1.735 3.016-2.798 6.37-3.698 9.726-.658 2.338-1.303 4.68-1.974 7.013h-4.218c1.973-7.155 3.905-14.32 5.868-21.48 1.027-3.84 2.122-7.66 3.104-11.514.16-.805.528-1.64.235-2.46-.068-.435-.5-.646-.887-.688-.917-.144-1.85-.046-2.773-.07.16-.494.306-.993.446-1.494zM123.11 15.558c-.552-.017-1.105.012-1.647.08-1.47.16-2.898.633-4.192 1.357-2.702 1.54-4.672 4.127-6.08 6.892-1.633 3.254-2.2 7.034-1.676 10.644.39 2.642 1.764 5.228 4.05 6.626 1.86 1.152 4.147 1.232 6.238.876 2.506-.386 4.79-1.73 6.588-3.52 1.542-1.632 2.808-3.544 3.66-5.642 1.17-2.955 1.587-6.232 1.158-9.39-.33-2.458-1.494-4.856-3.447-6.38-1.333-1.03-2.99-1.49-4.65-1.542zm.032 1.46c.856.01 1.7.25 2.342.853 1.073 1.01 1.385 2.555 1.548 3.974.23 3.313-.3 6.65-1.323 9.792-.73 2.163-1.6 4.316-2.935 6.17-1.03 1.458-2.56 2.637-4.332 2.912-1.17.174-2.492-.052-3.346-.947-1.12-1.085-1.34-2.75-1.473-4.244-.167-3.718.592-7.448 1.99-10.876.696-1.757 1.516-3.492 2.686-4.977.877-1.085 1.98-2.053 3.33-2.446.48-.135.998-.213 1.512-.208zM179.248 15.553c-.2-.01-.402-.008-.602.004-2.47.057-4.83 1.213-6.565 2.984-2.002 2.047-3.412 4.63-4.403 7.323-1.004 2.896-1.302 6.04-.897 9.082.36 2.342 1.295 4.745 3.196 6.22 1.557 1.186 3.666 1.26 5.484.767 2.548-.71 4.58-2.66 6.023-4.85.09 1.432.333 2.96 1.266 4.092.89 1.036 2.4 1.27 3.645.855 1.172-.38 2.134-1.24 2.877-2.217 1.21-1.52 2.015-3.335 2.554-5.204-.5-.005-1 0-1.498.01-.414 1.643-1.282 3.125-2.237 4.497-.525.61-1.133 1.465-2.038 1.316-.614-.15-.835-.877-.895-1.442-.133-1.66.145-3.326.59-4.92 1.636-5.9 3.31-11.785 4.943-17.684-1.41-.005-2.822 0-4.233-.005-.508 1.792-1.06 3.573-1.523 5.377-.025-1.688-.72-3.344-1.912-4.516-.98-1.045-2.368-1.62-3.774-1.686zm.15 2.082c.882-.028 1.775.194 2.444.805 1.075.99 1.42 2.513 1.582 3.923.4 4.59-.81 9.204-2.9 13.246-.954 1.778-2.265 3.56-4.22 4.234-1.19.406-2.63.45-3.718-.263-1.267-.816-1.56-2.464-1.684-3.876-.12-2.622.252-5.25.89-7.787.734-2.66 1.635-5.345 3.242-7.602.86-1.198 2.05-2.236 3.498-2.574.282-.06.573-.095.867-.105z"/></svg>
