<svg xmlns="http://www.w3.org/2000/svg" width="40" height="40"><defs><clipPath id="a"><path d="M0 792h612V0H0z"/></clipPath><clipPath id="b"><path d="M390.27 360.96h-165.4v197.37h165.4z"/></clipPath></defs><g><g><g clip-path="url(#a)" transform="matrix(.171 0 0 -.171 -32.465 100.8)"><path fill="none" stroke="#000" stroke-width="7" d="M241.4 536.28L304.27 587l68.37-55.13" stroke-linecap="round" stroke-linejoin="round"/><g><g clip-path="url(#b)"><path fill="#666" d="M391.37 360.96h-165.4v197.37h165.4z"/><path fill="#f2f2f2" d="M237 364.26l74.98-6.6 66.16 1.1-6.62 40.8-13.7 17.4-14.97 18.98 7.42 29.58L354.7 499l-15.1 30.52-44.46-2.46-32.24-20.55 11.6-49.6-3.32-25.37L261 408.1l-16.28-18.47-7.72-22.06z"/><path fill="#d4d4d4" d="M362.82 401.24c-2.37-6.7-3.16-10.26-2.37-15.4.8-5.12-1.58-11.43-3.55-14.98-1.97-3.55-5.52-1.97-7.9-7.5-2.35-5.5-6.3-26.82-4.72-28.8 1.58-1.96 36.3-3.14 36.3-3.14s12.22 10.25 12.22 14.2c0 3.94 7.5 35.1 6.3 37.08-1.18 1.97-1.57 8.28-4.73 8.67-3.15.4-24.6 14.65-26.7 13.44-2.1-1.2-4.85-3.56-4.85-3.56"/><path fill="#d4d4d4" d="M261.34 406.13c-.7-7.26-3.05-19.5-3.84-23.44-.8-3.95-.8-24.85-3.95-29.2-3.15-4.33-6.3-22.08-6.3-22.08l-5.6-1.76s-18.08 27.4-18.47 32.13c-.4 4.72-4.34 19.7-3.16 21.3 1.2 1.57 41.32 23.03 41.32 23.03"/><path fill="#dedede" d="M281.56 430.82c2.42-4.67 9.07-8.28 12.62-10.65 3.55-2.37 18.68-9.43 23.93-9.45 5.27-.02 12.85 4.86 14.78 6.56 1.93 1.7 3.9-14.07 1.14-18.8-2.76-4.74-4.73-13.8-7.9-16.18-3.14-2.37-7.88-5.9-9.06-6.3-1.18-.4-3.94-1.6-6.7-4.35-2.77-2.76-4.74 0-7.1 1.58-2.37 1.58-1.98 2.36-5.92 5.92-3.95 3.54-9.47 13.4-10.65 18.14-1.2 4.72-5.14 33.52-5.14 33.52"/><path fill="#ccc" d="M352.25 454.37c1.3.98 2.3 2.95 2.3 2.95s2.3.33 3.27 1.3c1 1 .66 2.97.66 2.97s3.94 5.24 4.92 9.17c1 3.94-.65 6.24-.65 6.24s1.97 2.96 1.97 5.6c0 2.6-1 5.24-1.97 7.54-1 2.3-.66 7.22-2.3 10.5-1.64 3.28-5.25 4.6-5.25 4.6s-1.3 6.9-3.28 12.46c-1.97 5.58-3.6 8.54-5.9 9.85-2.3 1.3-8.2 6.24-11.5 9.85-3.28 3.6-11.8 2.95-18.7 2.3 0 0-4.6.98-8.2.32-3.62-.66-7.88-1.64-13.46-2.62-5.58-1-13.78-6.24-17.4-8.87-3.6-2.62-4.92-5.57-7.87-6.9-2.96-1.3-1-4.9-3.62-4.9-2.63 0-4.27-5.6-5.9-7.56-1.65-1.97.98-6.56.98-6.56s-2.96-3.93-5.58-10.16c-2.63-6.24-1.97-12.15-1.97-12.15s-6.23-3.95-3.6-9.85c.6-1.34 3.28-2.63 5.25-2.96 1.97-.33-2.3-6.9-2.95-9.85-.66-2.95 0-5.58 2.3-7.22 2.3-1.64 2.62-4.92 5.9-5.25 3.28-.33 3.94 2.95 3.6 1.64-.32-1.3 3.95-15.1 2.64-16.74-1.32-1.64-2.96-4.6-3.3-8.2-.3-3.43.86-5.68 1.54-9 .67-.6 1.35-1.35 1.76-2.16.98-1.97-2.3-3.6-4.6-4.6-2.3-.98-1.3-2.95 1.97-2.3 3.3.67 3.62 0 6.57 1 2.96.98 2.63.98 4.6 3.28.27.3.53.55.77.73-.33.16-.54.44-.44.9.32 1.65 1.97 2.96 2.62 4.93.66 1.97-.65 6.56-1.3 8.86-.67 2.3-2.64 1.3-2.64 1.3s2.3 2.97 1.64 4.6c-.65 1.65-1.96-1.63-4.26-2.3-2.3-.65.33-3.27.33-3.27s-1.98.98-1.98 2.95c0 1.97 3.28 2.3 4.6 3.94 1.3 1.64 2.62 2.63 4.6 4.92 1.96 2.3 0 6.9-1.33 11.16-1.32 4.27 0 8.2-.33 12.47l.22-.06c-.3 1.7-.47 3.2-.44 4 .12 2.82.74 13.53.12 17.6-.6 4.05 1 18.32 1.85 22.63.86 4.3 6.28 9.35 6.28 9.35s3.33-2.7 5.67-2.95c2.33-.25 1.23 1.6 2.7 2.46 1.48.86 3.82-.74 7.76-.37s5.78 1.97 8.6 2.1c2.84.12 1.5-.74 3.2-2.1 1.73-1.35 4.07-1.6 6.66-1.84 2.57-.25 2.45 0 4.05.98 1.6 1 3.7 2.34 6.03 2.95 2.34.62 3.57-.36 6.03-1.23 2.47-.86 5.92 2.22 7.15 2.6 1.23.36 1.23.97 3.36 0 0 0-.98-4.28.66-7.9 1.65-3.6 3.6-4.25 3.6-8.2 0-3.93-.97-12.8-.97-18.04 0-5.25 1.96-10.5.97-16.08-.62-3.53-2.3-9.93-3.84-15.9l1.22 2.44s3.28 1.64 4.6 2.63m-5.9-5.25s0 0 .03 0c0 .05.03.1.05.17zm19.38-41.38c-1.3.92-3.3 1.66-5.94 2.32-5.26 1.32 0-5.25-2.3-3.6-1 .7-1.07 1.9-.83 3.4.3 1.94 1.15 4.35 1.15 6.77 0 4.26-3.28 3.6-4.6 6.9-1.3 3.27 0 11.8 0 13.77 0 1.97-1.96 1-1.96 1s-.66 5.57-.98 7.86c-.3 2.16-3.5 2.87-3.9 2.95-.9-3.4-1.75-6.68-2.34-9.17-.78-3.27-2.38-7.65-4.3-11.8.87-1.75 1.72-3.65 2-4.94.66-2.96 1-4.27 3.28-6.9 2.3-2.63 1.65-1.3 3.3-3.28 1.63-1.97.64-3.6 1.3-5.9.66-2.3.65-4.27 3.94-6.57 3.28-2.3 5.9-.66 8.53-.33 2.6.33 3.27 2.3 3.93 4.6.33 1.15.08 1.97-.3 2.92"/><path fill="none" stroke="#333" stroke-width="4" d="M347.65 480.3s-3.94 3.6-6.9 2.95c-2.94-.66-17.06-6.24-17.06-6.24s3.28-15.4 3.93-18.7c.66-3.28 1-9.84-.65-10.17-1.64-.33-4.27-1.3-5.58-.33-1.32 1-5.25 3.28-6.9 3.28-1.64 0-2.3 2.3-2.3 3.3"/><path fill="#a6a6a6" d="M314.83 477s7.22-19.35 6.24-21.65c-1-2.3-5.25-1.64-6.9-.65-1.63.98.66 22.3.66 22.3"/><path fill="#737373" d="M344.04 513.77c-2.95-1.64-6.24-1.97-7.55-3.94-1.32-1.97-.34-5.25 2.94-7.22 3.3-1.96 6.24-4.26 6.57-6.88.34-2.63 1.98-8.2.66-9.85l1.32-3.28s-1.97-1-3.6-1.65c-1.65-.66-1.65-2.3-3.3-2.95-1.63-.66-1.96-1.32 0-2.63 1.98-1.3-.65-2.63-.65-2.63l-.66-2.62s3.6 1.64 3.94 2.95c.34 1.32-.97 2.96 1 3.28 1.96.33 2.62 1.64 3.28-.65.65-2.3.33-9.85-1-12.14-1.3-2.3-3.6-5.26-3.93-7.88-.32-2.63 1.32-6.56-.65-7.55-1.97-.98-3.94-.65-3.94-.65l-1.64 5.25s-.66-8.2 0-10.83c.66-2.63 1.97-3.94.66-5.9-1.32-1.98-3.3-.67-4.27-.34-.97.33-1.96 2.3-1.3 3.6.65 1.32-1 1.65-3.6 1.32-2.64-.32-2.96-.98-5.26-1.3-2.3-.34-2.96 1.96-4.93 1.63-1.95-.32-6.88-2.6-6.88-2.6s1.97-1.33 3.94-1.33 4.27 1 6.9 1c2.62 0 6.23 1.3 6.23-.67 0-1.97.64-2.95-1-3.6-1.64-.66-4.26-1-6.9-1-2.6 0-4.25.34-4.25.34s1.3-2.96 2.95-3.3c1.64-.3 7.55 0 9.2 1 1.63.98 3.93 1.97 3.93 1.3 0-.64-.66.34-1.65-2.6-.98-2.97-.65-7.23-1.3-8.87-.67-1.64-2.63-3.3-4.6-3.6-1.97-.34-10.5-.34-12.47.3-1.96.67-4.6 2.3-6.88 3.62-2.3 1.3-7.88 2.3-10.5 5.25-2.63 2.95-3.94 8.2-4.27 13.12-.33 4.92 0 9.85-1.3 11.82-1.33 1.95-5.6 7.86-5.92 11.8-.33 3.94-.66 13.78-.66 13.78s4.92-3.6 7.55-4.26c2.63-.66 7.55 0 7.55 0s-4.27 0-4.6 2.62c-.32 2.63 2.63 6.57 2.63 6.57s-6.9 1.32-9.52 5.26c-2.62 3.93-5.9 6.9-3.94 9.5 1.97 2.64 8.54 4.6 9.2 6.9.65 2.3 1.3 7.22 1.3 7.22s-1.3.33-3.28-.32c-1.97-.66-4.26 3.94-6.56 2.95-2.3-.98-4.27-8.2-5.25-13.12-.98-4.92-.98-12.8-.98-17.06 0-4.27-.33-9.2-.33-14.44 0-5.25.65-12.15.65-16.4 0-4.28 2.3-14.78.98-17.4-1.3-2.63-3.28-4.27-2.3-6.9 1-2.62 3.28-4.26 3.28-8.2 0-3.94-.98-5.25-1.97-7.55-1-2.3 0-.98 1.63-2.3 1.65-1.3 3.3-12.47 4.27-15.42.98-2.94 13.13-21 13.13-21s-6.9 23.3-7.55 27.9c-.66 4.6-4.6 24.94-4.6 24.94s5.9-8.2 8.87-9.84c2.95-1.64 7.2-1.64 9.84-2.3 2.62-.65 11.8-2.3 15.4-3.28 3.62-.98 4.28-1.64.67-2.63-3.6-1-5.58.98-6.23-1-.66-1.96-2.3-3.93-4.6-3.93s-5.9 5.25-8.2 5.58c-2.3.33-3.94-1.3-3.28-2.95.65-1.64 2.62-6.24 4.92-6.24s5.9 1 7.87 0c1.97-.98 5.9 3.28 7.55 4.27 1.64.98 3.94 2.62 3.28-.33-.65-2.95-2.62-7.88-3.28-10.5-.65-2.63 2.95-3.28 5.25.98 2.3 4.27 2.63 10.5 4.6 12.8 1.96 2.3 5.58 6.24 5.58 6.24s1.64-2.63 0-7.55c-1.65-4.92-5.26-11.16-6.24-14.44-1-3.28-2.96-15.1-2.96-15.1s5.9 4.6 9.5 10.5c3.62 5.9 5.6 10.5 5.26 15.43-.32 4.92-1.64 9.2.66 10.83 2.3 1.63 6.56 2.6 6.56 2.6s-3.28 2.3-3.93 5.26c-.67 2.96-.34 6.57 0 8.87.3 2.3 8.2 30.52 9.17 33.14 1 2.63-.65 13.78-.65 17.4 0 3.6 1.3 9.84 2.62 14.1 1.32 4.27 2.3 5.58.66 7.88-1.64 2.3-4.6 6.57-5.25 8.53-.66 1.97-3.6 3.3-3.6 3.3"/><path fill="#545454" d="M253.5 478.43s2.4-3.43 3.7-3.17c1.33.27 1.33 5.55 1.06 6.6-.26 1.06 3.17 3.44 3.17 3.44s-.26-2.64 1.06-2.64c1.3 0 5.27 1.58 4.48 2.9-.8 1.32-2.12-.26-2.38 2.1-.27 2.4 2.38 9 2.38 9s.26-1.06 0-4.76c-.27-3.7 0-6.34 1.84-5.8 1.85.52 5.02.25 5.02.25s-1.58-2.64-2.9-3.16c-1.32-.54-1.6-1.33-3.17-1.33-1.6 0-3.7-.8-5.28-2.38-1.6-1.6-2.92-4.24-1.07-4.5 1.85-.26 5.8-.53 6.87 0 1.05.53 2.37 1.06 2.37 1.06s.53-1.06-2.37-2.64c-2.9-1.6-5.8.26-7.66-1.06-1.85-1.32-2.64-5.55-2.64-5.55s2.37 1.34 5.8 1.6c3.44.26 5.82 0 6.08 1.06.27 1.05.8 3.43 1.85 4.75 1.06 1.33 3.96 2.9 4.5 1.06.52-1.84 1.04-5-1.33-5.8-2.38-.8-5.28-2.65-8.45-2.65-3.17 0-6.34-.78-6.87-2.9-.52-2.1-3.43-5-1.58-5.27 1.85-.27 6.07-.53 7.66.26 1.58.78 1.32 4.22 3.16 5.54 1.85 1.32 2.12 3.7 3.44 1.85 1.32-1.86 3.43-6.35 3.17-7.14-.27-.8-.53-.53-1.32 1.05-.8 1.6-1.58 5.82-2.9 3.97-1.32-1.84-2.38-3.43-.8-5.8 1.6-2.38 5.55-6.6 5.55-6.6s1.32-2.12-.52-1.6c-1.85.54-3.7 5.3-5.8 4.5-2.13-.8-2.65 2.37-4.24 1.58-1.6-.8 0-.8-1.06-2.64s-1.32-.78-3.97 0c-2.64.8-5.8 1.33-5.8 1.33s1.05-2.64 2.9-3.96c1.85-1.32 5.28-1.85 6.34-1.58 1.06.25 1.86-7.67 1.86-7.67l-3.44 6.6s-.26-2.64-2.37-1.58c-2.12 1.05-8.45 6.6-7.93 9.24.53 2.63 4.23 7.64 3.7 10.3-.53 2.63-4.5 2.36-4.5 4.2 0 1.86 2.4 7.93 2.4 7.93"/><path fill="#8c8c8c" d="M284.8 513.77s-.98 3.44-.16 4.26c.82.82 1 2.14 1 2.14s-1.98.32-2.8-1.32c-.82-1.64-.33-2.8-1.15-4.43-.83-1.64-3.3-1.64-4.44-3.28-1.15-1.64-2.14-4.26-2.96-3.12-.82 1.15-.16 5.42-.16 5.42s-8.7-2.3-9.2-3.45c-.48-1.16 2.14-2.63 1.82-4.27-.33-1.65-3.78-2.96-4.6-2.8-.82.17-6.07-16.73-1.3-11.15 4.75 5.58 4.42 7.22 5.57 5.74 1.15-1.47 2.62-2.13 2.8-3.6.15-1.5 1.14-3.62 2.45-3.62 1.3 0 1.97 4.27 2.62 3.45.66-.82 1.15-1.15 1.15-2.96 0-1.8.82-6.9.82-6.9s-.33 13.8 1.8 18.22c2.14 4.43-1.14 3.1-2.3 1.97-1.14-1.16-2.45-6.58-3.76-6.4-1.3.15-2.46-1.33-2.95.48-.5 1.8 1 5.4 2.8 6.23 1.8.83 3.77 1.98 5.08 1.82 1.3-.17 2.3 0 2.95.98.66 1 4.93 6.57 4.93 6.57"/><path fill="#999" d="M260.8 503.68s.5 2.2 2.1 2.83c1.6.62 3.2.25 3.2.25s-2.83 5.42-1.85 6.77c1 1.35 1.85 2.1 3.2 3.08 1.36.98 5.3 6.27 7.88 7.87 2.58 1.6 3.7 1.97 6.15 3.57 2.46 1.6 10.83 5.54 14.03 6.4 3.2.86 4.77-.4 5.7-.82.96-.4 1.2-2.13 2.68-1.9 1.48.26 5.9 1.5 7.38.5 1.48-.98 1.1-1.1 2.22-2.33 1.1-1.24 3.32-2.6 3.32-4.07 0-1.48-2.7-5.05-2.83-6.4-.12-1.36 1.23-2.34 1.6-3.7.37-1.35-.86-4.67.86-4.67s3.45.37 2.7 2.7c-.73 2.34-.48 6.77.62 6.9 1.1.12 1.97-1.23 2.96-1.23 1 0 1.98 3.93.87 4.67-1.1.74-2.95 1.1-3.57 1.97-.6.86.62 1.36 1.85 1.97 1.23.62-2.22.62-1.48 1.6.74 1 4.18.13 5.54-.5 1.36-.6 3.7-1.6 4.07-2.57.37-1 2.95-1.36 3.45-3.57.5-2.22.5-2.46-.5-3.45-.98-.98-2.34-.98-2.46-2.1-.12-1.1-.5-2.45 1.97-2.7 2.46-.25 2.7-.74 4.06-2.2 1.35-1.5 1.1-1.74 2.94-1 1.85.74 3.82 1.72 3.82 1.72s-1.1 1-1.48 2.6c-.37 1.6-.12.73-1.97 2.2-1.83 1.48-.36 2.7-1.7 4.8-1.36 2.1-1.98 1.36-3.08 2.7-1.1 1.36-2.22 1.98-1.48 2.72.74.73 2.1 0 2.58-.75.5-.74 2.1-2.34 3.32-3.45 1.24-1.1.62-1.35 2.22-2.58s2.58-2.46 2.83-3.32c.24-.87-.13-3.45-.13-3.45l2.83-2.58s.86 3.44.98 4.43c.13.98 1.6 2.46.37 4.67-1.23 2.22-1.84 5.17-3.44 6.28-1.6 1.1-3.7 2.34-4.3 2.22-.62-.13-.86-.25-1.97-.87-1.1-.6-1.48-1.1-3.08.13s-.6.86-2.1 2.46c-1.46 1.6-1.96 2.7.13 1.7 2.1-.97 2.1-1.7 3.57-2.7 1.48-.98 2.6-2.1 2.83 0 .25 2.1 1.23 3.08-1.72 4.3-2.95 1.24-4.68 1.86-6.4 2.47-1.72.62-2.7 1.85-4.06 1.97-1.35.12-7.02 1.6-8.12.37-1.1-1.22-1.1-2.45-1.23-3.3-.13-.88-1-2.23 1.72-1.37 2.7.86 3.2 1.6 3.7.13.48-1.48.85-2.83-1.48-3.08-2.35-.25-2.85-1.23-3.83-.25-.98 1-.86 1.97-1.97 3.2-1.1 1.23-.37 4.68-2.7 4.68-2.34 0-10.96.5-13.54-.48-2.6-1-13.05-3.94-15.75-5.54-2.7-1.6-12.55-8.37-13.66-9.72-1.1-1.36-2.7-5.17-4.06-6.16-1.35-.98-6.52-5.66-6.9-6.76-.36-1.1-2.2-3.82.63-7.26"/><path fill="#545454" d="M282.18 530.83c-2.3-1.64-4.1-6.56-4.1-6.56s3.6 1.64 5.1.82c1.46-.83 1.63-2.64 3.1-3.8 1.48-1.13 1.48-.15 2.8-1.46 1.3-1.32 1.8-.5 1.8-3.12s.5-4.76.5-4.76 1.3 3.28 2.62 4.27c1.3.98 2.13 2.3 4.26 2.3s5.58 0 6.07 1.47c.5 1.48 4.1 3.78 4.76 4.1.65.33 3.6 1 3.6 1s1.64-3.3 1.97-4.44c.33-1.15 2.8-3.78 3.12-3.28.3.5 1.46 5.4-.34 6.56-1.8 1.15-2.8 3.12-4.43 2.95-1.64-.17-5.1.65-7.22-1.98-2.13-2.62-7.54-4.1-9.18-3.77-1.64.33-2.8.66-.82 1.8 1.97 1.15 4.43 2.96 5.4 4.1 1 1.16 2.8 4.1 3.8 4.44.97.3-2.3 1.14-3.3.15-.98-.98-5.4-2.3-6.56-4.6-1.14-2.3-1.3-3.93-2.95-3.77-1.65.17-2.64 1.32-2.47 3.45.16 2.13 1.15 4.43 3.77 5.4 2.63 1 7.4.5 7.7 1.5.34.97 2.48 1.14 4.12 2.12 1.64 1 2.95 2.3 4.43 1.32 1.47-1 2.46-2.8.5-2.8-1.98 0-3.46-.8-3.46-.8s2.78-.18 3.77-.5c.98-.33 1.47-1.65 2.62-.66 1.14 1 4.6.34 5.57 2.14.98 1.8.66 4.76 2.63 4.76 1.97 0 6.07-.16 8.04-1.48 1.96-1.3 3.6-3.94 5.25-4.6 1.63-.65 4.9-2.45 4.9-3.6s-1.8-2.95-1.8-2.95 3.3 1.47 4.6.98c1.3-.5 5.25-3.28 5.25-5.58 0-2.3 3.6-8.7 3.28-10-.33-1.32-1.48-1-2.46.16-1 1.14-1.64 2.46-1.64 2.46s5.9-17.08 7.87-15.6c1.97 1.48 3.62 3.77 3.62 3.77l-3.94 2.63s-1.64 8.7-2.63 11.8c-.98 3.13-4.1 9.04-7.55 11.83-3.44 2.8-8.86 10.5-11.48 10.66-2.63.16-13.95.32-16.9.32-2.96 0-7.22.16-9.2 0-1.96-.16-9.18-2.13-9.18-2.13s6.56.32 4.92-.67c-1.64-.98-3.77-2.95-5.58-2.63-1.8.33-5.25 2.47-6.56 1.65-1.3-.82-8.2-4.93-8.2-4.93"/><path fill="#545454" d="M264.86 510.38c1.6-.53 5.55-2.9 3.17-5.8-2.37-2.9-5.28-1.86-7.4-5.55-2.1-3.7-.52-5.55-1.84-8.98-1.33-3.43-4.24-4.5-4.24-4.5s-1.32 2.92.27 5.56c1.58 2.65 2.64 8.98 4.75 9.78 2.1.8 7.13 0 8.72.8 1.58.78 3.43 3.42 3.16 6.33-.26 2.9 1.06 5.02 2.38 7.14 1.32 2.1 5.28 5.8 5.28 5.8s-5.8-5.54-7.13-3.7c-1.33 1.86 1.58 6.6 1.58 6.6s-3.17-.78-5.02-3.16c-1.85-2.38.53-4.75-1.58-6.86-2.12-2.12-3.17-1.32-3.17-2.64s1.06-.8 1.06-.8"/><path fill="none" stroke="#333" stroke-width="5" d="M279.06 449.44s3.94-20 7.88-24.94c3.94-4.92 17.06-9.2 20.02-10.83 2.95-1.64 12.14-1.97 16.08-1.64 3.93.33 5.57 1 9.84 5.25 4.27 4.27 9.52 16.08 11.16 22.98 1.64 6.9 5.25 19.68 6.23 25.26 1 5.58-.98 10.83-.98 16.08 0 5.26.97 14.12.97 18.05 0 3.94-1.96 4.6-3.6 8.2-1.65 3.62-.66 7.88-.66 7.88-2.12 1-2.12.37-3.35 0-1.23-.36-4.68-3.44-7.14-2.58-2.45.86-3.68 1.85-6.02 1.23-2.34-.6-4.43-1.97-6.03-2.95-1.6-1-1.48-1.23-4.06-1-2.6.26-4.94.5-6.66 1.86-1.72 1.34-.37 2.2-3.2 2.08-2.83-.12-4.67-1.72-8.6-2.1-3.95-.36-6.3 1.24-7.77.38-1.47-.86-.37-2.7-2.7-2.46-2.34.24-5.66 2.95-5.66 2.95s-5.4-5.04-6.27-9.35c-.86-4.3-2.46-18.58-1.85-22.65.62-4.06 0-14.76-.12-17.6-.12-2.82 2.5-14.1 2.5-14.1z"/><path fill="none" stroke="#333" stroke-width="4" d="M313.2 478.65s-14.78 1.97-19.37 1c-4.6-1-6.56-.34-6.56-.34"/><path fill="none" stroke="#000" stroke-width="6" d="M315.82 540.02c6.9.66 15.42 1.3 18.7-2.3 3.3-3.6 9.2-8.53 11.5-9.84 2.3-1.32 3.93-4.27 5.9-9.85 1.97-5.58 3.28-12.47 3.28-12.47s3.6-1.3 5.25-4.6c1.64-3.27 1.3-8.2 2.3-10.5.98-2.3 1.96-4.92 1.96-7.54 0-2.63-1.96-5.58-1.96-5.58s1.65-2.3.66-6.24c-.98-3.94-4.92-9.2-4.92-9.2s.33-1.96-.66-2.94c-.98-.98-3.28-1.3-3.28-1.3s-.98-1.98-2.3-2.97c-1.3-1-4.6-2.63-4.6-2.63l-1.3-2.63s3.6-.65 3.93-2.95c.33-2.3 1-7.9 1-7.9s1.96 1 1.96-.97-1.3-10.5 0-13.78c1.3-3.3 4.6-2.63 4.6-6.9 0-2.4-.85-4.82-1.16-6.76-.24-1.5-.17-2.7.82-3.42 2.3-1.64-2.96 4.92 2.3 3.6 5.24-1.3 7.87-2.94 7.87-5.57 0-2.6 4.26-.97 15.1-7.86 10.82-6.9 16.73-6.9 16.73-12.8s2.3 2.95-3.6-25.93c-5.92-28.87-13.8-27.22-13.8-27.22l-140.45-1.32s-17.72 26.9-19.7 39.7c-1.96 12.8-3.27 13.14-1.63 16.42 1.64 3.28 13.45 8.53 21.66 12.47 8.2 3.94 19.03 9.84 19.03 9.84s3.95.98 3.3 4.6c-.66 3.6-1.98 5.9-1.65 9.5.33 3.62 1.97 6.57 3.3 8.2 1.3 1.65-2.97 15.43-2.64 16.75.34 1.3-.32-1.97-3.6-1.64-3.28.33-3.6 3.62-5.9 5.26-2.3 1.64-2.96 4.26-2.3 7.22.65 2.95 4.92 9.5 2.95 9.84-1.97.33-4.66 1.6-5.25 2.95-2.63 5.9 3.6 9.85 3.6 9.85s-.65 5.9 1.98 12.14c2.62 6.24 5.58 10.18 5.58 10.18s-2.63 4.6-1 6.56c1.65 1.97 3.3 7.55 5.92 7.55s.66 3.6 3.6 4.92c2.96 1.3 4.27 4.27 7.88 6.9 3.6 2.62 11.82 7.87 17.4 8.85 5.58 1 9.84 1.97 13.45 2.63 3.62.65 8.22-.33 8.22-.33z"/></g></g><path fill="none" stroke="#000" stroke-width="10" d="M390.27 360.96h-165.4v197.37h165.4z" stroke-linecap="round" stroke-linejoin="round"/></g></g></g></svg>