<svg xmlns="http://www.w3.org/2000/svg" width="40" height="40"><path fill="#f2f2f2" stroke="#000" stroke-width="1.0146641299999999" d="M20.2.61c1.24-.12 2.78-.24 3.37.42.6.65 1.66 1.54 2.07 1.77.42.24.71.77 1.07 1.78.35 1 .59 2.25.59 2.25s.65.24.95.83c.3.59.23 1.48.41 1.9.18.4.36.88.36 1.35 0 .48-.36 1.01-.36 1.01s.3.42.12 1.13c-.18.7-.89 1.65-.89 1.65s.06.36-.12.54c-.17.17-.59.23-.59.23s-.18.36-.41.54c-.24.17-.66.47-.66.47l-.07.47s.31.12.37.54c.06.41.18 1.42.18 1.42s.35-.18.35.18c0 .35-.23 1.9 0 2.48.24.6.83.48.83 1.25 0 .43-.15.87-.2 1.22-.05.27-.04.48.14.61.42.3-.53-.89.42-.65s1.42.53 1.42 1c0 .48.77.19 2.72 1.43 1.96 1.24 3.02 1.24 3.02 2.3 0 1.07.42-.52-.65 4.69-1.06 5.2-2.48 4.91-2.48 4.91l-25.35.24s-3.2-4.86-3.55-7.17c-.36-2.3-.6-2.37-.3-2.96.3-.59 2.43-1.54 3.91-2.25 1.48-.7 3.44-1.77 3.44-1.77s.7-.18.59-.83c-.12-.66-.36-1.07-.3-1.72.06-.65.36-1.18.6-1.48.23-.3-.54-2.78-.48-3.02.06-.24-.06.35-.65.3-.6-.06-.65-.66-1.07-.95-.41-.3-.53-.77-.41-1.3.12-.54.89-1.72.53-1.78-.35-.06-.84-.3-.95-.53-.47-1.07.65-1.78.65-1.78s-.11-1.07.36-2.2c.47-1.12 1-1.83 1-1.83s-.47-.83-.17-1.18c.3-.36.6-1.36 1.06-1.36.48 0 .12-.66.66-.9.53-.23.77-.76 1.42-1.24.65-.47 2.13-1.42 3.14-1.6 1-.17 1.77-.35 2.42-.47.65-.12 1.48.06 1.48.06z"/><path fill="gray" d="M39.05 36.45c0 1.59-8.53 2.87-19.05 2.87C9.48 39.32.95 38.04.95 36.45S9.48 33.57 20 33.57c10.52 0 19.05 1.29 19.05 2.88"/><path fill="none" stroke="#bfbfbf" stroke-width="1.3559966099999998" d="M39.05 36.45c0 1.59-8.53 2.87-19.05 2.87C9.48 39.32.95 38.04.95 36.45S9.48 33.57 20 33.57c10.52 0 19.05 1.29 19.05 2.88z"/><path fill="#fff" d="M4.88 35.38l1.93 3.19 25.5-.23 1.1-1.14 1.98-6.32-32.34-1.23z"/><path fill="#d9d9d9" d="M16.05 5.94s.34 1.09.26 1.6c-.07.52-1.03.52-1.32 1.03-.3.52-.3 1.84-.3 1.84l2.14 1.03s-.55.26-.22.81c.33.56.37.89.37.89h.95s-.44.22-.95.22c-.52 0-.96-.15-1.18-.22-.22-.08-.66-.52-.81-.22-.15.3.22 1.84.88 2.28.66.44 1.99.88 2.14 1.4.14.51.44 1.17.88 1.32.44.15.3.66.8.81.52.15 2.8.08 3.1-.15.3-.22-.51-.29-.66-.44-.15-.14-.15-.8-.15-.8l.52-.6s.14.67.51.81c.37.15.44-.73.52-1.17.07-.45.07-1.33.07-1.33s.59 1.62.88 1.25c.3-.37 1.03-1.54.81-1.91-.22-.37-.37-.74-.73-.74-.37 0-.67-.14-.67-.14s.38-.2.75-.76c.36-.57.53-.81.11-.95-.41-.13-1.67-.13-1.67-.13s1.02-.82 1.61-.81c.6 0 .6-.81.3-1.55-.29-.74-1.61-1.47-1.98-1.99-.37-.51.74-1.62.74-1.62l1.4-.26.88 2.25.37 2.43.14 3.53-1.17 4.42-1.7 2.06s-2.53.39-2.88.38c-.36-.01-.58-.09-1.02-.3-.44-.23-.66-.6-.66-.15 0 .44.52.66.59 1.03.07.37.15.8.44 1.1.3.3 1.25.3 1.77.07.51-.22.51-1.69.51-1.69l.74-.07-.37 2.28-2.36.59-3.38-.88-1.7-1.62-.73-3.24-.81-5.08V8.57z"/><path fill="#b3b3b3" d="M16.4 21.16c.72.07 1.1-.22.87-.74-.22-.51-.88-2.57-.88-2.57s.51.3 1.03.3c.51 0 .66.21.66.21l.22 2.14s-.44.96-.07 1.25c.36.3 1.03.88 1.03.88l-1.48-.51z"/><path fill="#d4d4d4" d="M28.67 25.65c-.42 1.21-.57 1.85-.42 2.78.14.92-.29 2.06-.64 2.7-.36.64-1 .36-1.43 1.36-.42 1-1.14 4.84-.85 5.2.28.35 6.55.56 6.55.56s2.2-1.85 2.2-2.56 1.36-6.34 1.14-6.7c-.21-.35-.28-1.49-.85-1.56-.57-.07-4.44-2.64-4.82-2.42a7.5 7.5 0 00-.88.64M10.36 24.77A52.84 52.84 0 019.67 29c-.14.71-.14 4.48-.71 5.27-.57.78-1.14 3.98-1.14 3.98l-1 .32s-3.27-4.95-3.34-5.8c-.07-.85-.78-3.56-.57-3.84.21-.29 7.45-4.16 7.45-4.16"/><path fill="#dedede" d="M14.01 20.32c.44.84 1.64 1.49 2.28 1.92.64.42 3.37 1.7 4.32 1.7.95 0 2.32-.88 2.66-1.18.35-.31.7 2.54.2 3.4-.49.85-.85 2.48-1.41 2.91-.57.43-1.43 1.07-1.64 1.14-.22.07-.71.28-1.21.78s-.86 0-1.28-.28c-.43-.29-.36-.43-1.07-1.07a9.03 9.03 0 01-1.92-3.28c-.22-.85-.93-6.04-.93-6.04"/><path fill="#ccc" d="M26.77 16.07c.23-.18.41-.54.41-.54s.42-.06.6-.23c.17-.18.11-.54.11-.54s.71-.94.89-1.65c.18-.72-.12-1.13-.12-1.13s.36-.53.36-1c0-.48-.18-.95-.36-1.37-.18-.41-.12-1.3-.41-1.9-.3-.59-.95-.82-.95-.82s-.24-1.25-.6-2.25c-.35-1-.64-1.54-1.06-1.78a12.37 12.37 0 01-2.07-1.78c-.6-.65-2.13-.53-3.38-.41 0 0-.83-.18-1.48-.06s-1.42.3-2.42.47c-1.01.18-2.5 1.13-3.14 1.6-.65.48-.9 1.01-1.42 1.25-.54.23-.18.89-.66.89-.47 0-.77 1-1.06 1.36-.3.35.18 1.18.18 1.18s-.54.71-1.01 1.84c-.47 1.12-.36 2.19-.36 2.19s-1.12.7-.65 1.77c.11.25.6.48.95.54.36.06-.41 1.24-.53 1.77-.12.54 0 1.01.41 1.3.42.3.48.9 1.07.95.59.06.7-.53.65-.3-.06.24.71 2.73.47 3.03-.23.3-.53.83-.59 1.48-.06.62.15 1.02.28 1.62.12.11.24.25.31.4.18.35-.41.64-.83.82-.41.18-.23.53.36.42.6-.12.65 0 1.18-.18.54-.18.48-.18.83-.6.05-.05.1-.1.14-.13-.06-.03-.1-.08-.08-.16.06-.3.36-.53.48-.89.11-.35-.12-1.18-.24-1.6-.12-.41-.47-.23-.47-.23s.41-.54.3-.83c-.13-.3-.36.3-.78.41-.41.12.06.6.06.6s-.35-.18-.35-.54c0-.36.59-.41.82-.71.24-.3.48-.47.83-.89.36-.41 0-1.24-.23-2.01-.24-.77 0-1.48-.06-2.25h.04a4.3 4.3 0 01-.08-.71c.02-.51.13-2.45.02-3.18-.1-.73.18-3.3.34-4.08.15-.78 1.13-1.7 1.13-1.7s.6.5 1.02.54c.42.05.22-.29.49-.44.26-.16.69.13 1.4.06.7-.06 1.04-.35 1.55-.37.51-.03.27.13.58.37.3.25.73.3 1.2.34.46.04.44 0 .73-.18s.67-.42 1.09-.53c.42-.11.64.06 1.09.22.44.15 1.06-.4 1.28-.47.23-.06.23-.18.61 0 0 0-.18.77.12 1.42.3.65.65.77.65 1.48s-.18 2.31-.18 3.26c0 .95.36 1.9.18 2.9-.11.64-.41 1.8-.7 2.87l.23-.44s.59-.3.83-.47M25.7 17c.01 0 .01-.02.02-.03zm3.5 7.47c-.24-.17-.6-.3-1.07-.42-.95-.24 0 .95-.42.65-.18-.13-.19-.35-.14-.61.05-.35.2-.79.2-1.22 0-.77-.59-.66-.83-1.25-.23-.59 0-2.13 0-2.49 0-.35-.35-.17-.35-.17s-.12-1-.18-1.42c-.05-.4-.63-.52-.7-.54-.16.62-.32 1.21-.42 1.66-.14.6-.43 1.38-.78 2.13.16.32.31.66.36.9.12.52.18.76.6 1.23.4.48.29.24.59.6.3.35.11.65.23 1.06.12.42.12.77.71 1.19.6.41 1.07.12 1.54.06.48-.06.6-.42.71-.83.06-.21.02-.36-.05-.53"/><path fill="#999" d="M20.02 11.98s1.3 3.5 1.12 3.9c-.18.42-.95.3-1.24.13-.3-.18.12-4.03.12-4.03"/><path fill="#737373" d="M25.29 5.35c-.54.3-1.13.35-1.37.7-.23.36-.05.96.54 1.31.59.36 1.12.77 1.18 1.24.06.48.36 1.49.12 1.78l.24.6s-.36.17-.65.29c-.3.12-.3.41-.6.53-.3.12-.35.24 0 .48.36.23-.12.47-.12.47l-.11.47s.65-.3.7-.53c.07-.24-.17-.53.18-.6.36-.05.48-.29.6.13.12.41.06 1.77-.18 2.19-.24.41-.65.95-.71 1.42-.06.47.24 1.18-.12 1.36-.36.18-.71.12-.71.12l-.3-.95s-.12 1.48 0 1.96c.12.47.36.7.12 1.06-.23.36-.59.12-.77.06-.18-.06-.35-.41-.23-.65.11-.24-.18-.3-.66-.24-.47.06-.53.18-.94.24-.42.06-.54-.36-.9-.3-.35.06-1.24.48-1.24.48s.36.23.72.23c.35 0 .76-.17 1.24-.17.47 0 1.12-.24 1.12.12 0 .35.12.53-.17.65-.3.12-.77.17-1.25.17-.47 0-.77-.05-.77-.05s.24.53.54.59c.3.06 1.36 0 1.65-.18.3-.18.71-.36.71-.24s-.11-.06-.3.48c-.17.53-.11 1.3-.23 1.6-.12.3-.47.59-.83.65-.35.06-1.9.06-2.25-.06-.35-.12-.83-.42-1.24-.65-.42-.24-1.42-.42-1.9-.95a4.18 4.18 0 01-.77-2.37c-.05-.89 0-1.78-.23-2.13-.24-.36-1-1.42-1.07-2.13-.06-.71-.12-2.49-.12-2.49s.9.65 1.37.77c.47.12 1.36 0 1.36 0s-.77 0-.83-.47c-.06-.48.47-1.19.47-1.19s-1.24-.24-1.72-.95c-.47-.7-1.06-1.24-.7-1.71.35-.48 1.53-.83 1.65-1.25a13 13 0 00.24-1.3s-.24-.06-.6.06c-.35.12-.76-.71-1.18-.53-.41.17-.77 1.48-.95 2.37-.17.88-.17 2.3-.17 3.07s-.06 1.66-.06 2.61.12 2.2.12 2.96c0 .77.41 2.67.17 3.14-.23.47-.59.77-.41 1.24.18.48.6.77.6 1.48s-.19.95-.36 1.37c-.18.41 0 .17.3.41.29.24.58 2.25.76 2.78.18.54 2.37 3.8 2.37 3.8s-1.24-4.21-1.36-5.04c-.12-.83-.83-4.5-.83-4.5s1.07 1.48 1.6 1.78c.53.3 1.3.3 1.78.41.47.12 2.13.41 2.78.6.65.17.77.29.12.47-.65.17-1.01-.18-1.13.17-.12.36-.41.71-.83.71-.41 0-1.06-.94-1.48-1-.41-.06-.7.23-.59.53.12.3.47 1.13.89 1.13.41 0 1.06-.18 1.42 0 .35.17 1.07-.6 1.36-.77.3-.18.71-.48.6.05-.12.54-.48 1.43-.6 1.9s.53.6.95-.18c.41-.77.47-1.9.83-2.3.35-.42 1-1.13 1-1.13s.3.47 0 1.36c-.3.89-.94 2.01-1.12 2.6-.18.6-.53 2.73-.53 2.73s1.06-.83 1.71-1.9c.66-1.06 1.01-1.9.95-2.78-.06-.89-.3-1.66.12-1.95.41-.3 1.18-.48 1.18-.48s-.59-.41-.7-.94a4.8 4.8 0 010-1.6c.05-.42 1.47-5.51 1.65-5.98.18-.48-.12-2.5-.12-3.14 0-.65.24-1.78.48-2.55.23-.77.41-1 .12-1.42a9.03 9.03 0 01-.95-1.54c-.12-.35-.65-.6-.65-.6"/><path fill="#737373" d="M8.95 11.72s.43.62.67.58c.24-.05.24-1 .19-1.2-.05-.19.57-.61.57-.61s-.05.47.2.47c.23 0 .94-.28.8-.52-.14-.24-.38.05-.43-.38-.05-.43.43-1.62.43-1.62s.05.19 0 .85c-.05.67 0 1.15.33 1.05.34-.1.91-.05.91-.05s-.29.48-.52.58c-.24.1-.29.23-.58.23-.28 0-.66.15-.95.43-.29.29-.52.77-.19.81.33.05 1.05.1 1.24 0 .19-.1.43-.19.43-.19s.1.2-.43.48c-.52.28-1.05-.05-1.38.19-.34.24-.48 1-.48 1s.43-.24 1.05-.29c.62-.04 1.05 0 1.1-.19.04-.19.14-.62.33-.85.19-.24.71-.53.8-.2.1.34.2.91-.23 1.05-.43.15-.95.48-1.52.48-.58 0-1.15.14-1.24.52-.1.39-.62.91-.29.96.33.04 1.1.1 1.38-.05.29-.14.24-.76.57-1 .34-.24.39-.67.62-.33.24.33.62 1.14.58 1.28-.05.14-.1.1-.24-.19-.15-.28-.29-1.05-.53-.71-.24.33-.43.62-.14 1.04.29.43 1 1.2 1 1.2s.24.38-.1.28c-.33-.1-.66-.95-1.04-.8-.38.13-.48-.44-.76-.3-.3.15 0 .15-.2.48-.19.34-.23.15-.71 0a9.98 9.98 0 00-1.05-.24s.2.48.53.72.95.33 1.14.28c.19-.04.33 1.39.33 1.39l-.62-1.2s-.04.48-.43.3c-.38-.2-1.52-1.2-1.42-1.68.09-.47.76-1.38.66-1.85-.1-.48-.8-.43-.8-.77 0-.33.42-1.43.42-1.43"/><path fill="#999" d="M14.6 5.35s-.18-.62-.03-.77a.74.74 0 00.18-.39s-.36-.06-.5.24c-.16.3-.07.5-.21.8-.15.3-.6.3-.8.6-.21.29-.39.76-.54.55-.14-.2-.03-.97-.03-.97s-1.57.41-1.65.62c-.1.2.38.47.32.77-.06.3-.68.53-.83.5-.15-.03-1.1 3.02-.23 2.02.85-1.01.8-1.3 1-1.04.2.27.48.38.5.65.04.27.21.65.45.65.24 0 .35-.77.47-.62.12.15.21.2.21.53s.15 1.25.15 1.25-.06-2.49.32-3.29c.39-.8-.2-.56-.41-.35-.2.2-.44 1.18-.68 1.15-.24-.03-.45.24-.53-.09-.1-.32.17-.98.5-1.12.32-.15.68-.36.92-.33.23.03.41 0 .53-.18.12-.18.89-1.18.89-1.18"/><path fill="#a6a6a6" d="M10.27 7.17s.09-.4.38-.51c.28-.11.57-.05.57-.05s-.5-.97-.33-1.22c.18-.24.33-.37.58-.55.24-.18.95-1.13 1.42-1.42.46-.3.66-.36 1.1-.65.45-.29 1.96-1 2.54-1.15.58-.16.86.07 1.03.15.17.07.21.38.48.34.27-.05 1.07-.27 1.33-.1.27.19.2.2.4.43.2.22.6.47.6.73 0 .27-.49.91-.5 1.16-.03.24.21.42.28.66.07.25-.16.85.15.85.32 0 .63-.07.5-.5-.14-.41-.1-1.21.1-1.24.2-.02.36.23.54.23.18 0 .35-.71.15-.85-.2-.13-.53-.2-.64-.35-.11-.16.11-.25.33-.36.22-.1-.4-.1-.26-.29.13-.17.75-.02 1 .1.24.1.66.28.73.46.06.18.53.24.62.64.09.4.09.45-.09.62-.18.18-.42.18-.44.38-.03.2-.1.45.35.5.45.03.49.12.73.39.25.27.2.31.54.18.33-.14.69-.31.69-.31s-.2-.18-.27-.47-.02-.13-.36-.4c-.33-.27-.06-.49-.3-.87-.25-.37-.36-.24-.56-.48-.2-.25-.4-.36-.27-.5.13-.13.38 0 .47.14.09.13.38.42.6.62.22.2.1.25.4.47.29.22.46.44.5.6.05.15-.01.62-.01.62l.5.47s.16-.62.18-.8c.03-.18.3-.45.07-.85-.22-.4-.33-.93-.62-1.13-.29-.2-.67-.42-.78-.4-.1.02-.15.05-.35.16-.2.1-.27.2-.56-.03-.29-.22-.11-.15-.38-.44-.26-.29-.35-.49.03-.31.37.18.37.31.64.49s.47.38.51 0c.04-.38.22-.56-.31-.78-.53-.22-.84-.33-1.15-.44-.32-.11-.5-.34-.74-.36-.24-.02-1.26-.29-1.46-.07-.2.23-.2.45-.23.6-.02.16-.17.4.32.25.48-.16.57-.29.66-.02.1.26.16.5-.26.55-.43.05-.52.22-.7.05-.17-.18-.15-.36-.35-.58-.2-.22-.07-.84-.49-.84s-1.97-.1-2.44.08-2.35.71-2.84 1c-.49.3-2.27 1.51-2.47 1.76-.2.24-.49.93-.73 1.1a7.23 7.23 0 00-1.24 1.23c-.07.2-.4.69.1 1.3"/><path fill="#737373" d="M14.12 2.27c-.41.3-.74 1.18-.74 1.18s.66-.3.92-.14c.27.14.3.47.56.68.27.2.27.03.5.26.24.24.33.1.33.57s.1.85.1.85.23-.59.47-.77c.23-.17.38-.41.77-.41.38 0 1 0 1.1-.27.08-.26.73-.68.85-.74.12-.06.65-.17.65-.17s.3.59.36.8c.06.2.5.68.56.59.06-.1.27-.98-.06-1.19-.33-.2-.5-.56-.8-.53-.3.03-.92-.12-1.3.35-.39.48-1.36.75-1.66.69-.3-.06-.5-.12-.15-.33.36-.2.8-.53.98-.74.18-.2.5-.74.68-.8.18-.06-.41-.2-.6-.03-.17.18-.97.42-1.18.83-.2.41-.23.71-.53.68-.3-.03-.47-.24-.44-.62.03-.39.2-.8.68-.98.47-.18 1.33-.09 1.39-.26.06-.18.44-.21.74-.39.3-.18.53-.41.8-.24.26.18.44.5.09.5-.36 0-.62.16-.62.16s.5.02.68.08c.17.06.26.3.47.12.2-.18.83-.06 1-.38.18-.33.13-.86.48-.86.36 0 1.1.03 1.45.27.36.23.65.7.95.82.3.12.89.45.89.66 0 .2-.33.53-.33.53s.6-.27.83-.18c.24.09.95.6.95 1 0 .42.65 1.58.59 1.81-.06.24-.27.18-.44-.03-.18-.2-.3-.44-.3-.44s1.07 3.08 1.42 2.81c.36-.26.65-.68.65-.68l-.7-.47s-.3-1.57-.48-2.13a5.31 5.31 0 00-1.36-2.14c-.63-.5-1.6-1.89-2.08-1.92-.47-.03-2.51-.06-3.05-.06-.53 0-1.3-.03-1.65 0-.36.03-1.66.39-1.66.39s1.18-.06.89.11c-.3.18-.69.54-1.01.48-.33-.06-.95-.45-1.18-.3-.24.15-1.49.89-1.49.89M11 5.96c.29.1 1 .52.57 1.05-.43.52-.95.33-1.33 1-.38.66-.1 1-.34 1.62-.23.62-.76.8-.76.8s-.24-.52.05-1c.29-.47.48-1.61.86-1.76.38-.14 1.28 0 1.57-.14.29-.14.62-.62.57-1.14-.05-.53.2-.9.43-1.29.24-.38.95-1.05.95-1.05s-1.05 1-1.28.67c-.24-.33.28-1.2.28-1.2s-.57.15-.9.58c-.34.43.1.86-.29 1.24-.38.38-.57.24-.57.48 0 .23.19.14.19.14"/><path fill="none" stroke="#595959" stroke-width=".8453312199999999" d="M25.64 5c-.38-.18-.38-.07-.6 0-.23.06-.85.61-1.3.46-.44-.16-.66-.33-1.08-.22-.42.1-.8.35-1.09.53-.29.18-.27.22-.73.18-.47-.05-.89-.1-1.2-.34-.31-.24-.07-.4-.58-.37-.5.02-.84.3-1.55.37-.71.07-1.14-.22-1.4-.06-.27.15-.07.49-.5.44-.41-.04-1.01-.53-1.01-.53s-.98.91-1.13 1.69c-.16.77-.45 3.35-.34 4.08.11.74 0 2.67-.02 3.18-.02.5.45 2.54.45 2.54s.71 3.62 1.42 4.5"/><path fill="none" stroke="#262626" stroke-width=".8453312199999999" d="M14.98 21.45c.71.9 3.08 1.66 3.61 1.96.54.3 2.2.35 2.9.3.72-.06 1.01-.18 1.78-.95s1.72-2.9 2.02-4.15c.3-1.24.94-3.55 1.12-4.56.18-1-.18-1.95-.18-2.9s.18-2.55.18-3.26c0-.7-.35-.82-.65-1.48-.3-.65-.12-1.42-.12-1.42"/><path fill="none" stroke="#191919" stroke-width=".67599831" d="M19.72 11.68s-2.66-.35-3.5-.17c-.82.17-1.18.06-1.18.06"/><path fill="none" stroke="#000" stroke-width="1.0146641299999999" d="M20.2.61c1.24-.12 2.78-.24 3.37.42.6.65 1.66 1.54 2.07 1.77.42.24.71.77 1.07 1.78.35 1 .59 2.25.59 2.25s.65.24.95.83c.3.59.23 1.48.41 1.9.18.4.36.88.36 1.35 0 .48-.36 1.01-.36 1.01s.3.42.12 1.13c-.18.7-.89 1.65-.89 1.65s.06.36-.12.54c-.17.17-.59.23-.59.23s-.18.36-.41.54c-.24.17-.66.47-.66.47l-.07.47s.31.12.37.54c.06.41.18 1.42.18 1.42s.35-.18.35.18c0 .35-.23 1.9 0 2.48.24.6.83.48.83 1.25 0 .43-.15.87-.2 1.22-.05.27-.04.48.14.61.42.3-.53-.89.42-.65s1.42.53 1.42 1c0 .48.77.19 2.72 1.43 1.96 1.24 3.02 1.24 3.02 2.3 0 1.07.42-.52-.65 4.69-1.06 5.2-2.48 4.91-2.48 4.91l-25.35.24s-3.2-4.86-3.55-7.17c-.36-2.3-.6-2.37-.3-2.96.3-.59 2.43-1.54 3.91-2.25 1.48-.7 3.44-1.77 3.44-1.77s.7-.18.59-.83c-.12-.66-.36-1.07-.3-1.72.06-.65.36-1.18.6-1.48.23-.3-.54-2.78-.48-3.02.06-.24-.06.35-.65.3-.6-.06-.65-.66-1.07-.95-.41-.3-.53-.77-.41-1.3.12-.54.89-1.72.53-1.78-.35-.06-.84-.3-.95-.53-.47-1.07.65-1.78.65-1.78s-.11-1.07.36-2.2c.47-1.12 1-1.83 1-1.83s-.47-.83-.17-1.18c.3-.36.6-1.36 1.06-1.36.48 0 .12-.66.66-.9.53-.23.77-.76 1.42-1.24.65-.47 2.13-1.42 3.14-1.6 1-.17 1.77-.35 2.42-.47.65-.12 1.48.06 1.48.06z"/><path fill="none" stroke="#191919" stroke-width=".67599831" d="M25.94 11.39s-.71-.65-1.25-.53c-.53.11-3.07 1.12-3.07 1.12s.59 2.78.7 3.38c.12.59.18 1.77-.11 1.83-.3.06-.77.24-1 .06-.25-.18-.96-.6-1.25-.6-.3 0-.42-.4-.42-.58"/></svg>