<svg xmlns="http://www.w3.org/2000/svg" width="40" height="40"><defs><clipPath><path d="M0 792h612V0H0z"/></clipPath><clipPath id="a"><path d="M183.16 455.44h29V321.1h-29z"/></clipPath><clipPath id="b"><path d="M205.16 375.1H434.5v-54.33H205.16z"/></clipPath><clipPath id="c"><path d="M288.83 482.44h62.33V331.77h-62.33z"/></clipPath><linearGradient id="d" x2="1" gradientUnits="userSpaceOnUse" gradientTransform="matrix(-33.947 -9.096 -9.096 33.947 338.348 412.093)"><stop offset="0" stop-color="#fff"/><stop offset="1" stop-color="#231f20"/></linearGradient><clipPath id="e"><path d="M191.5 479.78h76V332.44h-76z"/></clipPath><linearGradient id="f" x2="1" gradientUnits="userSpaceOnUse" gradientTransform="matrix(-57.981 -15.536 -15.536 57.981 252.487 413.877)"><stop offset="0" stop-color="#fff"/><stop offset="1" stop-color="#231f20"/></linearGradient><clipPath id="g"><path d="M344.37 505.8h113.78V391.98H344.37z"/></clipPath></defs><g><path fill="none" stroke="#fff" stroke-width=".39767" stroke-miterlimit="10" d="M31.95 22.07c-4.33 0-7.85-3.52-7.85-7.86 0-4.32 3.52-7.84 7.85-7.84s7.85 3.52 7.85 7.85c0 4.35-3.52 7.87-7.85 7.87z" stroke-linejoin="round"/><path fill="#3f3f3f" d="M18.07 32.73H3.77L.55 12.4h12.68z"/><path fill="none" stroke="#000" stroke-width="1.10124" d="M18.07 32.73H3.77L.55 12.4h12.68z" stroke-linecap="round" stroke-linejoin="round"/><path fill="#3f3f3f" d="M24.15 32.73s-1.1.56-3.15.56c-2.03 0-2.85-.57-2.85-.57L13.3 12.4s.53.27 2.86.27 3.15-.28 3.15-.28z"/><path fill="#800101" fill-rule="evenodd" d="M31.95 22.07c-4.33 0-7.85-3.52-7.85-7.86 0-4.32 3.52-7.84 7.85-7.84s7.85 3.52 7.85 7.85c0 4.35-3.52 7.87-7.85 7.87"/><g style="line-height:21.24079323px;-inkscape-font-specification:Arial;text-align:start" font-size="9.638" font-family="Arial" letter-spacing="0" word-spacing="0"><path fill="#fff" d="M28.26 10.08v2h4.7c-1.93 1.95-2.72 4-2.72 6.48h2.58c0-2.5.58-4.7 2.7-6.7V10.1z" style="-inkscape-font-specification:'Work Sans Ultra-Bold'" font-weight="800" font-family="Work Sans"/></g><path fill="none" stroke="#000" stroke-width="1.10124" d="M24.15 32.73s-1.1.56-3.15.56c-2.03 0-2.85-.57-2.85-.57L13.3 12.4s.53.27 2.86.27 3.15-.28 3.15-.28z" stroke-linecap="round" stroke-linejoin="round"/><path fill="#3f3f3f" d="M38.26 32.73H24.1L19.25 12.4H31.8z"/><path fill="none" stroke="#000" stroke-width="1.10124" d="M38.26 32.73H24.1L19.25 12.4H31.8z" stroke-linecap="round" stroke-linejoin="round"/><path fill="#fff" d="M23.87 31.85H17.9s-1.68-.72-3.54-.72c-1.85 0-9.66.9-9.66.9L1.75 13.25c2.87-1 4.82-3.73 9.88-3.76 3.77-.04 4.7 3.2 4.7 3.2s.84-2.9 4.9-3.16c5.33-.32 6.16 2.44 9.54 3.05l6.1 19.25S29.6 31 28.17 31c-1.43 0-4.3.85-4.3.85"/><path fill="none" stroke="#000" stroke-width=".68761" d="M23.87 31.85H17.9s-1.68-.72-3.54-.72c-1.85 0-9.66.9-9.66.9L1.75 13.25c2.87-1 4.82-3.73 9.88-3.76 3.77-.04 4.7 3.2 4.7 3.2s.84-2.9 4.9-3.16c5.33-.32 6.16 2.44 9.54 3.05l6.1 19.25S29.6 31 28.17 31c-1.43 0-4.3.85-4.3.85z" stroke-linecap="round" stroke-linejoin="round"/><g><g><g clip-path="url(#a)" transform="matrix(.137 0 0 -.137 -23.461 76.243)"><path fill="#ccc" d="M183.16 455.44l7-1 22-122-7-11.33z"/></g></g></g><g><g><g clip-path="url(#b)" transform="matrix(.137 0 0 -.137 -23.461 76.243)"><path fill="#ccc" d="M205.16 321.1l12 21 82.67 33 21.33-13.33 25.67 12.67 49-14.67 29.45-28.33 9.22-9.33-63.67 5-26-6-45.67-.33-21.33 6.34z"/></g></g></g><path fill="#fff" d="M3.13 13.6l2.7 16.9c3.2-1 4.35-4.03 10.75-4.03 4.06 0 4.54 4.12 4.54 4.12s.66-3.83 4.54-3.83c5.54 0 6.78 2.68 9.47 3.6L29.9 13.2"/><path fill="none" stroke="#000" stroke-width=".55062" d="M3.13 13.6l2.7 16.9c3.2-1 4.35-4.03 10.75-4.03 4.06 0 4.54 4.12 4.54 4.12s.66-3.83 4.54-3.83c5.54 0 6.78 2.68 9.47 3.6L29.9 13.2" stroke-linecap="round" stroke-linejoin="round"/><path fill="none" stroke="#000" stroke-width=".68761" d="M16.34 12.7l4.78 17.77" stroke-linecap="round" stroke-linejoin="round"/><g><g><g clip-path="url(#c)" opacity=".29" transform="matrix(.137 0 0 -.137 -23.461 76.243)"><g><g><g><g><path fill="url(#d)" d="M323.5 331.77L288.83 461.1s8.67 20.68 30.67 21.34l31.66-124.33c-24.66-1.32-27.66-26.32-27.66-26.32"/></g></g></g></g></g></g></g><path fill="#8c8c8c" d="M19.38 29.8s-.5-2.05-2.1-2.1c-2.56-.06-3.7.42-6.45 1.48 0 0 4.65-.95 5.98-.8 1.9.24 2.46 1.24 2.46 1.24"/><path fill="#8c8c8c" d="M22.97 29.6s.83-1.44 2.2-1.62c2.12-.27 4.2 1.06 5.53 1.24 0 0-4.62-.73-5.36-.57-1.24.28-2.37.95-2.37.95"/><path fill="#8c8c8c" d="M18.56 30.6s-.26-1.2-1.15-1.33c-2.43-.37-7.03.96-7.03.96s4.92-.73 6.67-.36c.87.18 1.52.73 1.52.73"/><path fill="#8c8c8c" d="M23.75 30.56s.5-1.04 1.34-1.1c2.65-.24 6.47.73 6.47.73s-4.64-.43-6.62-.15c-.67.1-1.2.5-1.2.5"/><g><g><g clip-path="url(#e)" opacity=".19" transform="matrix(.137 0 0 -.137 -23.461 76.243)"><g><g><g><g><path fill="url(#f)" d="M212.16 332.44l-20.66 126 17.66 9.67 25.67 11.68 32.67-122-25-11-16.34-10.34z"/></g></g></g></g></g></g></g><path fill="none" stroke="#fff" stroke-width=".39767" stroke-miterlimit="10" d="M31.95 22.07c-4.33 0-7.85-3.52-7.85-7.86 0-4.32 3.52-7.84 7.85-7.84s7.85 3.52 7.85 7.85c0 4.35-3.52 7.87-7.85 7.87z" stroke-linejoin="round"/><g><g><g><g clip-path="url(#g)" opacity=".78" transform="matrix(.137 0 0 -.137 -23.461 76.243)"><path fill="#800101" fill-rule="evenodd" d="M401.26 391.98c-31.4 0-56.9 25.5-56.9 56.9s25.5 56.92 56.9 56.92 56.9-25.5 56.9-56.9-25.5-56.92-56.9-56.92"/></g></g></g><g style="line-height:21.24079323px;-inkscape-font-specification:Arial;text-align:start" font-size="9.638" font-family="Arial" letter-spacing="0" word-spacing="0"><path fill="#fff" d="M28.26 10.08v2h4.7c-1.93 1.95-2.72 4-2.72 6.48h2.58c0-2.5.58-4.7 2.7-6.7V10.1z" style="-inkscape-font-specification:'Work Sans Ultra-Bold'" font-weight="800" font-family="Work Sans"/></g></g></g></svg>