<svg xmlns="http://www.w3.org/2000/svg" width="40" height="40"><defs><clipPath id="a" clipPathUnits="userSpaceOnUse"><path d="M0 252h360V0H0z"/></clipPath><clipPath id="b" clipPathUnits="userSpaceOnUse"><path d="M34.2 198.9h286.3v-54.4H34.2z"/></clipPath></defs><g clip-path="url(#a)" transform="matrix(.13475 0 0 -.13475 -4.177 36.957)"><path fill="#bdbcbc" d="M34.46 92.08l1.41 144.05L100 196l.05-179.54L37.52 82z"/><path fill="none" stroke="#231f20" stroke-linejoin="round" stroke-miterlimit="10" stroke-width="7.197" d="M35.73 85.47l-1.13 147.6.05.68.15.68.28.62.34.57.45.5.51.46.57.34.62.28 1.36.2 184.43-.82.65-.06.68-.14.62-.28.57-.34.51-.46 95.5-36.9.57-.33.5-.46.46-.5.34-.57.29-.63.2-1.36V18.6l-.06-.65-.14-.68-.29-.63-.34-.56-.45-.51-.51-.46-.57-.34-.62-.28-1.33-.2-218.54.03-.68.05-.68.15-.62.28-.57.34-.5.45-.46.51-.34.57-60.03 65.32-.51.46-.46.5-.62 1.2z"/><path fill="#e9e9e9" fill-rule="evenodd" d="M211.8 18.64H101.37v175.97h220.9V18.64z"/><path fill="none" stroke="#231f20" stroke-linejoin="round" stroke-miterlimit="10" stroke-width="7.197" d="M35.93 237.6l66.94-43.5M211.8 18.65H101.37V194.6h220.9V18.64z"/><path fill="none" stroke="#231f20" stroke-linejoin="round" stroke-miterlimit="10" stroke-width="10.087" d="M101.88 153.77h221.37M35.93 205.6l64.96-50.98"/><path fill="#fefefe" fill-rule="evenodd" d="M213.81 77.14h-42.97v39.99h85.95v-40z"/><path fill="none" stroke="#231f20" stroke-linejoin="round" stroke-miterlimit="10" stroke-width="5.752" d="M213.81 77.14h-42.97v39.99h85.95v-40z"/><path fill="none" stroke="#231f20" stroke-linejoin="round" stroke-miterlimit="10" stroke-width="10.087" d="M35.93 86.12L98.4 18.14"/><g clip-path="url(#b)"><path fill="none" stroke="#bdbcbc" stroke-width="6" d="M36 196.5l65-49h219.5"/></g></g></svg>