<svg xmlns="http://www.w3.org/2000/svg" width="40" height="40"><defs><clipPath><path d="M0 252h360V0H0z"/></clipPath><clipPath><path d="M212.74 236.56H326.5V122.74H212.75z"/></clipPath></defs><g><g><path fill="#fff" fill-rule="evenodd" d="M19.98 30.26H5.78c-1.05 0-1.9-.86-1.9-1.9v-16.7c0-1.05.85-1.9 1.9-1.9h28.4c1.06 0 1.92.85 1.92 1.9v16.7c0 1.04-.86 1.9-1.9 1.9z"/><path fill="none" stroke="#010101" stroke-width="1.33.019" stroke-miterlimit="10" d="M19.98 30.26H5.78c-1.05 0-1.9-.86-1.9-1.9v-16.7c0-1.05.85-1.9 1.9-1.9h28.4c1.06 0 1.92.85 1.92 1.9v16.7c0 1.04-.86 1.9-1.9 1.9z" stroke-linejoin="round"/><path fill="#999" fill-rule="evenodd" d="M10.93 20.83c-1.3 0-2.33-1.04-2.33-2.32 0-1.28 1.04-2.32 2.33-2.32 1.28 0 2.32 1.04 2.32 2.33 0 1.3-1.04 2.33-2.32 2.33"/><path fill="none" stroke="#010101" stroke-width="1.33.019" stroke-miterlimit="10" d="M10.93 20.83c-1.3 0-2.33-1.04-2.33-2.32 0-1.28 1.04-2.32 2.33-2.32 1.28 0 2.32 1.04 2.32 2.33 0 1.3-1.04 2.33-2.32 2.33z" stroke-linejoin="round"/><path fill="#fff" fill-rule="evenodd" d="M29.2 20.8c-1.3 0-2.34-1.03-2.34-2.3 0-1.3 1.04-2.34 2.33-2.34 1.27 0 2.3 1.04 2.3 2.33 0 1.27-1.03 2.3-2.3 2.3"/><path fill="none" stroke="#010101" stroke-width="1.33.019" stroke-miterlimit="10" d="M29.2 20.8c-1.3 0-2.34-1.03-2.34-2.3 0-1.3 1.04-2.34 2.33-2.34 1.27 0 2.3 1.04 2.3 2.33 0 1.27-1.03 2.3-2.3 2.3z" stroke-linejoin="round"/><path fill="#fff" fill-rule="evenodd" d="M20.07 20.16h-3.74v-3.03h7.48v3.03z"/><path fill="none" stroke="#010101" stroke-width=".77273" stroke-miterlimit="10" d="M20.07 20.16h-3.74v-3.03h7.48v3.03z" stroke-linejoin="round"/><path fill="#010101" fill-rule="evenodd" d="M16.16 20.22V17.07l.02-.03.02-.03h.02l.03-.03.02-.02h.04l.07-.02h4.57l.23 1.78v.03l-.22 1.62H16.3l-.03-.02h-.02l-.03-.03-.02-.03-.02-.02z"/><path fill="none" stroke="#010101" stroke-width=".96691" stroke-miterlimit="10" d="M8.6 30.4l2.27-5.46 18.07-.07 2.2 5.25" stroke-linejoin="round"/><path fill="#010101" fill-rule="evenodd" d="M13.53 28.7c-.45 0-.8-.37-.8-.82 0-.44.35-.8.8-.8.45 0 .8.36.8.8 0 .45-.35.8-.8.8"/><path fill="none" stroke="#010101" stroke-width=".10108" stroke-miterlimit="10" d="M13.53 28.7c-.45 0-.8-.37-.8-.82 0-.44.35-.8.8-.8.45 0 .8.36.8.8 0 .45-.35.8-.8.8z" stroke-linejoin="round"/><path fill="#fff" fill-rule="evenodd" d="M10.88 20.16c-.93 0-1.7-.76-1.7-1.7 0-.93.77-1.7 1.7-1.7.94 0 1.7.77 1.7 1.7 0 .94-.76 1.7-1.7 1.7"/><path fill="#fff" fill-rule="evenodd" d="M10.88 20.16l-.06.28-.57-.12.12-.57.57.12z"/><path fill="#fff" fill-rule="evenodd" d="M9.9 20.15l-.38-.25-.04-.02-.04-.06.24-.16.16-.25.38.27z"/><path fill="#fff" fill-rule="evenodd" d="M9.68 19.66l-.24.16-.07-.1.48-.33.07.1z"/><path fill="#fff" fill-rule="evenodd" d="M9.2 19.48l-.13-.2-.02-.04-.02-.07.3-.05.23-.17.13.2z"/><path fill="#fff" fill-rule="evenodd" d="M9.32 19.12l-.3.05-.06-.33.57-.12.07.34z"/><path fill="#fff" fill-rule="evenodd" d="M8.9 18.55V18.4l.28.06.3-.06v.04z"/><path fill="#fff" fill-rule="evenodd" d="M9.18 18.46l-.28-.06.1-.53.57.1-.1.55z"/><path fill="#fff" fill-rule="evenodd" d="M9.16 17.5l.28-.4.02-.04.06-.05.16.26.24.16-.28.4z"/><path fill="#fff" fill-rule="evenodd" d="M9.68 17.26L9.52 17l.07-.03.3.48-.06.05z"/><path fill="#fff" fill-rule="evenodd" d="M9.83 16.8l.23-.15.03-.02.06-.02.06.3.16.24-.23.15z"/><path fill="#fff" fill-rule="evenodd" d="M10.22 16.9l-.06-.3.3-.05.12.57-.3.06z"/><path fill="#fff" fill-rule="evenodd" d="M10.74 16.5l.08-.02h.12l-.06.28.06.28-.08.02z"/><path fill="#fff" fill-rule="evenodd" d="M10.88 16.76l.06-.28.5.1-.13.56-.48-.1z"/><path fill="#fff" fill-rule="evenodd" d="M11.8 16.72l.44.3.03.02.05.05-.24.16-.17.24-.42-.3z"/><path fill="#fff" fill-rule="evenodd" d="M12.08 17.26l.24-.17.03.04-.48.32-.04-.04z"/><path fill="#fff" fill-rule="evenodd" d="M12.5 17.38l.18.26.02.03.02.07-.28.06-.24.16-.17-.26z"/><path fill="#fff" fill-rule="evenodd" d="M12.44 17.8l.28-.06.06.26-.57.12-.04-.26z"/><path fill="#fff" fill-rule="evenodd" d="M12.84 18.28l.02.12v.12l-.28-.06-.3.06v-.12z"/><path fill="#fff" fill-rule="evenodd" d="M12.58 18.46l.28.06-.1.45-.56-.12.1-.45z"/><path fill="#fff" fill-rule="evenodd" d="M12.64 19.35l-.32.47-.02.03-.06.05-.16-.24-.25-.17.32-.48z"/><path fill="#fff" fill-rule="evenodd" d="M12.08 19.66l.16.24-.33-.48h.02z"/><path fill="#fff" fill-rule="evenodd" d="M12 20.07l-.3.2h-.04l-.07.03-.06-.28-.17-.24.3-.2z"/><path fill="#fff" fill-rule="evenodd" d="M11.54 20.02l.05.28-.23.05-.12-.57.23-.04z"/><path fill="#fff" fill-rule="evenodd" d="M11.1 20.4l-.16.04h-.12l.06-.28-.06-.3.15-.02z"/><path fill="#010101" fill-rule="evenodd" d="M26.77 28.73c-.44 0-.8-.36-.8-.8 0-.45.36-.8.8-.8.45 0 .8.35.8.8 0 .44-.35.8-.8.8"/><path fill="none" stroke="#010101" stroke-width=".10108" stroke-miterlimit="10" d="M26.77 28.73c-.44 0-.8-.36-.8-.8 0-.45.36-.8.8-.8.45 0 .8.35.8.8 0 .44-.35.8-.8.8z" stroke-linejoin="round"/><path fill="#fff" fill-rule="evenodd" d="M29.2 20.22c-.93 0-1.7-.76-1.7-1.7 0-.93.77-1.7 1.7-1.7.94 0 1.7.77 1.7 1.7 0 .94-.76 1.7-1.7 1.7"/><path fill="#fff" fill-rule="evenodd" d="M29.2 20.22l-.06.3-.57-.13.12-.58.56.12z"/><path fill="#fff" fill-rule="evenodd" d="M28.22 20.22l-.38-.26-.04-.02-.04-.06.24-.16.16-.24.38.26z"/><path fill="#fff" fill-rule="evenodd" d="M28 19.72l-.24.16-.07-.1.47-.32.07.1z"/><path fill="#fff" fill-rule="evenodd" d="M27.53 19.54l-.14-.2-.03-.03-.02-.06.3-.06.23-.16.13.2z"/><path fill="#fff" fill-rule="evenodd" d="M27.64 19.18l-.3.06-.06-.34.57-.1.07.32z"/><path fill="#fff" fill-rule="evenodd" d="M27.22 18.62v-.16l.28.07.3-.07v.04z"/><path fill="#fff" fill-rule="evenodd" d="M27.5 18.53l-.28-.07.1-.53.57.12-.1.53z"/><path fill="#fff" fill-rule="evenodd" d="M27.48 17.57l.28-.4.02-.04.06-.05.16.24.24.16-.27.4z"/><path fill="#fff" fill-rule="evenodd" d="M28 17.32l-.16-.24.07-.05.33.48-.07.06z"/><path fill="#fff" fill-rule="evenodd" d="M28.15 16.87l.23-.15.03-.02.08-.03.06.3.16.23-.23.15z"/><path fill="#fff" fill-rule="evenodd" d="M28.54 16.96l-.06-.3.3-.05.12.58-.3.06z"/><path fill="#fff" fill-rule="evenodd" d="M29.06 16.56l.08-.02h.12l-.06.3.06.27-.08.02z"/><path fill="#fff" fill-rule="evenodd" d="M29.2 16.83l.06-.3.5.1-.13.58-.5-.1z"/><path fill="#fff" fill-rule="evenodd" d="M30.12 16.8l.44.28.03.02.04.06-.24.16-.17.24-.43-.3z"/><path fill="#fff" fill-rule="evenodd" d="M30.4 17.32l.24-.16.03.04-.48.33-.05-.05z"/><path fill="#fff" fill-rule="evenodd" d="M30.83 17.44l.17.26.02.04.02.06-.28.07-.24.16-.17-.26z"/><path fill="#fff" fill-rule="evenodd" d="M30.76 17.87l.28-.07.06.27-.57.12-.05-.28z"/><path fill="#fff" fill-rule="evenodd" d="M31.16 18.35l.02.1v.13l-.28-.05-.3.05v-.1z"/><path fill="#fff" fill-rule="evenodd" d="M30.9 18.53l.28.05-.1.46-.56-.12.1-.46z"/><path fill="#fff" fill-rule="evenodd" d="M30.96 19.4l-.32.48-.02.03-.06.06-.16-.24-.25-.16.32-.47z"/><path fill="#fff" fill-rule="evenodd" d="M30.4 19.72l.16.24-.33-.47v-.02z"/><path fill="#fff" fill-rule="evenodd" d="M30.3 20.13l-.28.2-.04.02-.07.02-.04-.28-.17-.26.3-.2z"/><path fill="#fff" fill-rule="evenodd" d="M29.86 20.1l.05.27-.2.04-.13-.55.23-.05z"/><path fill="#fff" fill-rule="evenodd" d="M29.4 20.48l-.14.03h-.12l.06-.28-.06-.28.15-.03z"/></g></g></svg>