<svg xmlns="http://www.w3.org/2000/svg" width="40" height="40"><defs><clipPath id="a" clipPathUnits="userSpaceOnUse"><path d="M0 792h612V0H0z"/></clipPath><clipPath id="b" clipPathUnits="userSpaceOnUse"><path d="M183.33 578h29V443.67h-29z"/></clipPath><clipPath id="c" clipPathUnits="userSpaceOnUse"><path d="M205.33 497.67h229.34v-54.34H205.33z"/></clipPath><clipPath id="d" clipPathUnits="userSpaceOnUse"><path d="M289 605h62.33V454.33H289z"/></clipPath><clipPath id="f" clipPathUnits="userSpaceOnUse"><path d="M191.67 602.33h76V455h-76z"/></clipPath><linearGradient id="e" x1="0" x2="1" y1="0" y2="0" gradientTransform="scale(-35.14355 35.14355) rotate(-15 52.962 44.19)" gradientUnits="userSpaceOnUse" spreadMethod="pad"><stop offset="0" stop-color="#fff"/><stop offset="1" stop-color="#231f20"/></linearGradient><linearGradient id="g" x1="0" x2="1" y1="0" y2="0" gradientTransform="scale(-60.02686 60.02686) rotate(-15 31.835 20.454)" gradientUnits="userSpaceOnUse" spreadMethod="pad"><stop offset="0" stop-color="#fff"/><stop offset="1" stop-color="#231f20"/></linearGradient></defs><g clip-path="url(#a)" transform="matrix(.14221 0 0 -.14221 -24.155 93.77)"><path fill="#3f3f3f" d="M300.8 437.22H197.18l-23.32 147.45h91.89z"/><path fill="none" stroke="#000" stroke-linecap="round" stroke-linejoin="round" stroke-width="8" d="M300.8 437.22H197.18l-23.32 147.45h91.89z"/><path fill="#3f3f3f" d="M344.86 437.22s-8.06-4-22.8-4c-14.73 0-20.68 4-20.68 4l-35.06 147.45s3.74-2 20.64-2 22.83 2 22.83 2z"/><path fill="none" stroke="#000" stroke-linecap="round" stroke-linejoin="round" stroke-width="8" d="M344.86 437.22s-8.06-4-22.8-4c-14.73 0-20.68 4-20.68 4l-35.06 147.45s3.74-2 20.64-2 22.83 2 22.83 2z"/><path fill="#3f3f3f" d="M447.12 437.22H344.48l-35.07 147.45h90.89z"/><path fill="none" stroke="#000" stroke-linecap="round" stroke-linejoin="round" stroke-width="8" d="M447.12 437.22H344.48l-35.07 147.45h90.89z"/><path fill="#fff" d="M342.87 443.63h-43.34s-12.13 5.2-25.57 5.2c-13.43 0-70.07-6.5-70.07-6.5l-21.37 136.09c20.81 7.25 34.98 27.08 71.64 27.3 27.3.16 34.1-23.4 34.1-23.4s6.03 21.15 35.44 22.97c38.63 2.38 44.63-17.62 69.18-22.1l44.17-139.56s-52.57 6.07-62.97 6.07c-10.4 0-31.2-6.07-31.2-6.07"/><path fill="none" stroke="#000" stroke-linecap="round" stroke-linejoin="round" stroke-width="5" d="M342.87 443.63h-43.34s-12.13 5.2-25.57 5.2c-13.43 0-70.07-6.5-70.07-6.5l-21.37 136.09c20.81 7.25 34.98 27.08 71.64 27.3 27.3.16 34.1-23.4 34.1-23.4s6.03 21.15 35.44 22.97c38.63 2.38 44.63-17.62 69.18-22.1l44.17-139.56s-52.57 6.07-62.97 6.07c-10.4 0-31.2-6.07-31.2-6.07z"/><g clip-path="url(#b)"><path fill="#ccc" d="M183.33 578l7-1 22-122-7-11.33z"/></g><g clip-path="url(#c)"><path fill="#ccc" d="M205.33 443.67l12 21 82.67 33 21.33-13.34L347 497l49-14.67L425.45 454l9.22-9.33-63.67 5-26-6-45.67-.34-21.33 6.34z"/></g><path fill="#fff" d="M192.5 576L212 453.5c23.34 7.13 31.67 29.14 78 29.14 29.47 0 32.94-29.9 32.94-29.9s4.75 27.73 32.87 27.73c40.19 0 49.19-19.47 68.64-26.14l-37.8 124.52"/><path fill="none" stroke="#000" stroke-linecap="round" stroke-linejoin="round" stroke-width="4" d="M192.5 576L212 453.5c23.34 7.13 31.67 29.14 78 29.14 29.47 0 32.94-29.9 32.94-29.9s4.75 27.73 32.87 27.73c40.19 0 49.19-19.47 68.64-26.14l-37.8 124.52"/><path fill="none" stroke="#000" stroke-linecap="round" stroke-linejoin="round" stroke-width="5" d="M288.26 582.32l34.68-128.72"/><g clip-path="url(#d)" opacity=".29"><path fill="url(#e)" d="M323.67 454.33L289 583.67s8.67 20.66 30.67 21.33l31.66-124.33c-24.66-1.34-27.66-26.34-27.66-26.34"/></g><path fill="#8c8c8c" d="M310.33 458.43s-3.66 14.9-15.16 15.2c-18.64.5-26.84-2.96-46.84-10.63 0 0 33.72 6.84 43.34 5.67 13.66-1.67 17.8-8.9 17.8-8.9M336.3 459.96s6.06 10.4 16.03 11.7c15.34 2 30.47-7.7 40-9 0 0-33.44 5.33-38.8 4.14-9-2-17.23-6.84-17.23-6.84"/><path fill="#8c8c8c" d="M304.33 452.67s-1.85 8.68-8.33 9.66c-17.67 2.67-51-7-51-7s35.67 5.34 48.33 2.67c6.34-1.33 11-5.33 11-5.33M342 453s3.6 7.48 9.67 8c19.33 1.67 47-5.33 47-5.33s-33.67 3-48 1C345.86 456 342 453 342 453"/><g><g clip-path="url(#f)" opacity=".19"><path fill="url(#g)" d="M212.33 455l-20.66 126 17.66 9.67L235 602.33l32.67-122-25-11L226.33 459z"/></g></g></g></svg>