<svg xmlns="http://www.w3.org/2000/svg" width="40" height="40"><defs><clipPath id="a"><path d="M0 792h612V0H0z"/></clipPath><clipPath id="b"><path d="M338.13 508.56H451.9V394.74H338.15z"/></clipPath><clipPath><path d="M253.06 383.74h162v-104h-162z"/></clipPath><clipPath><path d="M253.06 383.74h162v-104h-162z"/></clipPath><clipPath><path d="M253.06 383.74h162v-104h-162z"/></clipPath><clipPath><path d="M312.1 280.6l-59.04 58.45 102.15 44.7 59.3-56.77z"/></clipPath><clipPath><path d="M253.06 383.74h162v-104h-162z"/></clipPath><clipPath><path d="M280.7 371.7h124.85v-82.52H280.7z"/></clipPath><clipPath><path d="M280.7 350.33c.3.02 1.15.14 2.3.3 1.13.18 2.56.4 3.97.6 1.42.22 2.83.44 3.93.62s1.9.3 2.1.36c.22.06.43.1.64.16.2.04.4.1.62.14.2.03.42.08.62.13s.4.1.62.15c.28.07.56.14.84.2.27.08.55.16.83.23.27.1.55.17.82.24.26.08.53.16.8.24.28.07.55.15.8.23.3.1.56.18.83.26.27.08.54.17.8.25.27.1.53.18.8.27.3.1.6.2.88.3.3.1.6.2.9.3.3.1.57.2.86.3.3.12.57.23.86.34.33.13.66.26 1 .4.32.12.65.26.97.4.32.12.64.26.97.4.32.14.64.3.96.42.26.13.52.24.78.36s.53.24.8.36c.25.13.5.25.76.37.25.13.5.26.75.38s.5.25.73.37.48.25.72.37c.24.14.47.27.7.4.24.12.47.25.7.38.3.18.62.36.92.54.3.17.6.36.9.54.3.18.6.36.9.55.3.2.6.38.87.57.24.16.47.3.7.47.23.15.46.3.7.47.2.16.44.32.66.48.24.16.46.32.68.48.15.12.68.58 1.4 1.22.72.63 1.63 1.45 2.53 2.27.93.8 1.84 1.64 2.55 2.3.72.67 1.25 1.17 1.4 1.34 3.17-1.54 6.35-3.08 9.52-4.63 3.18-1.53 6.37-3.07 9.55-4.6 3.2-1.56 6.38-3.1 9.57-4.65 3.2-1.53 6.4-3.08 9.57-4.63 3.14-1.52 6.3-3.05 9.43-4.57 3.15-1.52 6.3-3.05 9.44-4.57 3.15-1.53 6.3-3.06 9.46-4.6 3.16-1.52 6.3-3.05 9.47-4.58-1.14-1.35-2.34-2.67-3.58-3.98-1.26-1.3-2.55-2.6-3.88-3.85-1.34-1.25-2.72-2.5-4.15-3.7-1.42-1.2-2.9-2.4-4.4-3.56-.46-.34-.92-.7-1.37-1.02-.46-.34-.92-.68-1.4-1-.45-.35-.92-.68-1.4-1-.47-.34-.94-.67-1.42-1-.6-.4-1.2-.8-1.8-1.2-.6-.4-1.22-.78-1.84-1.17-.62-.4-1.24-.76-1.87-1.15-.63-.38-1.26-.75-1.9-1.13-.48-.27-.96-.55-1.44-.83-.48-.28-.96-.55-1.46-.8-.5-.3-.98-.56-1.48-.83-.5-.26-1-.53-1.5-.8-.5-.26-1.05-.52-1.57-.8-.53-.25-1.06-.52-1.6-.78-.52-.27-1.06-.53-1.6-.78-.53-.26-1.07-.5-1.6-.76-.68-.3-1.34-.6-2-.9-.68-.3-1.36-.58-2.03-.87-.68-.3-1.37-.58-2.05-.86-.7-.28-1.38-.56-2.07-.83-.6-.22-1.2-.45-1.8-.7-.6-.2-1.2-.43-1.8-.65-.6-.23-1.2-.45-1.8-.67-.62-.2-1.23-.43-1.85-.64-.55-.2-1.1-.38-1.66-.56-.55-.2-1.1-.37-1.67-.55-.56-.2-1.12-.36-1.7-.54-.55-.18-1.12-.35-1.7-.5-.56-.2-1.13-.36-1.7-.5-.58-.2-1.15-.35-1.73-.5-.58-.16-1.16-.3-1.74-.48-.58-.16-1.16-.3-1.75-.46-.43-.1-.86-.22-1.3-.33-.42-.1-.85-.2-1.28-.3-.44-.1-.87-.2-1.3-.3-.44-.1-.87-.2-1.3-.3-.45-.1-2.13-.4-4.44-.8-2.32-.37-5.26-.85-8.23-1.33-2.97-.47-5.96-.94-8.35-1.3-2.4-.37-4.2-.63-4.8-.7-.98 2.58-1.96 5.14-2.95 7.7-.98 2.55-1.97 5.1-2.95 7.65-.98 2.55-1.95 5.1-2.93 7.63-.98 2.53-1.95 5.06-2.93 7.6-1 2.56-1.98 5.12-2.97 7.68-.98 2.56-1.97 5.12-2.95 7.67-.98 2.54-1.96 5.1-2.94 7.63-.98 2.54-1.95 5.07-2.93 7.6"/></clipPath><clipPath><path d="M280.7 371.7h124.85v-82.52H280.7z"/></clipPath><clipPath><path d="M280.7 371.7h124.85v-82.52H280.7z"/></clipPath><clipPath><path d="M329.54 371.7c-.15-.17-.68-.67-1.4-1.33-.7-.67-1.62-1.5-2.53-2.32-.9-.82-1.8-1.64-2.5-2.27-.73-.64-1.26-1.1-1.4-1.22-.23-.16-.46-.32-.68-.48-.2-.16-.44-.32-.66-.47-.23-.14-.46-.3-.7-.45-.22-.16-.45-.3-.7-.46-.27-.2-.57-.4-.86-.58-.3-.18-.6-.36-.9-.54-.3-.2-.6-.37-.9-.54-.3-.18-.6-.36-.9-.54-.25-.13-.48-.26-.7-.38-.25-.13-.5-.26-.72-.4-.24-.1-.48-.24-.72-.36s-.48-.25-.72-.37c-.25-.13-.5-.26-.76-.4-.25-.12-.5-.24-.76-.36-.26-.13-.52-.25-.78-.37s-.52-.23-.78-.35c-.04 0-.07-.02-.1-.03-.03 0-.06-.04-.1-.05-.02-.02-.06-.03-.1-.04-.02-.02-.05-.03-.08-.05-.3-.12-.58-.25-.87-.37-.3-.12-.6-.25-.9-.37-.3-.1-.57-.23-.87-.35-.3-.1-.6-.23-.9-.34-.28-.1-.57-.2-.85-.32-.3-.1-.58-.2-.87-.3-.3-.1-.6-.2-.87-.3-.3-.1-.6-.2-.88-.3-.27-.1-.53-.18-.8-.27-.26-.07-.53-.16-.8-.24-.27-.08-.54-.17-.8-.25-.28-.07-.55-.14-.83-.22-.26-.08-.53-.16-.8-.24-.28-.07-.56-.15-.83-.22-.3-.06-.57-.14-.84-.2-.28-.08-.56-.15-.84-.22-.2-.05-.4-.1-.62-.15-.2-.05-.4-.1-.62-.14-.2-.05-.4-.1-.62-.14-.2-.05-.42-.1-.63-.14-.2-.04-1-.17-2.1-.35-1.1-.17-2.5-.4-3.93-.6-1.4-.23-2.84-.44-3.98-.6-1.15-.18-2-.3-2.3-.32.98-2.53 1.96-5.06 2.94-7.6s1.96-5.1 2.94-7.63c.98-2.55 1.97-5.1 2.95-7.67 1-2.56 1.97-5.12 2.96-7.7.98-2.52 1.95-5.05 2.93-7.58.97-2.54 1.95-5.08 2.93-7.63.98-2.54 1.97-5.1 2.95-7.65 1-2.57 1.98-5.13 2.97-7.7.6.06 2.4.32 4.8.7 2.38.35 5.37.82 8.34 1.3 2.98.47 5.9.95 8.24 1.33 2.3.4 4 .7 4.43.8.43.1.87.2 1.3.3.44.1.87.2 1.3.3.44.1.87.2 1.3.3.43.12.86.23 1.3.34.58.15 1.16.3 1.74.45.6.15 1.17.3 1.75.46.57.16 1.15.32 1.72.5.58.15 1.15.32 1.72.5.56.16 1.12.33 1.7.5.56.18 1.12.35 1.7.53.54.18 1.1.36 1.65.55.56.18 1.1.36 1.66.55.63.2 1.24.42 1.85.63.6.22 1.2.44 1.82.66.6.2 1.2.42 1.8.65.6.23 1.2.46 1.8.7.62.24 1.25.5 1.87.74.63.25 1.25.5 1.87.77.6.26 1.24.52 1.85.8.6.26 1.22.53 1.82.8.06.03.12.06.18.08.06.03.12.06.18.1.06 0 .12.04.18.07.07.03.13.05.2.08.54.26 1.1.5 1.62.77.54.25 1.08.5 1.6.77.54.26 1.07.53 1.6.8.52.26 1.05.52 1.57.8.5.25 1 .52 1.5.78.5.27.97.54 1.46.8.5.28.98.55 1.47.83.5.27.97.55 1.45.83.64.37 1.27.74 1.9 1.13.63.4 1.25.78 1.87 1.17.6.4 1.23.78 1.83 1.18.6.4 1.2.8 1.8 1.2.5.32.96.65 1.44.98.46.33.93.66 1.4 1 .46.33.92.67 1.38 1 .45.35.9.7 1.36 1.04 1.5 1.16 2.98 2.35 4.4 3.56 1.44 1.2 2.82 2.45 4.16 3.7 1.33 1.26 2.62 2.55 3.87 3.85 1.23 1.3 2.42 2.63 3.57 3.98-3.16 1.53-6.32 3.06-9.47 4.6-3.15 1.52-6.3 3.05-9.46 4.58-3.15 1.52-6.3 3.05-9.44 4.57-3.14 1.54-6.3 3.06-9.43 4.58-3.2 1.55-6.4 3.1-9.58 4.64-3.2 1.56-6.38 3.1-9.57 4.65-3.17 1.54-6.36 3.08-9.54 4.62-3.18 1.54-6.36 3.1-9.54 4.62"/></clipPath><clipPath><path d="M280.7 371.7h124.85v-82.52H280.7z"/></clipPath><clipPath><path d="M253.06 383.74h161.42V280.6H253.06z"/></clipPath><clipPath><path d="M414.48 327l-102.4-46.4-59.02 58.45 102.15 44.7z"/></clipPath><clipPath><path d="M253.06 383.74h161.42V280.6H253.06z"/></clipPath><clipPath><path d="M253.06 279.74h162v104h-162z"/></clipPath><clipPath><path d="M253.06 383.74h161.42V280.6H253.06z"/></clipPath><clipPath><path d="M280.7 371.7h124.85v-82.52H280.7z"/></clipPath><clipPath><path d="M280.7 371.7h124.85v-82.52H280.7z"/></clipPath><clipPath><path d="M174.45 467.65h148v-94h-148z"/></clipPath><clipPath><path d="M174.45 467.65h148v-94h-148z"/></clipPath><clipPath><path d="M174.45 467.65h148v-94h-148z"/></clipPath><clipPath><path d="M228.1 374.1l-53.65 52.68 93.45 40.87 53.65-52.68z"/></clipPath><clipPath><path d="M174.45 467.65h148v-94h-148z"/></clipPath><clipPath><path d="M182.62 459.82h114.03v-74.58H182.62z"/></clipPath><clipPath><path d="M251.93 385.24c.52.6 6.14 5.74 6.67 6.14.52.4 1.06.8 1.6 1.17.74.52 1.5 1.03 2.3 1.52.77.5 1.57.97 2.4 1.44.9.54 1.84 1.03 2.8 1.5 1.12.57 2.27 1.1 3.45 1.6.96.43 1.95.83 2.97 1.2.97.38 1.95.73 2.95 1.06 1.34.44 2.7.85 4.1 1.23 1.1.3 2.26.6 3.4.84.8.18 11 1.78 12.08 1.87-3.6 9.27-7.2 18.5-10.82 27.76-3.53 9.1-7.08 18.18-10.62 27.27-2.2-.2-23.3-3.5-24.96-3.88-2.4-.54-4.75-1.13-7.07-1.75-2.88-.8-5.7-1.65-8.48-2.56-2.08-.7-4.1-1.4-6.13-2.17-2.1-.8-4.14-1.62-6.15-2.48-2.43-1.07-4.8-2.18-7.13-3.34-2-1-3.93-2.02-5.8-3.1-1.7-.95-3.37-1.94-5-2.97-1.63-1.03-3.2-2.08-4.74-3.16-1.13-.8-2.24-1.6-3.3-2.43-1.1-.8-12.75-11.47-13.83-12.7 11.45-5.6 22.9-11.25 34.35-16.9 11.65-5.7 23.3-11.43 34.96-17.17"/></clipPath><clipPath><path d="M182.62 459.82h114.03v-74.58H182.62z"/></clipPath><clipPath><path d="M182.62 459.82h114.03v-74.58H182.62z"/></clipPath><clipPath><path d="M221.74 446.7c-2.2-.96-4.36-1.98-6.47-3.03-1.98-1-3.92-2.02-5.8-3.1-1.7-.95-3.36-1.94-4.98-2.97-1.65-1.02-3.2-2.07-4.76-3.15-1.13-.8-2.24-1.6-3.3-2.43-1.1-.82-12.75-11.48-13.83-12.7 11.46-5.62 22.9-11.26 34.36-16.9 11.66-5.72 23.3-11.44 34.96-17.18.52.6 6.14 5.74 6.67 6.14.5.4 1.05.8 1.6 1.17.73.52 1.5 1.03 2.3 1.52.76.5 1.56.97 2.4 1.44.9.54 1.83 1.03 2.8 1.5 1 .5 2.03 1 3.1 1.46.1.06.22.1.34.16.97.42 1.95.82 2.97 1.2.98.37 1.96.72 2.96 1.05 1.34.44 2.7.85 4.1 1.23 1.1.3 2.26.6 3.4.85.8.18 11 1.78 12.08 1.87-3.6 9.26-7.2 18.5-10.82 27.75-3.53 9.1-7.08 18.18-10.62 27.27-2.22-.2-23.32-3.5-24.97-3.88-2.4-.54-4.75-1.13-7.07-1.75-2.88-.8-5.7-1.64-8.48-2.55-2.07-.7-4.1-1.4-6.12-2.17-2.1-.8-4.14-1.62-6.15-2.48-.2-.1-.43-.2-.65-.3"/></clipPath><clipPath><path d="M182.62 459.82h114.03v-74.58H182.62z"/></clipPath><clipPath><path d="M174.45 467.65h147.1V374.1h-147.1z"/></clipPath><clipPath><path d="M321.55 414.97L228.1 374.1l-53.65 52.68 93.45 40.87z"/></clipPath><clipPath><path d="M174.45 467.65h147.1V374.1h-147.1z"/></clipPath><clipPath><path d="M174.45 373.65h148v94h-148z"/></clipPath><clipPath><path d="M174.45 467.65h147.1V374.1h-147.1z"/></clipPath><clipPath><path d="M182.62 459.82h114.03v-74.58H182.62z"/></clipPath><clipPath><path d="M182.62 459.82h114.03v-74.58H182.62z"/></clipPath></defs><g clip-path="url(#a)" transform="matrix(.135 0 0 -.135 -21.031 73.302)"><path fill="#800101" fill-rule="evenodd" d="M395.02 394.74c-31.4 0-56.88 25.5-56.88 56.9s25.5 56.9 56.88 56.9c31.4 0 56.9-25.5 56.9-56.9s-25.5-56.9-56.9-56.9"/><path fill="#fff" d="M287.74 286.26c-69.95 0-126.7 38.74-126.7 86.5 0 47.74 56.75 86.48 126.7 86.48 69.94 0 126.7-38.74 126.7-86.5 0-47.74-56.76-86.48-126.7-86.48"/><path fill="none" stroke="#010101" stroke-width="10.087" stroke-miterlimit="10" d="M287.74 286.26c-69.95 0-126.7 38.74-126.7 86.5 0 47.74 56.75 86.48 126.7 86.48 69.94 0 126.7-38.74 126.7-86.5 0-47.74-56.76-86.48-126.7-86.48z" stroke-linejoin="round"/><path fill="#fff" fill-rule="evenodd" d="M287.74 351.1c-19.86 0-35.98 10.96-35.98 24.48s16.12 24.5 35.98 24.5c19.86 0 35.98-10.98 35.98-24.5 0-13.5-16.12-24.48-35.98-24.48"/><path fill="none" stroke="#010101" stroke-width="7.197" stroke-miterlimit="10" d="M287.74 351.1c-19.86 0-35.98 10.96-35.98 24.48s16.12 24.5 35.98 24.5c19.86 0 35.98-10.98 35.98-24.5 0-13.5-16.12-24.48-35.98-24.48z" stroke-linejoin="round"/><path fill="#800101" fill-rule="evenodd" d="M395.02 394.74c-31.4 0-56.88 25.5-56.88 56.9s25.5 56.9 56.88 56.9c31.4 0 56.9-25.5 56.9-56.9s-25.5-56.9-56.9-56.9" clip-path="url(#b)" opacity=".8"/><path fill="none" stroke="#fff" stroke-width="2.89" stroke-miterlimit="10" d="M395.02 394.74c-31.4 0-56.88 25.5-56.88 56.9s25.5 56.9 56.88 56.9c31.4 0 56.9-25.5 56.9-56.9s-25.5-56.9-56.9-56.9z" stroke-linejoin="round"/><path fill="#fff" fill-rule="evenodd" d="M369.84 420.96c-7.23-1.2-13.77 2.5-14.65 8.2-.87 5.68 4.3 11.3 11.54 12.5 7.2 1.2 13.77-2.48 14.62-8.18.85-5.7-4.34-11.3-11.53-12.52"/><path fill="none" stroke="#fff" stroke-width=".75" stroke-miterlimit="10" d="M369.84 420.96c-7.23-1.2-13.77 2.5-14.65 8.2-.87 5.68 4.3 11.3 11.54 12.5 7.2 1.2 13.77-2.48 14.62-8.18.85-5.7-4.34-11.3-11.53-12.52z" stroke-linejoin="round"/><path fill="none" stroke="#fff" stroke-width="7.197" stroke-miterlimit="10" d="M378.25 430.34l.77 45.8 42.24 10.08-.3-46.25" stroke-linejoin="round"/><path fill="#fff" fill-rule="evenodd" d="M413.1 428.4c-7.2-1.2-13.77 2.48-14.62 8.17-.85 5.7 4.33 11.34 11.56 12.53 7.2 1.2 13.76-2.47 14.6-8.16.84-5.7-4.32-11.34-11.54-12.53"/><path fill="none" stroke="#fff" stroke-width=".75" stroke-miterlimit="10" d="M413.1 428.4c-7.2-1.2-13.77 2.48-14.62 8.17-.85 5.7 4.33 11.34 11.56 12.53 7.2 1.2 13.76-2.47 14.6-8.16.84-5.7-4.32-11.34-11.54-12.53z" stroke-linejoin="round"/></g></svg>