<svg xmlns="http://www.w3.org/2000/svg" width="40" height="40"><defs><clipPath id="a"><path d="M0 792h612V0H0z"/></clipPath></defs><g><g><g><g clip-path="url(#a)" transform="matrix(.132 0 0 -.132 -20.348 78.658)"><path fill="#666" d="M398.2 531.7h-12v-13.02h12zm10.63-189h-182.2l-22.8 22.73V547.7h205z"/><path fill="none" stroke="#000" stroke-width="8" d="M398.2 531.7h-12v-13.02h12zm10.63-189h-182.2l-22.8 22.73V547.7h205z" stroke-linejoin="round"/><path fill="#d9d9d9" d="M351 342.83H246.64v77.84H351z"/><path fill="none" stroke="#000" stroke-width="8" d="M351 342.83H246.64v77.84H351z" stroke-linejoin="round"/><path fill="#3f3f3f" d="M271.07 360.08h20.16v43.9h-20.16z"/><path d="M275.07 399.98h12.16v-35.9h-12.16zm20.16 8h-28.16v-51.9h28.16v8z"/><path fill="#f2f2f2" d="M375.5 441.8H227.5V546.6H375.5z"/><path fill="none" stroke="#000" stroke-width="8" d="M375.5 441.8H227.5V546.6H375.5z" stroke-linejoin="round"/></g></g></g></g></svg>