<svg xmlns="http://www.w3.org/2000/svg" width="40" height="40"><defs><clipPath id="a"><path d="M0 792h612V0H0z"/></clipPath><clipPath id="b"><path d="M231.78 539.85h80.84v-234.4h-80.84z"/></clipPath><linearGradient id="c" x2="1" gradientUnits="userSpaceOnUse" gradientTransform="matrix(.522 -100.193 -100.193 -.522 271.539 474.959)"><stop offset="0" stop-color="#e7e7e8"/><stop offset="1" stop-color="#9d9fa1"/></linearGradient><clipPath id="d"><path d="M289.63 539.85h37.52V306.03h-37.52z"/></clipPath><linearGradient id="e" x2="1" gradientUnits="userSpaceOnUse" gradientTransform="matrix(-112.553 94.443 94.443 112.553 364.66 375.721)"><stop offset="0" stop-color="#c0c2c4"/><stop offset="1" stop-color="#636466"/></linearGradient><linearGradient id="f" x2="1" gradientUnits="userSpaceOnUse" gradientTransform="matrix(0 -78.389 -78.389 0 209.941 462.882)"><stop offset="0" stop-color="#e7e7e8"/><stop offset="1" stop-color="#9d9fa1"/></linearGradient><clipPath id="g"><path d="M297.63 422.94c0 60.14 6.06 99.96 10.76 107.97 4.68-8 10.75-47.82 10.75-107.96 0-60.14-6.07-99.96-10.76-107.96-4.7 8-10.77 47.82-10.77 107.96"/></clipPath><linearGradient id="h" x2="1" gradientUnits="userSpaceOnUse" gradientTransform="matrix(0 -88.712 -88.712 0 292.751 472.844)"><stop offset="0" stop-color="#a7a9ac"/><stop offset="1" stop-color="#231f20"/></linearGradient><clipPath id="i"><path d="M351.63 545.9H465.4V432.1H351.63z"/></clipPath></defs><g><g><g clip-path="url(#a)" transform="matrix(.14 0 0 -.14 -25.337 79.719)"><path fill="#800101" fill-rule="evenodd" d="M408.52 432.1c-31.4 0-56.9 25.5-56.9 56.9s25.5 56.9 56.9 56.9 56.88-25.5 56.88-56.9-25.5-56.9-56.88-56.9"/><path fill="none" stroke="#fff" stroke-width="2.89" stroke-miterlimit="10" d="M408.52 432.1c-31.4 0-56.9 25.5-56.9 56.9s25.5 56.9 56.9 56.9 56.88-25.5 56.88-56.9-25.5-56.9-56.88-56.9z" stroke-linejoin="round"/><text fill="#fff" transform="matrix(1 0 0 -1 375.707 455.804)" style="-inkscape-font-specification:Helvetica-Bold" font-weight="bold" font-size="123.474" font-family="Helvetica"><tspan x="0" y="0">e</tspan></text><g><g><g clip-path="url(#b)"><g><g><g><g><path fill="url(#c)" d="M234.6 383.47l74.03-74.02v226.4l-74.02-74"/></g></g></g></g><path fill="none" stroke="#000" stroke-width="8" d="M234.6 383.47l74.03-74.02v226.4l-74.02-74" stroke-linejoin="round"/></g></g></g><path fill="none" stroke="#000" stroke-width="10" d="M368.4 491.44c14.84-16.82 23.86-38.9 23.86-63.1 0-24.2-9.02-46.26-23.86-63.1" stroke-linecap="round" stroke-linejoin="round"/><path fill="none" stroke="#000" stroke-width="10" d="M396.65 340.34c20.7 23.46 33.26 54.27 33.26 88 0 33.74-12.54 64.52-33.2 87.98" stroke-linecap="round" stroke-linejoin="round"/><path fill="none" stroke="#000" stroke-width="10" d="M368.4 365.25c14.84 16.83 23.86 38.9 23.86 63.1 0 24.2-9.02 46.27-23.85 63.1" stroke-linecap="round" stroke-linejoin="round"/><path fill="none" stroke="#000" stroke-width="10" d="M342.18 468.35c9.4-10.66 15.12-24.66 15.12-40 0-15.33-5.72-29.32-15.12-40" stroke-linecap="round" stroke-linejoin="round"/><g><g><g clip-path="url(#d)"><g><g><g><g><path fill="url(#e)" d="M323.14 422.94c0-62.36-6.6-112.9-14.76-112.9-8.15 0-14.76 50.54-14.76 112.9 0 62.36 6.6 112.9 14.76 112.9s14.76-50.54 14.76-112.9"/></g></g></g></g><path fill="none" stroke="#000" stroke-width="8" d="M323.14 422.94c0-62.36-6.6-112.9-14.76-112.9-8.15 0-14.76 50.54-14.76 112.9 0 62.36 6.6 112.9 14.76 112.9s14.76-50.54 14.76-112.9z"/></g></g></g><g><g><g><g><path fill="url(#f)" d="M190 384.5h45.06c-2.9 0-5.24 17.54-5.24 39.18 0 21.63 2.35 39.17 5.24 39.17l.02.03H190h.04c-2.9 0-5.24-17.55-5.24-39.2 0-21.64 2.34-39.2 5.24-39.2z"/></g></g></g></g><path fill="none" stroke="#000" stroke-width="8" d="M190 384.5h45.06c-2.9 0-5.24 17.54-5.24 39.18 0 21.63 2.35 39.17 5.24 39.17l.02.03H190h.04c-2.9 0-5.24-17.55-5.24-39.2 0-21.64 2.34-39.2 5.24-39.2z" stroke-linecap="round" stroke-linejoin="round"/><g><g clip-path="url(#g)"><g><g><g><g><path fill="url(#h)" d="M305.04 428.5c0-24.5-5.5-44.37-12.3-44.37-6.77 0-12.27 19.86-12.27 44.36s5.5 44.34 12.28 44.34c6.8 0 12.3-19.85 12.3-44.35"/></g></g></g></g><path fill="none" stroke="#000" stroke-width="4" d="M305.04 428.5c0-24.5-5.5-44.37-12.3-44.37-6.77 0-12.27 19.86-12.27 44.36s5.5 44.34 12.28 44.34c6.8 0 12.3-19.85 12.3-44.35z"/></g></g><g><g><g clip-path="url(#i)" opacity=".6"><path fill="#800101" fill-rule="evenodd" d="M408.52 432.1c-31.4 0-56.9 25.5-56.9 56.9s25.5 56.9 56.9 56.9 56.88-25.5 56.88-56.9-25.5-56.9-56.88-56.9"/></g></g></g><path fill="none" stroke="#fff" stroke-width="2.89" stroke-miterlimit="10" d="M408.52 432.1c-31.4 0-56.9 25.5-56.9 56.9s25.5 56.9 56.9 56.9 56.88-25.5 56.88-56.9-25.5-56.9-56.88-56.9z" stroke-linejoin="round"/><text fill="#fff" transform="matrix(1 0 0 -1 375.707 455.805)" style="-inkscape-font-specification:Helvetica-Bold" font-weight="bold" font-size="123.474" font-family="Helvetica"><tspan x="0" y="0">e</tspan></text></g></g></g></svg>