<svg xmlns="http://www.w3.org/2000/svg" width="40" height="40"><defs><clipPath id="a"><path d="M0 792h612V0H0z"/></clipPath><clipPath id="b"><path d="M183.16 455.44h29V321.1h-29z"/></clipPath><clipPath id="c"><path d="M205.16 375.1H434.5v-54.33H205.16z"/></clipPath><clipPath id="d"><path d="M288.83 482.44h62.33V331.77h-62.33z"/></clipPath><linearGradient id="e" x2="1" gradientUnits="userSpaceOnUse" gradientTransform="matrix(-33.947 -9.096 -9.096 33.947 338.348 412.093)"><stop offset="0" stop-color="#fff"/><stop offset="1" stop-color="#231f20"/></linearGradient><clipPath id="f"><path d="M191.5 479.78h76V332.44h-76z"/></clipPath><linearGradient id="g" x2="1" gradientUnits="userSpaceOnUse" gradientTransform="matrix(-57.981 -15.536 -15.536 57.981 252.487 413.877)"><stop offset="0" stop-color="#fff"/><stop offset="1" stop-color="#231f20"/></linearGradient><clipPath id="h"><path d="M344.37 505.8h113.78V391.98H344.37z"/></clipPath></defs><g><g><g clip-path="url(#a)" transform="matrix(.137 0 0 -.137 -23.461 76.243)"><path fill="#800101" fill-rule="evenodd" d="M401.26 391.98c-31.4 0-56.9 25.5-56.9 56.9s25.5 56.92 56.9 56.92 56.9-25.5 56.9-56.9-25.5-56.92-56.9-56.92"/><path fill="none" stroke="#fff" stroke-width="2.89" stroke-miterlimit="10" d="M401.26 391.98c-31.4 0-56.9 25.5-56.9 56.9s25.5 56.92 56.9 56.92 56.9-25.5 56.9-56.9-25.5-56.92-56.9-56.92z" stroke-linejoin="round"/><text fill="#fff" transform="matrix(1 0 0 -1 368.447 415.691)" style="-inkscape-font-specification:Helvetica-Bold" font-weight="bold" font-size="123.474" font-family="Helvetica"><tspan x="0" y="0">e</tspan></text><path fill="#3f3f3f" d="M300.63 314.67H197L173.68 462.1h91.89z"/><path fill="none" stroke="#000" stroke-width="8" d="M300.63 314.67H197L173.68 462.1h91.89z" stroke-linecap="round" stroke-linejoin="round"/><path fill="#3f3f3f" d="M344.7 314.67s-8.07-4-22.8-4c-14.74 0-20.7 4-20.7 4L266.16 462.1s3.74-2 20.64-2 22.83 2 22.83 2z"/><path fill="none" stroke="#000" stroke-width="8" d="M344.7 314.67s-8.07-4-22.8-4c-14.74 0-20.7 4-20.7 4L266.16 462.1s3.74-2 20.64-2 22.83 2 22.83 2z" stroke-linecap="round" stroke-linejoin="round"/><path fill="#3f3f3f" d="M446.95 314.67H344.3L309.25 462.1h90.9z"/><path fill="none" stroke="#000" stroke-width="8" d="M446.95 314.67H344.3L309.25 462.1h90.9z" stroke-linecap="round" stroke-linejoin="round"/><path fill="#fff" d="M342.7 321.07h-43.34s-12.13 5.2-25.57 5.2-70.08-6.5-70.08-6.5l-21.37 136.1c20.8 7.24 34.98 27.07 71.64 27.3 27.3.16 34.1-23.4 34.1-23.4s6.02 21.15 35.43 22.96c38.63 2.38 44.63-17.62 69.18-22.1l44.18-139.56s-52.57 6.07-62.98 6.07c-10.4 0-31.2-6.07-31.2-6.07"/><path fill="none" stroke="#000" stroke-width="5" d="M342.7 321.07h-43.34s-12.13 5.2-25.57 5.2-70.08-6.5-70.08-6.5l-21.37 136.1c20.8 7.24 34.98 27.07 71.64 27.3 27.3.16 34.1-23.4 34.1-23.4s6.02 21.15 35.43 22.96c38.63 2.38 44.63-17.62 69.18-22.1l44.18-139.56s-52.57 6.07-62.98 6.07c-10.4 0-31.2-6.07-31.2-6.07z" stroke-linecap="round" stroke-linejoin="round"/><g><g><g clip-path="url(#b)"><path fill="#ccc" d="M183.16 455.44l7-1 22-122-7-11.33z"/></g></g></g><g><g><g clip-path="url(#c)"><path fill="#ccc" d="M205.16 321.1l12 21 82.67 33 21.33-13.33 25.67 12.67 49-14.67 29.45-28.33 9.22-9.33-63.67 5-26-6-45.67-.33-21.33 6.34z"/></g></g></g><path fill="#fff" d="M192.33 453.44l19.5-122.5c23.34 7.13 31.67 29.14 78 29.14 29.47 0 32.94-29.9 32.94-29.9s4.75 27.73 32.87 27.73c40.2 0 49.2-19.46 68.64-26.12l-37.8 124.5"/><path fill="none" stroke="#000" stroke-width="4" d="M192.33 453.44l19.5-122.5c23.34 7.13 31.67 29.14 78 29.14 29.47 0 32.94-29.9 32.94-29.9s4.75 27.73 32.87 27.73c40.2 0 49.2-19.46 68.64-26.12l-37.8 124.5" stroke-linecap="round" stroke-linejoin="round"/><path fill="none" stroke="#000" stroke-width="5" d="M288.1 459.76l34.67-128.72" stroke-linecap="round" stroke-linejoin="round"/><g><g><g clip-path="url(#d)" opacity=".29"><g><g><g><g><path fill="url(#e)" d="M323.5 331.77L288.83 461.1s8.67 20.68 30.67 21.34l31.66-124.33c-24.66-1.32-27.66-26.32-27.66-26.32"/></g></g></g></g></g></g></g><path fill="#8c8c8c" d="M310.16 335.88s-3.66 14.9-15.17 15.2c-18.64.5-26.84-2.97-46.84-10.64 0 0 33.72 6.84 43.34 5.67 13.66-1.66 17.8-8.9 17.8-8.9"/><path fill="#8c8c8c" d="M336.13 337.4s6.06 10.4 16.03 11.7c15.34 2 30.47-7.7 40-9 0 0-33.44 5.33-38.8 4.14-9-2-17.23-6.83-17.23-6.83"/><path fill="#8c8c8c" d="M304.16 330.1s-1.86 8.7-8.33 9.67c-17.67 2.67-51-7-51-7s35.67 5.34 48.33 2.67c6.34-1.33 11-5.33 11-5.33"/><path fill="#8c8c8c" d="M341.83 330.44s3.6 7.48 9.67 8c19.33 1.67 47-5.33 47-5.33s-33.67 3-48 1c-4.8-.66-8.67-3.66-8.67-3.66"/><g><g><g clip-path="url(#f)" opacity=".19"><g><g><g><g><path fill="url(#g)" d="M212.16 332.44l-20.66 126 17.66 9.67 25.67 11.68 32.67-122-25-11-16.34-10.34z"/></g></g></g></g></g></g></g><g><g><g clip-path="url(#h)" opacity=".78"><path fill="#800101" fill-rule="evenodd" d="M401.26 391.98c-31.4 0-56.9 25.5-56.9 56.9s25.5 56.92 56.9 56.92 56.9-25.5 56.9-56.9-25.5-56.92-56.9-56.92"/></g></g></g><path fill="none" stroke="#fff" stroke-width="2.89" stroke-miterlimit="10" d="M401.26 391.98c-31.4 0-56.9 25.5-56.9 56.9s25.5 56.92 56.9 56.92 56.9-25.5 56.9-56.9-25.5-56.92-56.9-56.92z" stroke-linejoin="round"/><text fill="#fff" transform="matrix(1 0 0 -1 368.447 415.691)" style="-inkscape-font-specification:Helvetica-Bold" font-weight="bold" font-size="123.474" font-family="Helvetica"><tspan x="0" y="0">e</tspan></text></g></g></g></svg>