<svg xmlns="http://www.w3.org/2000/svg" width="40" height="40"><defs><clipPath id="a"><path d="M0 792h612V0H0z"/></clipPath><clipPath id="b"><path d="M248.82 560.6h39.9V421.2h-39.9z"/></clipPath><linearGradient id="c" x2="1" gradientUnits="userSpaceOnUse" gradientTransform="matrix(-60.376 104.574 104.574 60.376 310.078 433.505)"><stop offset="0" stop-color="#a3a5a8"/><stop offset="1" stop-color="#231f20"/></linearGradient><clipPath id="d"><path d="M338.88 651.54h113.77v-113.8H338.88z"/></clipPath></defs><g><g><g clip-path="url(#a)" transform="matrix(.132 0 0 -.132 -20.246 90.986)"><path fill="#800101" fill-rule="evenodd" d="M395.76 537.73c-31.4 0-56.88 25.5-56.88 56.9s25.5 56.9 56.88 56.9c31.4 0 56.9-25.5 56.9-56.9s-25.5-56.9-56.9-56.9"/><path fill="none" stroke="#fff" stroke-width="2.89" stroke-miterlimit="10" d="M395.76 537.73c-31.4 0-56.88 25.5-56.88 56.9s25.5 56.9 56.88 56.9c31.4 0 56.9-25.5 56.9-56.9s-25.5-56.9-56.9-56.9z" stroke-linejoin="round"/><text fill="#fff" transform="matrix(1 0 0 -1 362.951 561.433)" style="-inkscape-font-specification:Helvetica-Bold" font-weight="bold" font-size="123.474" font-family="Helvetica"><tspan x="0" y="0">e</tspan></text><path fill="none" stroke="#000" stroke-width="6" d="M231.14 462.1l59.53-42.8v153.45l-59.53 32.62z" stroke-linejoin="round"/><path fill="#e3e3e3" d="M326.73 420.02h-36.06V573.1h36.06z"/><path fill="none" stroke="#000" stroke-width="8" d="M326.73 420.02h-36.06V573.1h36.06z" stroke-linejoin="round"/><path fill="#e3e3e3" d="M362.06 420.02H326V573.1h36.06z"/><path fill="none" stroke="#000" stroke-width="8" d="M362.06 420.02H326V573.1h36.06z" stroke-linejoin="round"/><path fill="#e3e3e3" d="M397.4 420.02h-36.06V573.1h36.06z"/><path fill="none" stroke="#000" stroke-width="8" d="M397.4 420.02h-36.06V573.1h36.06z" stroke-linejoin="round"/><path fill="#e6e6e6" d="M238.6 420.02l-34.22 11.36 48.2 145.3 34.2-11.36z"/><path fill="none" stroke="#000" stroke-width="8" d="M238.6 420.02l-34.22 11.36 48.2 145.3 34.2-11.36z" stroke-linejoin="round"/><path fill="none" stroke="#000" stroke-width="6" d="M328.88 572.93h-36.05l-60.03 31.7h36.05z" stroke-linejoin="round"/><path fill="none" stroke="#000" stroke-width="6" d="M364.22 572.93h-36.06l-60.03 31.7h36.06z" stroke-linejoin="round"/><path fill="none" stroke="#000" stroke-width="6" d="M399.55 572.93H363.5l-60.04 31.7h33.4z" stroke-linejoin="round"/><path fill="#b2b2b2" d="M204.66 431.84l-48.3 36.83L201.1 605.2l51.75-28.06z"/><path fill="none" stroke="#000" stroke-width="8" d="M204.66 431.84l-48.3 36.83L201.1 605.2l51.75-28.06z" stroke-linejoin="round"/><path fill="#fff" d="M286.8 565.32l-33.95 11.82-51.77 28.05 29.55-8.72z"/><path fill="none" stroke="#000" stroke-width="5" d="M286.8 565.32l-33.95 11.82-51.77 28.05 29.55-8.72z" stroke-linejoin="round"/><g><g><g clip-path="url(#b)"><g><g><g><g><path fill="url(#c)" d="M288.73 560.6V421.2l-39.9 28.3z"/></g></g></g></g></g></g></g><g><g><g clip-path="url(#d)" opacity=".6"><path fill="#800101" fill-rule="evenodd" d="M395.76 537.73c-31.4 0-56.88 25.5-56.88 56.9s25.5 56.9 56.88 56.9c31.4 0 56.9-25.5 56.9-56.9s-25.5-56.9-56.9-56.9"/></g></g></g><path fill="none" stroke="#fff" stroke-width="2.89" stroke-miterlimit="10" d="M395.76 537.73c-31.4 0-56.88 25.5-56.88 56.9s25.5 56.9 56.88 56.9c31.4 0 56.9-25.5 56.9-56.9s-25.5-56.9-56.9-56.9z" stroke-linejoin="round"/><text fill="#fff" transform="matrix(1 0 0 -1 362.951 561.433)" style="-inkscape-font-specification:Helvetica-Bold" font-weight="bold" font-size="123.474" font-family="Helvetica"><tspan x="0" y="0">e</tspan></text></g></g></g></svg>