<svg xmlns="http://www.w3.org/2000/svg" width="40" height="40" viewBox="0 0 39.999996 40"><defs><clipPath id="a"><path d="M0 792h612V0H0z"/></clipPath><clipPath id="b"><path d="M383.15 509.3l40.45 71.78 23.94-26.2z"/></clipPath><clipPath id="c"><path d="M238.02 509.3l-40.46-71.8-23.93 26.2z"/></clipPath><clipPath><path d="M344.37 505.8h113.78V391.98H344.37z"/></clipPath><clipPath id="d"><path d="M344.37 505.8h113.78V391.98H344.37z"/></clipPath></defs><g><g><g><path fill="#800101" fill-rule="evenodd" d="M33.1 20.66c-3.6 0-6.55-2.94-6.55-6.57 0-3.63 2.94-6.57 6.56-6.57 3.63 0 6.57 2.94 6.57 6.56 0 3.62-2.94 6.56-6.56 6.56"/><text x="190.249" y="-322.57" fill="#fff" transform="matrix(1.116 0 0 1.116 -182.803 377.593)" style="-inkscape-font-specification:Helvetica-Bold" font-weight="bold" font-size="12.777" font-family="Helvetica"><tspan x="190.249" y="-322.57">e</tspan></text></g><g><g clip-path="url(#a)" transform="matrix(.112 0 0 -.112 -17.454 79.428)"><path fill="#ccc" d="M165.47 442.37h281.5v124.8h-281.5z"/><path d="M420.47 509.3c0-20.63-16.7-37.34-37.32-37.34s-37.33 16.7-37.33 37.33c0 20.6 16.7 37.3 37.33 37.3 20.6 0 37.32-16.7 37.32-37.3"/><path fill="#f2f2f2" d="M406.5 509.3c0-12.92-10.45-23.38-23.35-23.38-12.9 0-23.37 10.46-23.37 23.37 0 12.9 10.46 23.35 23.37 23.35 12.9 0 23.36-10.46 23.36-23.36"/><path fill="none" stroke="#000" stroke-width="4" d="M418.36 511l-3.68 41.6" stroke-linecap="round"/><g><g fill="none" stroke="#e6e6e6" clip-path="url(#b)"><path d="M353.52 509.3c0 16.35 13.26 29.62 29.63 29.62 16.36 0 29.63-13.27 29.63-29.63 0-16.38-13.27-29.65-29.63-29.65-16.37 0-29.63 13.27-29.63 29.64z"/><path d="M348.96 509.3c0 18.87 15.3 34.17 34.2 34.17 18.87 0 34.18-15.3 34.18-34.18 0-18.9-15.3-34.2-34.2-34.2-18.87 0-34.18 15.3-34.18 34.19z"/></g></g><path d="M300.52 509.03c0-35.24-28.57-63.82-63.82-63.82s-63.82 28.6-63.82 63.83c0 35.25 28.57 63.83 63.82 63.83s63.82-28.58 63.82-63.83"/><path fill="#f2f2f2" d="M261.38 509.3c0-12.92-10.46-23.38-23.36-23.38-12.9 0-23.37 10.46-23.37 23.37 0 12.9 10.46 23.35 23.37 23.35 12.9 0 23.36-10.46 23.36-23.36"/><path fill="#d9d9ff" d="M377.54 463.04h-133.9v90.6h133.9z"/><path fill="none" stroke="#000" stroke-width="4" d="M377.54 463.04h-133.9v90.6h133.9z" stroke-linecap="round" stroke-linejoin="round"/><g><g fill="none" clip-path="url(#c)"><path stroke="#e6e6e6" d="M267.65 509.3c0-16.38-13.27-29.65-29.63-29.65-16.37 0-29.63 13.27-29.63 29.64 0 16.35 13.25 29.62 29.62 29.62 16.36 0 29.63-13.27 29.63-29.64z"/><path stroke="#e6e6e6" d="M272.2 509.3c0-18.9-15.3-34.2-34.18-34.2s-34.2 15.3-34.2 34.19c0 18.87 15.32 34.17 34.2 34.17 18.88 0 34.2-15.3 34.2-34.18z"/><path stroke="#e6e6e6" d="M276.76 509.3c0-21.42-17.34-38.76-38.74-38.76-21.4 0-38.75 17.34-38.75 38.74 0 21.4 17.35 38.75 38.75 38.75s38.74-17.34 38.74-38.74z"/><path stroke="#e6e6e6" d="M281.32 509.3c0-23.93-19.4-43.32-43.3-43.32-23.92 0-43.3 19.4-43.3 43.3 0 23.92 19.38 43.3 43.3 43.3 23.9 0 43.3-19.38 43.3-43.3z"/><path stroke="#e6e6e6" d="M286.45 509.3c0-26.77-21.68-48.45-48.43-48.45s-48.44 21.68-48.44 48.44c0 26.74 21.7 48.42 48.44 48.42 26.75 0 48.43-21.68 48.43-48.44z"/><path stroke="#e6e6e6" d="M291.58 509.3c0-29.6-23.98-53.58-53.56-53.58-29.58 0-53.57 23.98-53.57 53.56 0 29.6 24 53.57 53.57 53.57 29.58 0 53.56-23.98 53.56-53.56z"/><path stroke="#e6e6e6" d="M296.7 509.3c0-32.43-26.27-58.7-58.68-58.7-32.42 0-58.7 26.27-58.7 58.7 0 32.4 26.28 58.68 58.7 58.68 32.4 0 58.7-26.28 58.7-58.7z"/><path stroke="#e6e6e6" d="M301.27 509.3c0-34.95-28.32-63.27-63.25-63.27-34.94 0-63.25 28.32-63.25 63.26 0 34.92 28.3 63.24 63.25 63.24 34.93 0 63.25-28.32 63.25-63.25z"/><path stroke="#b2b2b2" d="M306.4 509.3c0-37.78-30.62-68.4-68.38-68.4-37.77 0-68.38 30.62-68.38 68.4 0 37.75 30.6 68.36 68.38 68.36 37.76 0 68.38-30.6 68.38-68.37z"/></g></g><path fill="#666" d="M432.15 552.96h-249.7s-15.6-16.44-15.6-44.93c0-28.5 15.6-44.53 15.6-44.53h249.7s12.2 21.74 12.2 46.8c0 25.08-12.2 42.66-12.2 42.66M451.95 435c0-7.92-6.47-14.4-14.4-14.4H175.18c-7.92 0-14.4 6.48-14.4 14.4v151.26c0 7.92 6.48 14.4 14.4 14.4h262.4c7.9 0 14.4-6.48 14.4-14.4z"/><path fill="none" stroke="#000" stroke-width="9" d="M432.15 552.96h-249.7s-15.6-16.44-15.6-44.93c0-28.5 15.6-44.53 15.6-44.53h249.7s12.2 21.74 12.2 46.8c0 25.08-12.2 42.66-12.2 42.66zM451.95 435c0-7.92-6.47-14.4-14.4-14.4H175.18c-7.92 0-14.4 6.48-14.4 14.4v151.26c0 7.92 6.48 14.4 14.4 14.4h262.4c7.9 0 14.4-6.48 14.4-14.4z" stroke-linecap="round" stroke-linejoin="round"/><path fill="#3f3f3f" d="M452.27 584.5H161.1v15.96h291.17z"/><path fill="none" stroke="#000" stroke-width="9" d="M452.27 584.5H161.1v15.96h291.17z" stroke-linecap="round" stroke-linejoin="round"/></g></g><g><g clip-path="url(#d)" transform="matrix(.115 0 0 -.115 -13.035 65.611)" opacity=".78"><path fill="#800101" fill-rule="evenodd" d="M401.26 391.98c-31.4 0-56.9 25.5-56.9 56.9s25.5 56.92 56.9 56.92 56.9-25.5 56.9-56.9-25.5-56.92-56.9-56.92"/></g><path fill="none" stroke="#fff" stroke-width=".33189" stroke-miterlimit="10" d="M33.1 20.66c-3.6 0-6.55-2.94-6.55-6.57 0-3.63 2.94-6.57 6.56-6.57 3.63 0 6.57 2.94 6.57 6.56 0 3.62-2.94 6.56-6.56 6.56z" stroke-linejoin="round"/><text x="190.249" y="-322.57" fill="#fff" transform="matrix(1.116 0 0 1.116 -182.803 377.593)" style="-inkscape-font-specification:Helvetica-Bold" font-weight="bold" font-size="12.777" font-family="Helvetica"><tspan x="190.249" y="-322.57">e</tspan></text></g></g></g></svg>