<svg xmlns="http://www.w3.org/2000/svg" width="40" height="40"><defs><clipPath id="a" clipPathUnits="userSpaceOnUse"><path d="M183.16 455.44h29V321.11h-29z"/></clipPath><clipPath id="b" clipPathUnits="userSpaceOnUse"><path d="M205.16 375.1H434.5v-54.33H205.16z"/></clipPath><clipPath id="c" clipPathUnits="userSpaceOnUse"><path d="M288.83 482.44h62.33V331.77h-62.33z"/></clipPath><clipPath id="e" clipPathUnits="userSpaceOnUse"><path d="M191.5 479.78h76V332.44h-76z"/></clipPath><clipPath id="g" clipPathUnits="userSpaceOnUse"><path d="M344.37 505.8h113.78V391.98H344.37z"/></clipPath><linearGradient id="d" x1="0" x2="1" y1="0" y2="0" gradientTransform="scale(-35.14453 35.14453) rotate(-15 39.719 42.426)" gradientUnits="userSpaceOnUse" spreadMethod="pad"><stop offset="0" stop-color="#fff"/><stop offset="1" stop-color="#231f20"/></linearGradient><linearGradient id="f" x1="0" x2="1" y1="0" y2="0" gradientTransform="scale(-60.02686 60.02686) rotate(-15 24.083 19.422)" gradientUnits="userSpaceOnUse" spreadMethod="pad"><stop offset="0" stop-color="#fff"/><stop offset="1" stop-color="#231f20"/></linearGradient></defs><path fill="#800101" fill-rule="evenodd" d="M31.95 22.07a7.86 7.86 0 11.01-15.71 7.86 7.86 0 010 15.7"/><path fill="none" stroke="#fff" stroke-linejoin="round" stroke-miterlimit="10" stroke-width=".39866566999999997" d="M31.95 22.07a7.86 7.86 0 11.01-15.71 7.86 7.86 0 010 15.7z"/><text x="201.357" y="-322.608" fill="#fff" stroke-width=".103" font-family="Helvetica" font-size="12.777" font-weight="700" style="-inkscape-font-specification:Helvetica-Bold" transform="matrix(1.33333 0 0 1.33333 -226.24 448.888)"><tspan x="201.357" y="-322.608">e</tspan></text><path fill="#3f3f3f" d="M18.07 32.73H3.77L.55 12.4h12.68z"/><path fill="none" stroke="#000" stroke-linecap="round" stroke-linejoin="round" stroke-width="1.1039972399999998" d="M18.07 32.73H3.77L.55 12.4h12.68z"/><path fill="#3f3f3f" d="M24.15 32.73s-1.11.56-3.15.56c-2.03 0-2.85-.56-2.85-.56L13.3 12.4s.52.28 2.85.28 3.15-.28 3.15-.28z"/><path fill="none" stroke="#000" stroke-linecap="round" stroke-linejoin="round" stroke-width="1.1039972399999998" d="M24.15 32.73s-1.11.56-3.15.56c-2.03 0-2.85-.56-2.85-.56L13.3 12.4s.52.28 2.85.28 3.15-.28 3.15-.28z"/><path fill="#3f3f3f" d="M38.26 32.73H24.09L19.26 12.4H31.8z"/><path fill="none" stroke="#000" stroke-linecap="round" stroke-linejoin="round" stroke-width="1.1039972399999998" d="M38.26 32.73H24.09L19.26 12.4H31.8z"/><path fill="#fff" d="M23.87 31.85H17.9s-1.67-.72-3.53-.72c-1.85 0-9.66.9-9.66.9L1.75 13.25c2.87-1 4.82-3.73 9.88-3.76a4.76 4.76 0 014.7 3.22s.84-2.91 4.9-3.17c5.33-.32 6.16 2.44 9.54 3.05l6.1 19.26S29.6 31 28.17 31c-1.43 0-4.3.84-4.3.84"/><path fill="none" stroke="#000" stroke-linecap="round" stroke-linejoin="round" stroke-width=".68933161" d="M23.87 31.85H17.9s-1.67-.72-3.53-.72c-1.85 0-9.66.9-9.66.9L1.75 13.25c2.87-1 4.82-3.73 9.88-3.76a4.76 4.76 0 014.7 3.22s.84-2.91 4.9-3.17c5.33-.32 6.16 2.44 9.54 3.05l6.1 19.26S29.6 31 28.17 31c-1.43 0-4.3.84-4.3.84z"/><g clip-path="url(#a)" transform="matrix(.13797 0 0 -.13797 -23.411 76.149)"><path fill="#ccc" d="M183.16 455.44l7-1 22-122-7-11.33z"/></g><g clip-path="url(#b)" transform="matrix(.13797 0 0 -.13797 -23.411 76.149)"><path fill="#ccc" d="M205.16 321.1l12 21 82.67 33 21.33-13.33 25.67 12.67 49-14.67 29.45-28.33 9.22-9.33-63.67 5-26-6-45.67-.34-21.33 6.34z"/></g><path fill="#fff" d="M3.13 13.59l2.69 16.9c3.22-.99 4.36-4.02 10.76-4.02 4.06 0 4.54 4.12 4.54 4.12s.66-3.82 4.54-3.82c5.54 0 6.78 2.68 9.47 3.6L29.9 13.2"/><path fill="none" stroke="#000" stroke-linecap="round" stroke-linejoin="round" stroke-width=".5519986199999999" d="M3.13 13.59l2.69 16.9c3.22-.99 4.36-4.02 10.76-4.02 4.06 0 4.54 4.12 4.54 4.12s.66-3.82 4.54-3.82c5.54 0 6.78 2.68 9.47 3.6L29.9 13.2"/><path fill="none" stroke="#000" stroke-linecap="round" stroke-linejoin="round" stroke-width=".68933161" d="M16.34 12.71l4.78 17.76"/><g clip-path="url(#c)" opacity=".29" transform="matrix(.13797 0 0 -.13797 -23.411 76.149)"><path fill="url(#d)" d="M323.5 331.77l-34.67 129.34s8.67 20.67 30.67 21.33l31.66-124.33c-24.66-1.33-27.66-26.33-27.66-26.33"/></g><path fill="#8c8c8c" d="M19.38 29.8s-.5-2.05-2.09-2.1c-2.57-.06-3.7.42-6.46 1.48 0 0 4.65-.95 5.98-.79 1.88.23 2.45 1.23 2.45 1.23M22.97 29.6s.83-1.44 2.2-1.62c2.12-.27 4.21 1.06 5.53 1.24 0 0-4.62-.73-5.36-.57-1.24.28-2.37.95-2.37.95"/><path fill="#8c8c8c" d="M18.56 30.6s-.26-1.2-1.15-1.33c-2.44-.37-7.04.96-7.04.96s4.92-.73 6.67-.36a3.8 3.8 0 011.52.73M23.75 30.56s.5-1.04 1.34-1.1c2.66-.24 6.48.73 6.48.73s-4.64-.42-6.62-.14c-.67.1-1.2.5-1.2.5"/><g clip-path="url(#e)" opacity=".19" transform="matrix(.13797 0 0 -.13797 -23.411 76.149)"><path fill="url(#f)" d="M212.16 332.44l-20.66 126 17.66 9.67 25.67 11.67 32.67-122-25-11-16.34-10.34z"/></g><path fill="none" stroke="#fff" stroke-linejoin="round" stroke-miterlimit="10" stroke-width=".39866566999999997" d="M31.95 22.07a7.86 7.86 0 11.01-15.71 7.86 7.86 0 010 15.7z"/><g><g clip-path="url(#g)" opacity=".78" transform="matrix(.13797 0 0 -.13797 -23.411 76.149)"><path fill="#800101" fill-rule="evenodd" d="M401.26 391.98a56.93 56.93 0 00-56.89 56.91c0 31.4 25.5 56.9 56.89 56.9a56.93 56.93 0 0056.89-56.9c0-31.4-25.5-56.9-56.9-56.9"/></g></g><g transform="matrix(1.33333 0 0 -1.33333 -294.553 436.014)"><circle cx="212.045" cy="-317.483" r="3.49" fill="none" stroke="#fff" stroke-width=".227" transform="scale(1 -1)"/><g fill="#fff" transform="matrix(1 0 0 -1 .003 0)"><circle cx="210.867" cy="-316.976" r=".382"/><circle cx="213.216" cy="-316.976" r=".382"/></g><path fill="#fff" stroke="#fff" stroke-linejoin="round" stroke-width=".227" d="M210.85 315.87a1.2 1.2 0 011.2-1.18 1.2 1.2 0 011.2 1.18z"/><g fill="#fff" stroke="#fff" stroke-width=".227"><path d="M212.04 320.97a3.49 3.49 0 01-3.45-2.99 3.49 3.49 0 01.9-.12 3.49 3.49 0 013.46 3 3.49 3.49 0 01-.9.11z"/><path d="M212.04 320.97a3.49 3.49 0 01-.9-.12 3.49 3.49 0 013.45-2.99 3.49 3.49 0 01.9.12 3.49 3.49 0 01-3.45 3z"/></g></g><path fill="none" d="M61.14 25.58a4.65 4.65 0 01-4.65 4.65 4.65 4.65 0 01-4.66-4.65 4.65 4.65 0 014.66-4.66 4.65 4.65 0 014.65 4.66"/><g transform="translate(26.727 4.529) scale(.04976)"><circle cx="105" cy="119.523" r="35.979" fill="#fff" stroke="#000" stroke-width=".074"/><path fill="none" stroke="#fff" stroke-linecap="round" stroke-linejoin="round" stroke-width="40" d="M33.56 153.46s26.46 34.2 68.8 34.2c42.33 0 74.08-34.2 74.08-34.2"/><circle cx="105" cy="209.103" r="35.979" fill="#fff" stroke="#000" stroke-width=".074"/><path fill="none" stroke="#fff" stroke-linecap="round" stroke-linejoin="round" stroke-width="40" d="M123.22 190.5l31.75 95.25M86.25 190.5L54.5 285.75"/><path fill="none" stroke="#fff" stroke-linecap="round" stroke-linejoin="round" stroke-width="20.233" d="M68.86 232.83s13.39 17.3 34.8 17.3c21.42 0 37.48-17.3 37.48-17.3"/></g></svg>