<svg xmlns="http://www.w3.org/2000/svg" width="40" height="40" viewBox="0 0 40 39.999999"><defs><clipPath><path d="M0 252h360V0H0z"/></clipPath><clipPath><path d="M34.2 198.9h286.3v-54.4H34.2z"/></clipPath></defs><g><g><path fill="#bdbcbc" d="M24.92 24.17l.28-17.95 12.47 5V33.6L25.53 25.4z"/><path fill="#828080" d="M2.48 6.1h23.04v19.32H2.48z"/><path fill="none" stroke="#231f20" stroke-width="1.23.019" stroke-miterlimit="10" d="M25.2 6.22V33.8" stroke-linejoin="round"/><g fill="#e1e1e1" stroke="#231f20" stroke-linejoin="round"><path d="M19.85 15.54l-.37-6.2v-.1l.03-.05.03-.03.03-.04.03-.03.03-.03.04-.02h.1l7.6-.03h.1l.04.03.04.02.04.03 5.58 2.33.04.02.03.03.03.03.03.05v.04l.03.1.27 7.93v.09l-.03.04-.02.04-.03.04-.04.03-.03.02h-.05l-.1.03-8.8.3h-.1l-.04-.03-.04-.02-.04-.03-.03-.03-.03-.04-4.24-4.3-.03-.04-.03-.03-.05-.07z"/><path d="M19.57 9.48l4.67 2.8m7.7 7.66l-7.54.26-.27-7.94 9.18-.32.28 7.95z"/></g><g fill="#800101" stroke="#231f20" stroke-width=".727" stroke-miterlimit="10" stroke-linejoin="round"><path d="M3.33 20.08l-.14-11V9l.02-.08.03-.08.04-.07.05-.07.06-.05.08-.05.08-.03.17-.03 13.74.1h.08l.08.03.08.04.08.05.06.06 10.05 4.6.06.05.07.05.05.07.05.07.03.07.03.18V28.4l-.02.1-.02.08-.03.08-.05.07-.05.06-.07.05-.07.04-.08.03-.17.02H11.42l-.07-.03-.08-.03-.07-.06-.07-.05-.05-.08-.04-.07-7.5-8.14-.05-.04-.07-.07-.07-.16z"/><path d="M3.2 9l8.34 5.42M25.1 28.9H11.36V14.35h16.8V28.9z"/></g><path fill="#bdbcbc" d="M1.92 24.22L2.1 6.27l8 5v22.37l-7.8-8.17z"/><path fill="none" stroke="#231f20" stroke-width=".89421" stroke-miterlimit="10" d="M2.08 25.04l-.14-18.4v-.08l.02-.08L2 6.4l.04-.07.06-.06.06-.06.07-.03.08-.04.18-.02 22.98.1.08.02h.1l.06.05.07.04.07.07 11.9 4.6.07.04.07.07.06.06.04.07.04.08.03.17v22l-.02.1-.03.07-.04.07-.06.05-.06.06-.06.05-.08.04H10.17l-.1-.02-.06-.03-.08-.05-.06-.05-.06-.07-.04-.07-7.48-8.13-.06-.05-.06-.07-.08-.14z" stroke-linejoin="round"/><path fill="#e9e9e9" fill-rule="evenodd" d="M24.02 33.37H10.26V11.44h27.52v21.93z"/><path fill="none" stroke="#231f20" stroke-width=".89544" stroke-miterlimit="10" d="M2.1 6.08l8.35 5.42m13.57 21.87H10.26V11.44h27.52v21.93z" stroke-linejoin="round"/><path fill="#fefefe" fill-rule="evenodd" d="M24.27 26.08H18.9v-5h10.73v5z"/><path fill="none" stroke="#231f20" stroke-width=".71463" stroke-miterlimit="10" d="M24.27 26.08H18.9v-5h10.73v5z" stroke-linejoin="round"/><path fill="none" stroke="#231f20" stroke-width="1.23.019" stroke-miterlimit="10" d="M2.1 24.96l7.8 8.47" stroke-linejoin="round"/></g></g></svg>