<svg xmlns="http://www.w3.org/2000/svg" width="40" height="40"><defs><clipPath id="a" clipPathUnits="userSpaceOnUse"><path d="M0 252h360V0H0z"/></clipPath><clipPath id="b" clipPathUnits="userSpaceOnUse"><path d="M28 165.85h300.33V16.4H28z"/></clipPath></defs><g clip-path="url(#a)" transform="matrix(.13258 0 0 -.13258 -3.712 36.664)"><g clip-path="url(#b)" opacity=".4"><path fill-rule="evenodd" d="M37.5 159.9l-9.5-1.13L140.07 16.39l188.26 66.48L63.1 165.85z"/></g><path fill="#ffffcf" fill-rule="evenodd" d="M128.46 30.39l-19.5 61.5L59 127.36 36.33 183.9l67.14 9.44 55.47 36 67.03.62 25.41-45.12 47.48-33.47 25.81-64.28-72.3-6.2-52.94-42.51z"/><path fill="none" stroke="#010101" stroke-linejoin="round" stroke-miterlimit="10" stroke-width="10.087" d="M128.46 30.39l-19.5 61.5L59 127.36 36.33 183.9l67.14 9.44 55.47 36 67.03.62 25.41-45.12 47.48-33.47 25.81-64.28-72.3-6.2-52.94-42.51z"/><path fill="none" stroke="#800101" stroke-linejoin="round" stroke-miterlimit="10" stroke-width="6.489" d="M77.5 115.58c8.04-3.06 13.73 5.32 13.62 13.57-.14 10.4 13.82 12.67 21.64 18.3 12.36 8.9 30.29 5.11 44.54 1.77 9.03-2.13 11.61-12.7 11.13-21.26-.45-8.19-5.7-14-5.58-22.44.17-10.8 9.72-15.62 17.93-18.88 7.96-3.15 17.68-2.01 24.14 6.5 5.9 7.78 4.48 17.62 10.51 24.2 4.85 5.3 14.11 7.36 22.27 3.54 7.96-3.75 14.65-8.76 25.98-7.69 13.17 1.25 24.81 9.84 21.02 18.9-3.71 8.85-5.8 17.78 0 24.21l1.24 1.79"/><path fill="#608aa9" fill-rule="evenodd" d="M230.39 223.35c-14-5.01-12.13-14.56-19.97-16-6.86-1.28-22.19 19.4-29.1 19.18-7.17-.23-14.08-1.62-21.39-1.62-9.4 0-16.43-7.11-20.8-16.07-4.72-9.63-4.38-30.15 3.1-30.57 8.3-.49 13.7 9.26 20.76 12.86 9.01 4.6 5.19.57 8.93-9.27 3.9-10.23 30.88-5.95 38.64-10.85 15.84-9.92-30.14-20.89-8.64-30.64 12.18-5.52 29.3 11.17 31.47 16.5 3.49 8.53 2.78 16.2 11.5 21.48l14.48-1z"/><path fill="none" stroke="#010101" stroke-linejoin="round" stroke-miterlimit="10" stroke-width="5.752" d="M162.48 226.41l25.98-51.35 44.85-35.99 20.08-61.44M100.53 196.9l28.33-55.52 44.84-35.99 21.84-64.36M108.2 93l66.12 11.2 59.02 34.85 64.93 9.44M62.73 130.2l66.13 11.2 59 34.85 64.94 9.44"/><path fill="none" stroke="#010101" stroke-linejoin="round" stroke-miterlimit="10" stroke-width="10.087" d="M128.46 30.39l-19.5 61.5L59 127.36 36.33 183.9l67.14 9.44 55.47 36 67.03.62 25.41-45.12 47.48-33.47 25.81-64.28-72.3-6.2-52.94-42.51z"/></g></svg>