<svg xmlns="http://www.w3.org/2000/svg" width="40" height="40" xmlns:xlink="http://www.w3.org/1999/xlink"><defs><clipPath><path d="M0 792h612V0H0z"/></clipPath><clipPath><path d="M267.6 560.9h45.02V403.63H267.6z"/></clipPath><linearGradient x2="1" gradientTransform="matrix(-68.102 117.955 117.955 68.102 336.697 417.529)" gradientUnits="userSpaceOnUse"><stop offset="0" stop-color="#a3a5a8"/><stop offset="1" stop-color="#231f20"/></linearGradient><linearGradient id="a" x2="1" gradientUnits="userSpaceOnUse" gradientTransform="matrix(-8.235 -13.929 14.263 -8.042 8.355 16.931)"><stop offset="0" stop-color="#a3a5a8"/><stop offset="1" stop-color="#231f20"/></linearGradient><linearGradient id="b" x1=".551" x2=".713" y1="-.977" y2="-.945" gradientTransform="matrix(-72.262 125.161 125.161 72.262 337.121 403.751)" gradientUnits="userSpaceOnUse" xlink:href="#a"/></defs><g><path fill="url(#b)" stroke="#000" stroke-width=".637" d="M168.16 408.1l6.7-4.6v16.28l-6.7 3.4z" style="font-variation-settings:normal;vector-effect:none" stroke-linejoin="round" transform="matrix(1.333 0 0 -1.333 -212.429 571.096)"/><g><path fill="#b2b2b2" d="M10.04 32.22l-7-5.2 6.48-19.3 7.5 3.96z"/><g stroke="#000" stroke-linejoin="round"><path fill="none" stroke-width="1.0181399999999998" d="M10.04 32.22l-7-5.2 6.48-19.3 7.5 3.96z"/><path fill="#e6e6e6" stroke-width=".8051399999999999" d="M12.48 33.13l-2.52-.83L17 11.45l2.38.9z"/><path fill="none" stroke-width=".63616" d="M19.34 12.12L17 11.45 9.53 7.5l1.45.3z"/></g></g><g fill="#e3e3e3" stroke="#000" stroke-linejoin="round"><path stroke-width=".94297" d="M23.37 33.24h-2.72v-21.7h2.72z"/><path stroke-width=".9443" d="M23.37 11.53h2.72v21.7h-2.73z"/><path stroke-width=".9443" d="M26.1 11.53h2.7v21.7h-2.7z"/><path stroke-width=".9443" d="M28.82 11.53h2.72v21.7h-2.72z"/><path stroke-width=".9443" d="M31.54 11.53h2.72v21.7h-2.72z"/><path stroke-width=".9443" d="M34.26 11.53h2.72v21.7h-2.72z"/></g><g fill="#e3e3e3" stroke="#000" stroke-width=".71" stroke-linecap="round" stroke-linejoin="round"><path d="M11.8 7.03h2.7l8.88 4.47h-2.72z"/><path d="M14.5 7.03h2.73l8.87 4.47h-2.72z"/><path d="M17.23 7.03h2.72l8.87 4.47H26.1z"/><path d="M19.95 7.03h2.7l8.9 4.47H28.8z"/><path d="M22.67 7.03h2.7l8.9 4.47h-2.73z"/><path d="M25.38 7.03h2.72l8.87 4.47h-2.7z"/></g></g></svg>