<?xml version="1.0" encoding="UTF-8" standalone="no"?>
<svg
   xmlns:dc="http://purl.org/dc/elements/1.1/"
   xmlns:cc="http://creativecommons.org/ns#"
   xmlns:rdf="http://www.w3.org/1999/02/22-rdf-syntax-ns#"
   xmlns:svg="http://www.w3.org/2000/svg"
   xmlns="http://www.w3.org/2000/svg"
   xmlns:sodipodi="http://sodipodi.sourceforge.net/DTD/sodipodi-0.dtd"
   xmlns:inkscape="http://www.inkscape.org/namespaces/inkscape"
   inkscape:version="1.0 (4035a4f, 2020-05-01)"
   inkscape:export-ydpi="96"
   inkscape:export-xdpi="96"
   inkscape:export-filename="/Users/owen/reference_book.png"
   sodipodi:docname="reference_book.svg"
   id="svg943"
   version="1.1"
   height="40"
   width="40">
  <metadata
     id="metadata947">
    <rdf:RDF>
      <cc:Work
         rdf:about="">
        <dc:format>image/svg+xml</dc:format>
        <dc:type
           rdf:resource="http://purl.org/dc/dcmitype/StillImage" />
      </cc:Work>
    </rdf:RDF>
  </metadata>
  <sodipodi:namedview
     inkscape:current-layer="svg943"
     inkscape:window-maximized="0"
     inkscape:window-y="23"
     inkscape:window-x="0"
     inkscape:cy="20"
     inkscape:cx="20"
     inkscape:zoom="16.7"
     showgrid="false"
     id="namedview945"
     inkscape:window-height="480"
     inkscape:window-width="820"
     inkscape:pageshadow="2"
     inkscape:pageopacity="0"
     guidetolerance="10"
     gridtolerance="10"
     objecttolerance="10"
     borderopacity="1"
     bordercolor="#666666"
     pagecolor="#ffffff" />
  <defs
     id="defs859">
    <clipPath
       id="clipPath835">
      <path
         id="path833"
         d="M0 792h612V0H0z" />
    </clipPath>
    <clipPath
       id="a">
      <path
         id="path837"
         d="M183.33 578h29V443.67h-29z" />
    </clipPath>
    <clipPath
       id="b">
      <path
         id="path840"
         d="M205.33 497.67h229.34v-54.34H205.33z" />
    </clipPath>
    <clipPath
       id="c">
      <path
         id="path843"
         d="M289 605h62.33V454.33H289z" />
    </clipPath>
    <linearGradient
       gradientTransform="matrix(-33.946 -9.096 -9.096 33.946 338.518 534.651)"
       gradientUnits="userSpaceOnUse"
       x2="1"
       id="d">
      <stop
         id="stop846"
         stop-color="#fff"
         offset="0" />
      <stop
         id="stop848"
         stop-color="#231f20"
         offset="1" />
    </linearGradient>
    <clipPath
       id="e">
      <path
         id="path851"
         d="M191.67 602.33h76V455h-76z" />
    </clipPath>
    <linearGradient
       gradientTransform="matrix(-57.981 -15.536 -15.536 57.981 252.657 536.434)"
       gradientUnits="userSpaceOnUse"
       x2="1"
       id="f">
      <stop
         id="stop854"
         stop-color="#fff"
         offset="0" />
      <stop
         id="stop856"
         stop-color="#231f20"
         offset="1" />
    </linearGradient>
  </defs>
  <g
     id="g941">
    <path
       id="path861"
       d="M18.62 31.6H3.88L.58 10.6h13.06z"
       fill="#3f3f3f" />
    <path
       id="path863"
       stroke-linejoin="round"
       stroke-linecap="round"
       d="M18.62 31.6H3.88L.58 10.6h13.06z"
       stroke-width="1.13449"
       stroke="#000"
       fill="none" />
    <path
       id="path865"
       d="M24.9 31.6s-1.16.56-3.25.56c-2.1 0-2.94-.57-2.94-.57L13.73 10.6s.53.3 2.94.3c2.4 0 3.24-.3 3.24-.3z"
       fill="#3f3f3f" />
    <path
       id="path867"
       stroke-linejoin="round"
       stroke-linecap="round"
       d="M24.9 31.6s-1.16.56-3.25.56c-2.1 0-2.94-.57-2.94-.57L13.73 10.6s.53.3 2.94.3c2.4 0 3.24-.3 3.24-.3z"
       stroke-width="1.13449"
       stroke="#000"
       fill="none" />
    <path
       id="path869"
       d="M39.43 31.6h-14.6L19.85 10.6h12.92z"
       fill="#3f3f3f" />
    <path
       id="path871"
       stroke-linejoin="round"
       stroke-linecap="round"
       d="M39.43 31.6h-14.6L19.85 10.6h12.92z"
       stroke-width="1.13449"
       stroke="#000"
       fill="none" />
    <path
       id="path873"
       d="M24.6 30.68h-6.16s-1.72-.74-3.63-.74c-1.9 0-9.96.92-9.96.92L1.8 11.5C4.76 10.5 6.78 7.67 12 7.64c3.87-.03 4.84 3.33 4.84 3.33s.86-3 5.04-3.27c5.5-.35 6.35 2.5 9.84 3.13L38 30.68s-7.48-.86-8.96-.86c-1.48 0-4.43.86-4.43.86"
       fill="#fff" />
    <path
       id="path875"
       stroke-linejoin="round"
       stroke-linecap="round"
       d="M24.6 30.68h-6.16s-1.72-.74-3.63-.74c-1.9 0-9.96.92-9.96.92L1.8 11.5C4.76 10.5 6.78 7.67 12 7.64c3.87-.03 4.84 3.33 4.84 3.33s.86-3 5.04-3.27c5.5-.35 6.35 2.5 9.84 3.13L38 30.68s-7.48-.86-8.96-.86c-1.48 0-4.43.86-4.43.86z"
       stroke-width=".7088900000000001"
       stroke="#000"
       fill="none" />
    <g
       id="g883">
      <g
         id="g881">
        <g
           id="g879"
           transform="matrix(.143 0 0 -.143 -24.205 93.899)"
           clip-path="url(#a)">
          <path
             id="path877"
             d="M183.33 578l7-1 22-122-7-11.33z"
             fill="#ccc" />
        </g>
      </g>
    </g>
    <g
       id="g891">
      <g
         id="g889">
        <g
           id="g887"
           transform="matrix(.143 0 0 -.143 -24.205 93.899)"
           clip-path="url(#b)">
          <path
             id="path885"
             d="M205.33 443.67l12 21 82.67 33 21.33-13.34L347 497l49-14.67L425.45 454l9.22-9.33-63.67 5-26-6-45.67-.34-21.33 6.34z"
             fill="#ccc" />
        </g>
      </g>
    </g>
    <path
       id="path893"
       d="M3.22 11.85L6 29.28c3.3-1.02 4.5-4.15 11.1-4.15 4.18 0 4.67 4.25 4.67 4.25s.68-3.94 4.68-3.94c5.7 0 7 2.77 9.76 3.72l-5.37-17.7"
       fill="#fff" />
    <path
       id="path895"
       stroke-linejoin="round"
       stroke-linecap="round"
       d="M3.22 11.85L6 29.28c3.3-1.02 4.5-4.15 11.1-4.15 4.18 0 4.67 4.25 4.67 4.25s.68-3.94 4.68-3.94c5.7 0 7 2.77 9.76 3.72l-5.37-17.7"
       stroke-width=".56791"
       stroke="#000"
       fill="none" />
    <path
       id="path897"
       stroke-linejoin="round"
       stroke-linecap="round"
       d="M16.84 10.96l4.93 18.3"
       stroke-width=".7088900000000001"
       stroke="#000"
       fill="none" />
    <g
       id="g913">
      <g
         id="g911">
        <g
           id="g909"
           transform="matrix(.144 0 0 -.141 -24.794 93.225)"
           opacity=".29"
           clip-path="url(#c)">
          <g
             id="g907">
            <g
               id="g905">
              <g
                 id="g903">
                <g
                   id="g901">
                  <path
                     id="path899"
                     d="M323.67 454.33L289 583.67s8.67 20.66 30.67 21.33l31.66-124.33c-24.66-1.34-27.66-26.34-27.66-26.34"
                     fill="url(#d)" />
                </g>
              </g>
            </g>
          </g>
        </g>
      </g>
    </g>
    <path
       id="path915"
       d="M19.98 28.57s-.52-2.12-2.16-2.16c-2.65-.06-3.8.43-6.66 1.52 0 0 4.8-.97 6.16-.8 1.95.24 2.54 1.26 2.54 1.26"
       fill="#8c8c8c" />
    <path
       id="path917"
       d="M23.67 28.36s.86-1.48 2.28-1.67c2.18-.3 4.33 1.1 5.7 1.27 0 0-4.77-.76-5.53-.6-1.28.3-2.45 1-2.45 1"
       fill="#8c8c8c" />
    <path
       id="path919"
       d="M19.13 29.4s-.27-1.24-1.2-1.38c-2.5-.38-7.24 1-7.24 1s5.06-.76 6.86-.38c.9.2 1.57.75 1.57.75"
       fill="#8c8c8c" />
    <path
       id="path921"
       d="M24.48 29.35s.5-1.07 1.38-1.14c2.75-.23 6.68.77 6.68.77s-4.8-.43-6.83-.14c-.67.1-1.22.52-1.22.52"
       fill="#8c8c8c" />
    <g
       id="g937">
      <g
         id="g935">
        <g
           id="g933"
           transform="matrix(.143 0 0 -.143 -24.205 93.899)"
           opacity=".19"
           clip-path="url(#e)">
          <g
             id="g931">
            <g
               id="g929">
              <g
                 id="g927">
                <g
                   id="g925">
                  <path
                     id="path923"
                     d="M212.33 455l-20.66 126 17.66 9.67L235 602.33l32.67-122-25-11L226.33 459z"
                     fill="url(#f)" />
                </g>
              </g>
            </g>
          </g>
        </g>
      </g>
    </g>
    <path
       id="path939"
       word-spacing="0"
       letter-spacing="0"
       font-family="sans-serif"
       font-size="30"
       style="line-height:1.25"
       d="M25.8 20.5h1.92l.64 1.8h-1.9zm1.5-1.02h-1.8l-.4-1.08q-.24-.7-.14-1.16.1-.46.73-1.06l.6-.63q.4-.37.53-.7.12-.33 0-.67-.22-.62-.98-1-.75-.4-1.76-.4-.76 0-1.5.25-.76.25-1.5.72l-.47-1.32q.74-.4 1.57-.6.84-.2 1.8-.2 1.73 0 3 .7 1.3.67 1.7 1.78.2.54.04 1.03-.17.47-.8 1.08l-.6.6q-.33.34-.45.53-.12.18-.14.35 0 .15.05.36.05.2.2.58z" />
  </g>
</svg>
