<svg xmlns="http://www.w3.org/2000/svg" width="40" height="40"><defs><clipPath id="a"><path d="M0 792h612V0H0z"/></clipPath></defs><g><g><g clip-path="url(#a)" transform="matrix(.128 0 0 -.128 -15.455 97.733)"><path fill="#fff" fill-rule="evenodd" d="M156.8 491.95v229.32h158.9l45.32-43.75-.6-185.57z"/><path fill="none" stroke="#010101" stroke-width="10.087" stroke-miterlimit="10" d="M156.8 491.95v229.32h156.9l47.32-45.75-.6-183.57z" stroke-linejoin="round"/><path fill="none" stroke="#343434" stroke-width="5.752" stroke-miterlimit="10" d="M175.57 589.57h164.3m-164.24 68H339.9m-164.3-17h164.3m-164.33-17h164.3m-164.33-17h164.3" stroke-linejoin="round"/><path fill="none" stroke="#010101" stroke-width="7.197" stroke-miterlimit="10" d="M191.47 559.1c21.7 1.45 23.4 11.56 23.1 20-.24 7.5-3.02 74.7-2.5 87.32.6 14.7 20 6.3 14.35-4.22-7.08-13.26-39.94-20.5-38.72-56.25.62-17.9 18.6-20.46 32.5-21.57 11.24-.9 18.1 13.75 18.1 25.34 0 6.26-7.5 19.38-17.5 19.38-9.4 0-18.1-7-18.7-17.5-.72-12.2 6.1-16 14.95-13.7 10.62 3.68 6.88 7.9 6.88 13.7" stroke-linejoin="round"/><path fill="none" stroke="#fff" stroke-width=".75" stroke-miterlimit="10" d="M346.7 569.8c-7.24-1.2-13.78 2.5-14.66 8.2-.85 5.7 4.33 11.3 11.56 12.52 7.2 1.2 13.77-2.5 14.62-8.2.84-5.7-4.34-11.3-11.53-12.52z" stroke-linejoin="round"/><path fill="none" stroke="#fff" stroke-width=".75" stroke-miterlimit="10" d="M389.94 577.25c-7.2-1.22-13.76 2.47-14.6 8.16-.86 5.7 4.32 11.35 11.55 12.54 7.18 1.2 13.75-2.47 14.58-8.16.85-5.7-4.3-11.34-11.54-12.53z" stroke-linejoin="round"/><path fill="#999" fill-rule="evenodd" d="M313.95 720.65l.84-42.95 46.25-1.68z"/><path fill="none" stroke="#010101" stroke-width="8.642" stroke-miterlimit="10" d="M314.95 720.65l-.16-42.95 46.25.32-47.1 42.63z" stroke-linejoin="round"/><path fill="none" stroke="#343434" stroke-width="5.752" stroke-miterlimit="10" d="M175.63 539.62H339.9m-164.3-17h164.3m-164.33-17h164.3" stroke-linejoin="round"/></g></g></g></svg>