<svg xmlns="http://www.w3.org/2000/svg" width="40" height="40"><defs><clipPath id="a"><path d="M0 252h360V0H0z"/></clipPath><clipPath id="b"><path d="M212.74 236.56H326.5V122.74H212.75z"/></clipPath></defs><g><g><g clip-path="url(#a)" transform="matrix(.135 0 0 -.135 -4.185 36.917)"><path fill="#800101" fill-rule="evenodd" d="M269.63 122.74c-31.4 0-56.9 25.5-56.9 56.9s25.5 56.92 56.9 56.92 56.88-25.5 56.88-56.9-25.48-56.92-56.88-56.92"/><path fill="#fff" fill-rule="evenodd" d="M155.65 18.14H50.2c-7.8 0-14.16 6.35-14.16 14.17V156.2c0 7.82 6.35 14.17 14.17 14.17h210.93c7.8 0 14.16-6.35 14.16-14.17V32.3c0-7.8-6.36-14.16-14.17-14.16z"/><path fill="none" stroke="#010101" stroke-width="10.087" stroke-miterlimit="10" d="M155.65 18.14H50.2c-7.8 0-14.16 6.35-14.16 14.17V156.2c0 7.82 6.35 14.17 14.17 14.17h210.93c7.8 0 14.16-6.35 14.16-14.17V32.3c0-7.8-6.36-14.16-14.17-14.16z" stroke-linejoin="round"/><path fill="#999" fill-rule="evenodd" d="M88.4 88.14c-9.52 0-17.26 7.73-17.26 17.26 0 9.52 7.74 17.26 17.26 17.26 9.52 0 17.25-7.74 17.25-17.26 0-9.53-7.73-17.26-17.25-17.26"/><path fill="none" stroke="#010101" stroke-width="10.087" stroke-miterlimit="10" d="M88.4 88.14c-9.52 0-17.26 7.73-17.26 17.26 0 9.52 7.74 17.26 17.26 17.26 9.52 0 17.25-7.74 17.25-17.26 0-9.53-7.73-17.26-17.25-17.26z" stroke-linejoin="round"/><path fill="#fff" fill-rule="evenodd" d="M224 88.28c-9.53 0-17.27 7.74-17.27 17.26 0 9.52 7.74 17.26 17.26 17.26 9.5 0 17.24-7.74 17.24-17.26 0-9.52-7.74-17.26-17.26-17.26"/><path fill="none" stroke="#010101" stroke-width="10.087" stroke-miterlimit="10" d="M224 88.28c-9.53 0-17.27 7.74-17.27 17.26 0 9.52 7.74 17.26 17.26 17.26 9.5 0 17.24-7.74 17.24-17.26 0-9.52-7.74-17.26-17.26-17.26z" stroke-linejoin="round"/><path fill="#fff" fill-rule="evenodd" d="M156.3 93.13h-27.8v22.5h55.6v-22.5z"/><path fill="none" stroke="#010101" stroke-width="5.752" stroke-miterlimit="10" d="M156.3 93.13h-27.8v22.5h55.6v-22.5z" stroke-linejoin="round"/><path fill="#010101" fill-rule="evenodd" d="M127.3 92.7l-.06.43v22.72l.05.23.1.23.12.18.17.2.2.14.2.1.24.1.5.05h33.9l1.7-13.17v-.15l-1.6-12.07h-34l-.24.03-.26.07-.25.08-.2.1-.2.15-.18.2-.1.17z"/><path fill="none" stroke="#010101" stroke-width="7.197" stroke-miterlimit="10" d="M71.03 17.15l16.94 40.5 134.2.48 16.4-38.97" stroke-linejoin="round"/><path fill="#010101" fill-rule="evenodd" d="M107.72 29.76c-3.32 0-6 2.7-6 6 0 3.32 2.68 6 6 6 3.3 0 6-2.68 6-6 0-3.3-2.7-6-6-6"/><path fill="none" stroke="#010101" stroke-width=".75" stroke-miterlimit="10" d="M107.72 29.76c-3.32 0-6 2.7-6 6 0 3.32 2.68 6 6 6 3.3 0 6-2.68 6-6 0-3.3-2.7-6-6-6z" stroke-linejoin="round"/><path fill="#fff" fill-rule="evenodd" d="M88.06 93.13c-6.94 0-12.6 5.66-12.6 12.6 0 6.95 5.66 12.62 12.6 12.62 6.94 0 12.6-5.67 12.6-12.6 0-6.96-5.66-12.62-12.6-12.62"/><path fill="#fff" fill-rule="evenodd" d="M88.06 93.13l-.46-2.1-4.22.88.88 4.23 4.22-.88z"/><path fill="#fff" fill-rule="evenodd" d="M80.75 93.18l-2.83 1.87-.23.17-.38.43 1.8 1.2 1.2 1.8 2.8-1.9z"/><path fill="#fff" fill-rule="evenodd" d="M79.13 96.84l-1.8-1.2-.52.77 3.6 2.42.52-.76z"/><path fill="#fff" fill-rule="evenodd" d="M75.62 98.2l-1 1.47-.13.26-.18.5 2.12.43 1.8 1.22.95-1.47z"/><path fill="#fff" fill-rule="evenodd" d="M76.44 100.86l-2.12-.42-.5 2.5 4.2.84.52-2.46z"/><path fill="#fff" fill-rule="evenodd" d="M73.38 105.06l-.05.25-.03.3.03.6 2.12-.46 2.1.45.05-.3z"/><path fill="#fff" fill-rule="evenodd" d="M75.45 105.74l-2.12.45.8 3.93 4.2-.85-.78-3.97z"/><path fill="#fff" fill-rule="evenodd" d="M75.28 112.82l2.04 3.06.17.23.42.38 1.2-1.82 1.8-1.18-2.04-3.04z"/><path fill="#fff" fill-rule="evenodd" d="M79.13 114.66l-1.2 1.82.52.34 2.4-3.57-.53-.37z"/><path fill="#fff" fill-rule="evenodd" d="M80.24 118.04l1.7 1.13.25.14.5.18.46-2.12 1.2-1.8-1.7-1.12z"/><path fill="#fff" fill-rule="evenodd" d="M83.16 117.36l-.46 2.12 2.24.46.85-4.23-2.22-.44z"/><path fill="#fff" fill-rule="evenodd" d="M87.04 120.36l.56.1.3.04.58-.02-.42-2.13.42-2.1-.6-.1z"/><path fill="#fff" fill-rule="evenodd" d="M88.06 118.35l.42 2.13 3.63-.74-.84-4.22-3.66.73z"/><path fill="#fff" fill-rule="evenodd" d="M94.86 118.66l3.28-2.18.23-.17.37-.42-1.8-1.22-1.2-1.78-3.26 2.2z"/><path fill="#fff" fill-rule="evenodd" d="M96.95 114.66l1.8 1.22.2-.3-3.58-2.42-.23.3z"/><path fill="#fff" fill-rule="evenodd" d="M100.13 113.8l1.3-1.94.14-.26.17-.5-2.1-.46-1.8-1.2-1.28 1.94z"/><path fill="#fff" fill-rule="evenodd" d="M99.64 110.64l2.1.45.4-1.96-4.22-.88-.4 1.96z"/><path fill="#fff" fill-rule="evenodd" d="M102.6 107.04l.16-.85.03-.3-.04-.6-2.1.44-2.12-.43-.17.86z"/><path fill="#fff" fill-rule="evenodd" d="M100.66 105.74l2.1-.43-.7-3.36-4.23.88.7 3.37z"/><path fill="#fff" fill-rule="evenodd" d="M101.1 99.16l-2.36-3.5-.17-.24-.43-.37-1.2 1.8-1.8 1.2 2.35 3.52z"/><path fill="#fff" fill-rule="evenodd" d="M96.95 96.84l1.2-1.8-.1-.02-2.37 3.58.06.05z"/><path fill="#fff" fill-rule="evenodd" d="M96.27 93.8l-2.15-1.44-.26-.14-.5-.17-.43 2.1-1.22 1.8 2.2 1.46z"/><path fill="#fff" fill-rule="evenodd" d="M92.93 94.15l.42-2.1-1.67-.34-.88 4.23 1.68.34z"/><path fill="#fff" fill-rule="evenodd" d="M89.6 91.26l-1.12-.23-.28-.03-.6.03.46 2.1-.46 2.12 1.1.23z"/><g><g><g clip-path="url(#b)" opacity=".8"><path fill="#800101" fill-rule="evenodd" d="M269.63 122.74c-31.4 0-56.9 25.5-56.9 56.9s25.5 56.92 56.9 56.92 56.88-25.5 56.88-56.9-25.48-56.92-56.88-56.92"/></g></g></g><path fill="none" stroke="#fff" stroke-width="2.89" stroke-miterlimit="10" d="M269.63 122.74c-31.4 0-56.9 25.5-56.9 56.9s25.5 56.92 56.9 56.92 56.88-25.5 56.88-56.9-25.48-56.92-56.88-56.92z" stroke-linejoin="round"/><path fill="#fff" fill-rule="evenodd" d="M244.44 148.96c-7.23-1.2-13.77 2.5-14.65 8.2-.86 5.68 4.33 11.3 11.55 12.5 7.2 1.2 13.77-2.48 14.62-8.18.85-5.7-4.33-11.3-11.53-12.52"/><path fill="none" stroke="#fff" stroke-width=".75" stroke-miterlimit="10" d="M244.44 148.96c-7.23-1.2-13.77 2.5-14.65 8.2-.86 5.68 4.33 11.3 11.55 12.5 7.2 1.2 13.77-2.48 14.62-8.18.85-5.7-4.33-11.3-11.53-12.52z" stroke-linejoin="round"/><path fill="none" stroke="#fff" stroke-width="7.197" stroke-miterlimit="10" d="M252.85 158.34l.77 45.8 42.24 10.08-.3-46.25" stroke-linejoin="round"/><path fill="#fff" fill-rule="evenodd" d="M287.7 156.4c-7.2-1.2-13.77 2.47-14.62 8.17-.85 5.7 4.34 11.34 11.56 12.53 7.2 1.2 13.77-2.47 14.6-8.16.84-5.7-4.32-11.34-11.54-12.53"/><path fill="none" stroke="#fff" stroke-width=".75" stroke-miterlimit="10" d="M287.7 156.4c-7.2-1.2-13.77 2.47-14.62 8.17-.85 5.7 4.34 11.34 11.56 12.53 7.2 1.2 13.77-2.47 14.6-8.16.84-5.7-4.32-11.34-11.54-12.53z" stroke-linejoin="round"/><path fill="#010101" fill-rule="evenodd" d="M206.08 29.45c-3.3 0-6 2.7-6 6 0 3.32 2.7 6 6 6 3.32 0 6-2.68 6-6 0-3.3-2.68-6-6-6"/><path fill="none" stroke="#010101" stroke-width=".75" stroke-miterlimit="10" d="M206.08 29.45c-3.3 0-6 2.7-6 6 0 3.32 2.7 6 6 6 3.32 0 6-2.68 6-6 0-3.3-2.68-6-6-6z" stroke-linejoin="round"/><path fill="#fff" fill-rule="evenodd" d="M224.1 92.64c-6.94 0-12.6 5.67-12.6 12.62 0 6.94 5.66 12.6 12.6 12.6 6.94 0 12.6-5.66 12.6-12.6 0-6.95-5.66-12.62-12.6-12.62"/><path fill="#fff" fill-rule="evenodd" d="M224.1 92.64l-.45-2.1-4.23.9.88 4.2 4.22-.87z"/><path fill="#fff" fill-rule="evenodd" d="M216.8 92.7l-2.84 1.87-.23.17-.37.43 1.8 1.2 1.2 1.8 2.8-1.9z"/><path fill="#fff" fill-rule="evenodd" d="M215.18 96.36l-1.82-1.2-.5.77 3.6 2.4.5-.75z"/><path fill="#fff" fill-rule="evenodd" d="M211.66 97.72l-1 1.47-.13.25-.17.5 2.12.43 1.8 1.22.95-1.47z"/><path fill="#fff" fill-rule="evenodd" d="M212.48 100.38l-2.12-.42-.5 2.5 4.2.84.52-2.46z"/><path fill="#fff" fill-rule="evenodd" d="M209.42 104.58l-.05.25-.03.28.03.6 2.12-.44 2.1.45.05-.27z"/><path fill="#fff" fill-rule="evenodd" d="M211.5 105.26l-2.13.45.8 3.95 4.2-.85-.78-3.97z"/><path fill="#fff" fill-rule="evenodd" d="M211.32 112.34l2.04 3.06.17.23.43.37 1.2-1.82 1.8-1.2-2.04-3.02z"/><path fill="#fff" fill-rule="evenodd" d="M215.18 114.18l-1.22 1.82.53.34 2.4-3.57-.54-.37z"/><path fill="#fff" fill-rule="evenodd" d="M216.28 117.56l1.7 1.13.25.13.5.17.47-2.13 1.2-1.78-1.7-1.14z"/><path fill="#fff" fill-rule="evenodd" d="M219.2 116.88l-.46 2.12 2.24.45.85-4.22-2.2-.45z"/><path fill="#fff" fill-rule="evenodd" d="M223.08 119.88l.57.1.28.04.6-.03-.43-2.13.42-2.1-.6-.1z"/><path fill="#fff" fill-rule="evenodd" d="M224.1 117.87l.42 2.12 3.63-.74-.85-4.23-3.65.74z"/><path fill="#fff" fill-rule="evenodd" d="M230.9 118.18l3.28-2.18.23-.17.38-.43-1.8-1.22-1.2-1.78-3.26 2.2z"/><path fill="#fff" fill-rule="evenodd" d="M233 114.18l1.78 1.22.2-.3-3.57-2.42-.22.3z"/><path fill="#fff" fill-rule="evenodd" d="M236.17 113.3l1.3-1.92.14-.26.18-.5-2.1-.46-1.8-1.2-1.28 1.94z"/><path fill="#fff" fill-rule="evenodd" d="M235.7 110.16l2.08.45.4-1.94-4.22-.88-.4 1.95z"/><path fill="#fff" fill-rule="evenodd" d="M238.63 106.56l.17-.85.03-.27-.03-.6-2.1.43-2.12-.43-.17.85z"/><path fill="#fff" fill-rule="evenodd" d="M236.7 105.26l2.1-.43-.7-3.37-4.23.88.7 3.37z"/><path fill="#fff" fill-rule="evenodd" d="M237.13 98.68l-2.35-3.5-.17-.24-.42-.37-1.2 1.8-1.8 1.2 2.35 3.52z"/><path fill="#fff" fill-rule="evenodd" d="M233 96.36l1.18-1.8-.08-.02-2.38 3.57.05.07z"/><path fill="#fff" fill-rule="evenodd" d="M232.3 93.32l-2.14-1.44-.25-.14-.5-.17-.43 2.1-1.22 1.8 2.2 1.45z"/><path fill="#fff" fill-rule="evenodd" d="M228.97 93.66l.43-2.1-1.67-.33-.88 4.22 1.67.34z"/><path fill="#fff" fill-rule="evenodd" d="M225.63 90.77l-1.1-.22-.3-.03-.58.03.45 2.1-.45 2.12 1.1.23z"/></g></g></g></svg>