<svg xmlns="http://www.w3.org/2000/svg" width="40" height="40"><defs><clipPath id="a" clipPathUnits="userSpaceOnUse"><path d="M0 792h612V0H0z"/></clipPath><clipPath id="b" clipPathUnits="userSpaceOnUse"><path d="M383.15 509.29l40.45 71.8 23.94-26.22z"/></clipPath><clipPath id="c" clipPathUnits="userSpaceOnUse"><path d="M238.02 509.29l-40.46-71.8-23.93 26.2z"/></clipPath></defs><g clip-path="url(#a)" transform="matrix(.11483 0 0 -.11139 -15.198 76.878)"><path fill="#ccc" d="M165.47 442.37h281.5v124.8h-281.5z"/><path d="M420.47 509.29a37.32 37.32 0 10-74.65 0 37.32 37.32 0 0074.65 0"/><path fill="#f2f2f2" d="M406.5 509.29a23.36 23.36 0 10-46.72 0 23.36 23.36 0 0046.73 0"/><path fill="none" stroke="#000" stroke-linecap="round" stroke-width="4" d="M418.36 511l-3.68 41.6"/><g fill="none" stroke="#e6e6e6" clip-path="url(#b)"><path d="M353.52 509.29a29.63 29.63 0 1059.26 0 29.63 29.63 0 00-59.26 0z"/><path d="M348.96 509.29a34.19 34.19 0 1068.38 0 34.19 34.19 0 00-68.38 0z"/></g><path d="M300.52 509.03a63.82 63.82 0 10-127.64 0 63.82 63.82 0 00127.64 0"/><path fill="#f2f2f2" d="M261.38 509.29a23.36 23.36 0 10-46.73 0 23.36 23.36 0 0046.73 0"/><path fill="#d9d9ff" d="M377.54 463.04H243.63v90.6h133.9z"/><path fill="none" stroke="#000" stroke-linecap="round" stroke-linejoin="round" stroke-width="4" d="M377.54 463.04H243.63v90.6h133.9z"/><g fill="none" clip-path="url(#c)"><path stroke="#e6e6e6" d="M267.65 509.29a29.63 29.63 0 10-59.26 0 29.63 29.63 0 0059.26 0z"/><path stroke="#e6e6e6" d="M272.2 509.29a34.19 34.19 0 10-68.37 0 34.19 34.19 0 0068.38 0z"/><path stroke="#e6e6e6" d="M276.76 509.29a38.75 38.75 0 10-77.5 0 38.75 38.75 0 0077.5 0z"/><path stroke="#e6e6e6" d="M281.32 509.29a43.3 43.3 0 10-86.61 0 43.3 43.3 0 0086.61 0z"/><path stroke="#e6e6e6" d="M286.45 509.29a48.44 48.44 0 10-96.87 0 48.44 48.44 0 0096.87 0z"/><path stroke="#e6e6e6" d="M291.58 509.29a53.56 53.56 0 10-107.13 0 53.56 53.56 0 00107.13 0z"/><path stroke="#e6e6e6" d="M296.7 509.29a58.7 58.7 0 10-117.38 0 58.7 58.7 0 00117.39 0z"/><path stroke="#e6e6e6" d="M301.27 509.29a63.25 63.25 0 10-126.5 0 63.25 63.25 0 00126.5 0z"/><path stroke="#b2b2b2" d="M306.4 509.29a68.38 68.38 0 10-136.76 0 68.38 68.38 0 00136.76 0z"/></g><path fill="#666" d="M432.15 552.96H182.44s-15.6-16.44-15.6-44.93 15.6-44.53 15.6-44.53h249.71s12.2 21.74 12.2 46.81c0 25.07-12.2 42.65-12.2 42.65M451.95 435c0-7.92-6.47-14.4-14.4-14.4H175.18c-7.92 0-14.4 6.48-14.4 14.4v151.26c0 7.92 6.48 14.4 14.4 14.4h262.39c7.92 0 14.4-6.48 14.4-14.4z"/><path fill="none" stroke="#000" stroke-linecap="round" stroke-linejoin="round" stroke-width="9" d="M432.15 552.96H182.44s-15.6-16.44-15.6-44.93 15.6-44.53 15.6-44.53h249.71s12.2 21.74 12.2 46.81c0 25.07-12.2 42.65-12.2 42.65zM451.95 435c0-7.92-6.47-14.4-14.4-14.4H175.18c-7.92 0-14.4 6.48-14.4 14.4v151.26c0 7.92 6.48 14.4 14.4 14.4h262.39c7.92 0 14.4-6.48 14.4-14.4z"/><path fill="#3f3f3f" d="M452.27 584.5H161.1v15.96h291.18z"/><path fill="none" stroke="#000" stroke-linecap="round" stroke-linejoin="round" stroke-width="9" d="M452.27 584.5H161.1v15.96h291.18z"/></g></svg>