<svg xmlns="http://www.w3.org/2000/svg" width="40" height="40"><defs><clipPath id="a" clipPathUnits="userSpaceOnUse"><path d="M212.13 238.56h113.78V124.74H212.13z"/></clipPath></defs><path fill="#800101" fill-rule="evenodd" d="M32.15 20.12a7.66 7.66 0 11.02-15.32 7.66 7.66 0 01-.02 15.32"/><path fill="#343434" fill-rule="evenodd" d="M17.72 34.71C8.32 34.71.68 29.5.68 23.07c0-6.42 7.63-11.63 17.04-11.63s17.04 5.21 17.04 11.63c0 6.43-7.63 11.64-17.04 11.64"/><path fill="none" stroke="#010101" stroke-linejoin="round" stroke-miterlimit="10" stroke-width="1.3573299399999998" d="M17.72 34.71C8.32 34.71.68 29.5.68 23.07c0-6.42 7.63-11.63 17.04-11.63s17.04 5.21 17.04 11.63c0 6.43-7.63 11.64-17.04 11.64z"/><path fill="none" stroke="gray" stroke-linejoin="round" stroke-miterlimit="10" stroke-width=".57999855" d="M17.72 29.22c-5.08 0-9.2-2.75-9.2-6.15 0-3.39 4.12-6.14 9.2-6.14 5.08 0 9.2 2.75 9.2 6.14 0 3.4-4.12 6.15-9.2 6.15zm0 1.02c-5.88 0-10.65-3.2-10.65-7.17 0-3.95 4.77-7.16 10.65-7.16 5.88 0 10.65 3.2 10.65 7.16s-4.77 7.17-10.65 7.17zm0 1.02c-6.68 0-12.1-3.67-12.1-8.19 0-4.51 5.42-8.18 12.1-8.18s12.1 3.67 12.1 8.18c0 4.52-5.42 8.19-12.1 8.19zm0 1.7c-8.02 0-14.52-4.43-14.52-9.89 0-5.45 6.5-9.87 14.52-9.87s14.52 4.42 14.52 9.87c0 5.46-6.5 9.88-14.52 9.88z"/><path fill="#343434" fill-rule="evenodd" d="M17.5 22.49l5.24 12.4-2.47.37-2.59.12-2.58-.13-2.47-.38-2.33-.61-2.17-.82-1.98-1.03-1.75-1.2-1.5-1.38-1.23-1.52-.87-1.55-.05-.12L.21 25l-.02-.14L0 23.14V23l.18-1.72.03-.14.54-1.64.05-.12.93-1.64 1.24-1.5zM17.68 22.57l-4.5-11.39 1.99-.3 2.58-.12 2.59.13 2.47.38 2.33.61 2.17.83 1.97 1.02 1.75 1.2 1.51 1.38 1.23 1.53.86 1.54.05.12.54 1.64.03.14.18 1.72v.15l-.18 1.71-.03.14-.54 1.64-.05.12z"/><path fill="none" stroke="#010101" stroke-linejoin="round" stroke-miterlimit="10" stroke-width="1.3573299399999998" d="M17.72 34.71C8.32 34.71.68 29.5.68 23.07c0-6.42 7.63-11.63 17.04-11.63s17.04 5.21 17.04 11.63c0 6.43-7.63 11.64-17.04 11.64z"/><path fill="#fff" stroke="#010101" stroke-linejoin="round" stroke-miterlimit="10" stroke-width=".9679975799999999" d="M17.72 26.47c-3.07 0-5.57-1.7-5.57-3.77 0-2.08 2.5-3.78 5.57-3.78 3.07 0 5.57 1.7 5.57 3.78s-2.5 3.77-5.57 3.77z"/><path fill="#fff" fill-rule="evenodd" d="M17.72 23.23c-.53 0-.97-.24-.97-.54 0-.29.44-.53.97-.53s.97.24.97.53c0 .3-.44.54-.97.54"/><path fill="none" stroke="#010101" stroke-linejoin="round" stroke-miterlimit="10" stroke-width=".57999855" d="M17.72 23.23c-.53 0-.97-.24-.97-.54 0-.29.44-.53.97-.53s.97.24.97.53c0 .3-.44.54-.97.54z"/><g clip-path="url(#a)" opacity=".8" transform="matrix(.13452 0 0 -.13452 -4.036 36.897)"><path fill="#800101" fill-rule="evenodd" d="M269.02 124.74a56.93 56.93 0 00-56.88 56.9c0 31.4 25.5 56.92 56.88 56.92a56.93 56.93 0 0056.89-56.91c0-31.4-25.5-56.9-56.89-56.9"/></g><path fill="none" stroke="#fff" stroke-linejoin="round" stroke-miterlimit="10" stroke-width=".38933235999999993" d="M32.15 20.12a7.66 7.66 0 11.02-15.32 7.66 7.66 0 01-.02 15.32z"/><path fill="#fff" fill-rule="evenodd" d="M28.77 16.59c-.98.16-1.86-.34-1.98-1.1-.1-.77.59-1.52 1.56-1.69.97-.16 1.85.34 1.97 1.1.11.77-.59 1.53-1.55 1.69"/><path fill="none" stroke="#fff" stroke-linejoin="round" stroke-miterlimit="10" stroke-width=".10133307999999999" d="M28.77 16.59c-.98.16-1.86-.34-1.98-1.1-.1-.77.59-1.52 1.56-1.69.97-.16 1.85.34 1.97 1.1.11.77-.59 1.53-1.55 1.69z"/><path fill="none" stroke="#fff" stroke-linejoin="round" stroke-miterlimit="10" stroke-width=".9679975799999999" d="M29.9 15.33l.1-6.16 5.68-1.36-.04 6.22"/><path fill="#fff" fill-rule="evenodd" d="M34.58 15.59c-.96.16-1.85-.33-1.96-1.1-.12-.77.58-1.53 1.55-1.69.97-.16 1.86.34 1.97 1.1.11.77-.58 1.53-1.56 1.69"/><path fill="none" stroke="#fff" stroke-linejoin="round" stroke-miterlimit="10" stroke-width=".10133307999999999" d="M34.58 15.59c-.96.16-1.85-.33-1.96-1.1-.12-.77.58-1.53 1.55-1.69.97-.16 1.86.34 1.97 1.1.11.77-.58 1.53-1.56 1.69z"/></svg>