<svg xmlns="http://www.w3.org/2000/svg" width="40" height="40"><defs><clipPath id="a"><path d="M0 792h612V0H0z"/></clipPath><radialGradient id="b" cx="0" cy="0" r="1" fx="0" fy="0" gradientUnits="userSpaceOnUse" gradientTransform="matrix(46.333 0 0 -46.333 281.334 487.666)" spreadMethod="pad"><stop offset="0" stop-color="#e1eefa"/><stop offset="1" stop-color="#8ea7bf"/></radialGradient><clipPath id="c"><path d="M345 571.06h113.77V457.24H345z"/></clipPath></defs><g><g><g clip-path="url(#a)" transform="matrix(.144 0 0 -.144 -26.601 85.765)"><path fill="#800101" fill-rule="evenodd" d="M401.9 457.24c-31.4 0-56.9 25.5-56.9 56.9s25.5 56.92 56.9 56.92c31.38 0 56.88-25.5 56.88-56.9s-25.5-56.92-56.9-56.92"/><path fill="none" stroke="#fff" stroke-width="2.89" stroke-miterlimit="10" d="M401.9 457.24c-31.4 0-56.9 25.5-56.9 56.9s25.5 56.92 56.9 56.92c31.38 0 56.88-25.5 56.88-56.9s-25.5-56.92-56.9-56.92z" stroke-linejoin="round"/><text fill="#fff" transform="matrix(1 0 0 -1 369.077 480.951)" style="-inkscape-font-specification:Helvetica-Bold" font-weight="bold" font-size="123.474" font-family="Helvetica"><tspan x="0" y="0">e</tspan></text><path fill="#8ea7bf" d="M412.15 452c0-62.02-50.27-112.3-112.28-112.3-62 0-112.28 50.28-112.28 112.3 0 62 50.26 112.28 112.27 112.28 62 0 112.28-50.27 112.28-112.3"/><path fill="none" stroke="#000" stroke-width="8" d="M412.15 452c0-62.02-50.27-112.3-112.28-112.3-62 0-112.28 50.28-112.28 112.3 0 62 50.26 112.28 112.27 112.28 62 0 112.28-50.27 112.28-112.3z"/><g><g><g><g><path fill="url(#b)" d="M327.67 487.67c0-25.6-20.75-46.34-46.34-46.34-25.6 0-46.33 20.75-46.33 46.34 0 25.6 20.74 46.33 46.33 46.33 25.6 0 46.34-20.74 46.34-46.33"/></g></g></g></g><path fill="#475980" d="M189 473.33s-4-58.66 38-89.33 99-25.67 125.67-7.67c26.66 18 37 47 41 65S377 542 377 542s48-78 34-116-48.67-78.67-95.33-86.67C269 331.33 247 350.67 243 354s-41.33 32-46.67 53.33c-5.33 21.34-7.33 66-7.33 66"/><path fill="#b7d696" d="M246.9 542.48c3.53.4 5.1 1.57 5.5-1.96.38-3.53 5.48-7.44 8.6-10.58 3.15-3.13.8-5.5 4.32-5.5 3.53 0 2.75 1.2 4.7-1.55 1.96-2.75 3.14-5.9 3.14-5.9s-3.14 1.2-4.3-.38c-1.2-1.57-.4-3.92-.4-3.92s-4.7 4.3-7.45 2.74c-2.73-1.56-3.5-6.66.8-11.36 4.3-4.7 4.7-4.7 5.48-9.4.8-4.7 2.75-6.28 3.53-3.53.8 2.74 4.32 8.62 5.1 11.36.8 2.75-2.35 8.24 1.57 7.85 3.92-.4 3.13-6.27 6.27-6.66 3.13-.4 4.3 3.5 4.3 3.5s3.54-5.08 4.7-7.04c1.2-1.96 4.32-6.66 1.97-7.84-2.34-1.17-10.57-1.17-10.57-1.17s-.78-5.88 1.57-6.27c2.35-.4 6.66-.78 6.66-.78s-3.13-2.36-6.66-3.14c-3.53-.78-3.92-.4-7.45-3.52-3.52-3.14-11.36-8.63-12.93-10.98-1.56-2.35-7.83-4.3-7.83-7.44 0-3.14 4.3-12.15 1.94-13.32-2.35-1.18-5.1 5.1-5.87 7.05-.8 1.96 1.17 5.1-.4 5.48-1.56.4-3.9-1.17-5.1-.4-1.16.8-10.96 4.72-13.3 3.15-2.36-1.57-2.75-6.66-2.75-6.66s-3.14-1.96-3.14-3.92 2.74-10.2 5.1-10.2c2.35 0 6.26 2.75 7.44 2.75 1.18 0 3.92-3.92 1.57-3.92-2.36 0-3.93-4.7-3.54-5.87.4-1.18 7.45-4.3 7.45-4.3s-.78-2.76.8-5.1c1.56-2.36 13.7-8.24 13.7-8.24s7.06 5.88 9.4 5.5c2.36-.4 14.5-5.1 17.64-4.7 3.14.38 12.15-3.54 15.28-4.32 3.14-.8 7.06-1.18 8.23-2.75 1.18-1.56 7.45-9.8 10.2-10.97 2.73-1.17 14.5-2.35 14.5-2.35l2.73-1.96s4.7 1.96 4.3-1.56c-.38-3.52-1.95-7.05-4.3-9-2.35-1.97-4.7-13.33-9-14.9-4.32-1.56-9.03-1.56-11.77-5.1-2.73-3.52-3.9-5.08-5.08-5.08-1.18 0-1.57-3.14-4.7-3.53-3.14-.4-4.7-1.2-7.84-2.75-3.13-1.57-7.84-1.18-10.2-3.14-2.34-1.95-3.12-5.08-3.12-5.08l-10.2.78s-2.73 10.2-2.73 13.71c0 3.54.78 11.38.78 11.38s-5.87 3.52-10.57 9c-4.7 5.5-10.58 13.33-10.58 15.3 0 1.95-1.17 11.36 1.57 11.36s5.1 1.56 5.1 1.56l-.8 7.45s-.77-1.18-3.52-.8c-2.74.4-8.23 3.15-10.18 5.1-1.96 1.97-3.14 6.67-5.1 7.45-1.96.8-6.66 3.14-6.66 3.14s-3.13 4.3-4.3 4.7c-1.2.4-1.97 0-3.93 2.35-1.96 2.34-8.62 8.22-8.62 10.18 0 1.96-.38 24.3-1.56 25.47-1.17 1.18-3.9-10.97-3.9-10.97s-.4 11.75 0 16.85c.38 5.1 0 12.93 2.34 15.67 2.35 2.74 10.18 7.45 11.36 10.2 1.17 2.73 9.4 14.1 9 17.62-.38 3.53 1.97 10.97 1.97 10.97l-5.47 3.9 9.8 9.02 4.3-2.74z"/><path fill="none" stroke="#000" stroke-width="5" d="M246.9 542.48c3.53.4 5.1 1.57 5.5-1.96.38-3.53 5.48-7.44 8.6-10.58 3.15-3.13.8-5.5 4.32-5.5 3.53 0 2.75 1.2 4.7-1.55 1.96-2.75 3.14-5.9 3.14-5.9s-3.14 1.2-4.3-.38c-1.2-1.57-.4-3.92-.4-3.92s-4.7 4.3-7.45 2.74c-2.73-1.56-3.5-6.66.8-11.36 4.3-4.7 4.7-4.7 5.48-9.4.8-4.7 2.75-6.28 3.53-3.53.8 2.74 4.32 8.62 5.1 11.36.8 2.75-2.35 8.24 1.57 7.85 3.92-.4 3.13-6.27 6.27-6.66 3.13-.4 4.3 3.5 4.3 3.5s3.54-5.08 4.7-7.04c1.2-1.96 4.32-6.66 1.97-7.84-2.34-1.17-10.57-1.17-10.57-1.17s-.78-5.88 1.57-6.27c2.35-.4 6.66-.78 6.66-.78s-3.13-2.36-6.66-3.14c-3.53-.78-3.92-.4-7.45-3.52-3.52-3.14-11.36-8.63-12.93-10.98-1.56-2.35-7.83-4.3-7.83-7.44 0-3.14 4.3-12.15 1.94-13.32-2.35-1.18-5.1 5.1-5.87 7.05-.8 1.96 1.17 5.1-.4 5.48-1.56.4-3.9-1.17-5.1-.4-1.16.8-10.96 4.72-13.3 3.15-2.36-1.57-2.75-6.66-2.75-6.66s-3.14-1.96-3.14-3.92 2.74-10.2 5.1-10.2c2.35 0 6.26 2.75 7.44 2.75 1.18 0 3.92-3.92 1.57-3.92-2.36 0-3.93-4.7-3.54-5.87.4-1.18 7.45-4.3 7.45-4.3s-.78-2.76.8-5.1c1.56-2.36 13.7-8.24 13.7-8.24s7.06 5.88 9.4 5.5c2.36-.4 14.5-5.1 17.64-4.7 3.14.38 12.15-3.54 15.28-4.32 3.14-.8 7.06-1.18 8.23-2.75 1.18-1.56 7.45-9.8 10.2-10.97 2.73-1.17 14.5-2.35 14.5-2.35l2.73-1.96s4.7 1.96 4.3-1.56c-.38-3.52-1.95-7.05-4.3-9-2.35-1.97-4.7-13.33-9-14.9-4.32-1.56-9.03-1.56-11.77-5.1-2.73-3.52-3.9-5.08-5.08-5.08-1.18 0-1.57-3.14-4.7-3.53-3.14-.4-4.7-1.2-7.84-2.75-3.13-1.57-7.84-1.18-10.2-3.14-2.34-1.95-3.12-5.08-3.12-5.08l-10.2.78s-2.73 10.2-2.73 13.71c0 3.54.78 11.38.78 11.38s-5.87 3.52-10.57 9c-4.7 5.5-10.58 13.33-10.58 15.3 0 1.95-1.17 11.36 1.57 11.36s5.1 1.56 5.1 1.56l-.8 7.45s-.77-1.18-3.52-.8c-2.74.4-8.23 3.15-10.18 5.1-1.96 1.97-3.14 6.67-5.1 7.45-1.96.8-6.66 3.14-6.66 3.14s-3.13 4.3-4.3 4.7c-1.2.4-1.97 0-3.93 2.35-1.96 2.34-8.62 8.22-8.62 10.18 0 1.96-.38 24.3-1.56 25.47-1.17 1.18-3.9-10.97-3.9-10.97s-.4 11.75 0 16.85c.38 5.1 0 12.93 2.34 15.67 2.35 2.74 10.18 7.45 11.36 10.2 1.17 2.73 9.4 14.1 9 17.62-.38 3.53 1.97 10.97 1.97 10.97l-5.47 3.9 9.8 9.02 4.3-2.74z" stroke-linejoin="round"/><path fill="#b7d696" d="M311.17 509.96s0 9.4.4 11.36c.38 1.96.77 5.88.77 5.88l-12.14 13.32s-.4-2.74-3.14-2.74-6.66 1.96-7.05-.8c-.38-2.73-1.95-3.9-1.95-3.9s5.5-1.57 7.05-3.92c1.57-2.35 5.1-14.1 5.1-14.1s8.22-4.7 10.97-5.1"/><path fill="none" stroke="#000" stroke-width="5" d="M311.17 509.96s0 9.4.4 11.36c.38 1.96.77 5.88.77 5.88l-12.14 13.32s-.4-2.74-3.14-2.74-6.66 1.96-7.05-.8c-.38-2.73-1.95-3.9-1.95-3.9s5.5-1.57 7.05-3.92c1.57-2.35 5.1-14.1 5.1-14.1s8.22-4.7 10.97-5.1z" stroke-linejoin="round"/><path fill="#b7d696" d="M409.52 441.4l-4.7 4.3s.78 0-1.96-1.18-5.5-2.74-6.66-3.53c-1.18-.8-.78-4.32-4.3-4.7-3.54-.4-14.12 0-15.7 2.34-1.55 2.35-6.25 14.1-5.47 18.03.78 3.9 3.92 10.18 3.53 14.1-.4 3.92-.4 9.8 1.17 10.97 1.57 1.18 8.23 4.7 8.62 7.06.4 2.35 2.74 4.7 3.53 3.13.78-1.57 3.13-4.7 3.92-2.74.78 1.95 3.9 5.87 3.9 5.87l-2.34 2.74 3.53 4.7 10.57-21.54z"/><path fill="none" stroke="#000" stroke-width="5" d="M409.52 441.4l-4.7 4.3s.78 0-1.96-1.18-5.5-2.74-6.66-3.53c-1.18-.8-.78-4.32-4.3-4.7-3.54-.4-14.12 0-15.7 2.34-1.55 2.35-6.25 14.1-5.47 18.03.78 3.9 3.92 10.18 3.53 14.1-.4 3.92-.4 9.8 1.17 10.97 1.57 1.18 8.23 4.7 8.62 7.06.4 2.35 2.74 4.7 3.53 3.13.78-1.57 3.13-4.7 3.92-2.74.78 1.95 3.9 5.87 3.9 5.87l-2.34 2.74 3.53 4.7 10.57-21.54z" stroke-linejoin="round"/><path fill="#b7d696" d="M392.67 511.13l-7.44.4s-3.53 1.95-3.92.4c-.38-1.58 6.67-4.33 6.67-4.33l-8.23.8 6.66-4.7s-9 2.73-11.36.77c-2.35-1.96-3.14-5.5-1.57-8.23 1.57-2.74 3.53-6.66 3.53-6.66s-3.14-.4-3.53-1.96c-.4-1.56-.4-4.3-.4-4.3s-2.34.78-3.9 2.34c-1.58 1.57-2.36 5.5-3.54 5.88-1.17.4-1.95 3.14-1.95 3.14s2.74 1.17 2.74 3.52-1.96 6.66-3.53 6.66c-1.58 0-4.32 1.57-4.32 1.57s3.53-.4 3.53 2.74-2.34 7.45-2.34 7.45 0 4.7-1.96 5.1c-1.96.38 1.96 3.13 1.96 3.13s-1.57 5.88-2.35 7.44c-.78 1.56-5.48 1.95-5.48 1.95l-5.88 4.3s1.96-5.87 3.14-7.04c1.17-1.17 4.7-1.56 4.7-1.56s4.7-3.13 2.74-3.92c-1.96-.78-4.7-4.3-4.7-4.3s-3.13 1.17-5.1 3.52c-1.95 2.35-3.9 6.66-5.48 7.84-1.57 1.17-5.88 7.83-4.3 9.4 1.56 1.57 6.65-.4 6.65-.4l2.34.8s-2.74 2.74-5.88 3.9c-3.13 1.2-6.26 7.06-6.26 7.06l-7.45 2.75 42.32-13.73 13.7-17.24s-3.9-.78-3.9-2.74c0-1.97 1.96-3.15 3.13-5.5 1.18-2.35 3.92-3.13 4.3 0 .4 3.14 3.93 1.57 3.93 1.57l2.35-6.66"/><path fill="none" stroke="#000" stroke-width="5" d="M392.67 511.13l-7.44.4s-3.53 1.95-3.92.4c-.38-1.58 6.67-4.33 6.67-4.33l-8.23.8 6.66-4.7s-9 2.73-11.36.77c-2.35-1.96-3.14-5.5-1.57-8.23 1.57-2.74 3.53-6.66 3.53-6.66s-3.14-.4-3.53-1.96c-.4-1.56-.4-4.3-.4-4.3s-2.34.78-3.9 2.34c-1.58 1.57-2.36 5.5-3.54 5.88-1.17.4-1.95 3.14-1.95 3.14s2.74 1.17 2.74 3.52-1.96 6.66-3.53 6.66c-1.58 0-4.32 1.57-4.32 1.57s3.53-.4 3.53 2.74-2.34 7.45-2.34 7.45 0 4.7-1.96 5.1c-1.96.38 1.96 3.13 1.96 3.13s-1.57 5.88-2.35 7.44c-.78 1.56-5.48 1.95-5.48 1.95l-5.88 4.3s1.96-5.87 3.14-7.04c1.17-1.17 4.7-1.56 4.7-1.56s4.7-3.13 2.74-3.92c-1.96-.78-4.7-4.3-4.7-4.3s-3.13 1.17-5.1 3.52c-1.95 2.35-3.9 6.66-5.48 7.84-1.57 1.17-5.88 7.83-4.3 9.4 1.56 1.57 6.65-.4 6.65-.4l2.34.8s-2.74 2.74-5.88 3.9c-3.13 1.2-6.26 7.06-6.26 7.06l-7.45 2.75 42.32-13.73 13.7-17.24s-3.9-.78-3.9-2.74c0-1.97 1.96-3.15 3.13-5.5 1.18-2.35 3.92-3.13 4.3 0 .4 3.14 3.93 1.57 3.93 1.57l2.35-6.66" stroke-linejoin="round"/><path fill="#b7d696" d="M350.35 517.4c2.35-.78 7.45-4.3 7.05-5.88-.4-1.56-2.35-3.13-3.9-2.35-1.58.8-3.93 3.14-3.93 3.14h3.92z"/><path fill="none" stroke="#000" stroke-width="5" d="M350.35 517.4c2.35-.78 7.45-4.3 7.05-5.88-.4-1.56-2.35-3.13-3.9-2.35-1.58.8-3.93 3.14-3.93 3.14h3.92z" stroke-linejoin="round"/><path fill="#b7d696" d="M275.5 528.37c2.75-1.56 5.9-.4 5.9-.4s2.34-4.3 3.52-5.47c1.17-1.18 3.13-5.1 3.13-5.1l-3.92-.78 2.74-4.3-2.35-3.54-5.48 7.45 1.17 3.13z"/><path fill="none" stroke="#000" stroke-width="5" d="M275.5 528.37c2.75-1.56 5.9-.4 5.9-.4s2.34-4.3 3.52-5.47c1.17-1.18 3.13-5.1 3.13-5.1l-3.92-.78 2.74-4.3-2.35-3.54-5.48 7.45 1.17 3.13z" stroke-linejoin="round"/><path fill="#b7d696" d="M248.47 440.2l3.92 1.97 11.75-7.45-3.92-.78-7.44 5.1-4.72 2.34"/><path fill="none" stroke="#000" stroke-width="5" d="M248.47 440.2l3.92 1.97 11.75-7.45-3.92-.78-7.44 5.1-4.72 2.34" stroke-linejoin="round"/><path fill="#b7d696" d="M275.5 534.64l5.9-3.9-1.2 4.3h3.54l5.5 7.05-8.24-3.93z"/><path fill="none" stroke="#000" stroke-width="5" d="M275.5 534.64l5.9-3.9-1.2 4.3h3.54l5.5 7.05-8.24-3.93z" stroke-linejoin="round"/><path fill="#b7d696" d="M270.42 433.16l4.3-.8-1.95-1.55z"/><path fill="none" stroke="#000" stroke-width="5" d="M270.42 433.16l4.3-.8-1.95-1.55z" stroke-linejoin="round"/><path fill="#b7d696" d="M262.2 532.3l5.08 3.13 2.75-6.66-3.53-1.57-4.3 5.88"/><path fill="none" stroke="#000" stroke-width="5" d="M262.2 532.3l5.08 3.13 2.75-6.66-3.53-1.57-4.3 5.88" stroke-linejoin="round"/><path fill="none" stroke="#000" stroke-width="8" d="M412.15 452c0-62.02-50.27-112.3-112.28-112.3-62 0-112.28 50.28-112.28 112.3 0 62 50.26 112.28 112.27 112.28 62 0 112.28-50.27 112.28-112.3z"/><g><g><g clip-path="url(#c)" opacity=".7"><path fill="#800101" fill-rule="evenodd" d="M401.9 457.24c-31.4 0-56.9 25.5-56.9 56.9s25.5 56.92 56.9 56.92c31.38 0 56.88-25.5 56.88-56.9s-25.5-56.92-56.9-56.92"/></g></g></g><path fill="none" stroke="#fff" stroke-width="2.89" stroke-miterlimit="10" d="M401.9 457.24c-31.4 0-56.9 25.5-56.9 56.9s25.5 56.92 56.9 56.92c31.38 0 56.88-25.5 56.88-56.9s-25.5-56.92-56.9-56.92z" stroke-linejoin="round"/><text fill="#fff" transform="matrix(1 0 0 -1 369.077 480.951)" style="-inkscape-font-specification:Helvetica-Bold" font-weight="bold" font-size="123.474" font-family="Helvetica"><tspan x="0" y="0">e</tspan></text></g></g></g></svg>